<?xml version="1.0" standalone="no"?><!DOCTYPE svg PUBLIC "-//W3C//DTD SVG 1.1//EN" "http://www.w3.org/Graphics/SVG/1.1/DTD/svg11.dtd"><svg t="1535182462840" class="icon" style="" viewBox="0 0 1024 1024" version="1.1" xmlns="http://www.w3.org/2000/svg" p-id="4408" xmlns:xlink="http://www.w3.org/1999/xlink" width="28" height="28"><defs><style type="text/css"></style></defs><path d="M853.76 889.28 221.888 889.28c-57.152 0-103.616-42.688-103.616-95.232L118.272 165.888c0-52.48 46.464-95.232 103.616-95.232l631.936 0c57.152 0 103.616 42.688 103.616 95.232l0 628.224C957.44 846.592 910.912 889.28 853.76 889.28zM221.888 134.144c-19.072 0-34.56 14.208-34.56 31.744l0 628.224c0 17.472 15.488 31.744 34.56 31.744l631.936 0c19.008 0 34.56-14.272 34.56-31.744L888.384 165.888c0-17.536-15.488-31.744-34.56-31.744L221.888 134.144zM128 192l768 0 0 64-768 0 0-64ZM128 576l768 0 0 64-768 0 0-64ZM309.376 774.784c-31.68 0-57.408-25.728-57.408-57.408 0-31.616 25.728-57.344 57.408-57.344s57.408 25.728 57.408 57.344C366.784 749.056 341.056 774.784 309.376 774.784zM309.376 692.032c-14.016 0-25.408 11.392-25.408 25.344s11.392 25.408 25.408 25.408 25.408-11.456 25.408-25.408S323.392 692.032 309.376 692.032zM641.344 768 446.656 768c-25.728 0-46.656-20.928-46.656-46.656 0-25.664 20.928-46.656 46.656-46.656l194.688 0c25.728 0 46.656 20.928 46.656 46.656C688 747.072 667.072 768 641.344 768zM446.656 706.688c-8.064 0-14.656 6.592-14.656 14.656 0 8.128 6.592 14.656 14.656 14.656l194.688 0c8.128 0 14.656-6.592 14.656-14.656 0-8.064-6.592-14.656-14.656-14.656L446.656 706.688zM741.44 1001.984c-36.352 0-70.016-24.896-82.368-61.952-6.976-21.248-7.424-42.56-7.872-63.168-0.128-7.488-0.256-14.976-0.768-22.336l50.944-3.136c0.576 8 0.704 16.256 0.96 24.512 0.32 18.048 0.704 35.136 5.568 49.856 5.696 17.344 21.44 29.056 36.224 28.032 15.808-1.728 33.792-15.936 35.456-34.24 1.216-12.736 0.704-39.616 0.32-52.736L779.52 832l51.072 0 0.384 33.6c0.448 14.912 0.896 36.864-0.448 51.328C825.408 972.416 797.376 998.4 741.44 1001.984zM342.976 1001.984c-36.288 0-70.016-24.896-82.304-61.952-6.976-21.248-7.424-42.56-7.872-63.168-0.128-7.488-0.256-14.976-0.768-22.336l50.944-3.136c0.576 8 0.704 16.256 0.96 24.512 0.32 18.048 0.704 35.136 5.568 49.856 5.696 17.344 21.44 29.056 36.224 28.032 15.808-1.728 33.792-15.936 35.456-34.24 1.216-12.736 0.704-39.616 0.32-52.736L381.056 832l51.072 0 0.384 33.6c0.448 14.912 0.896 36.864-0.448 51.328C426.944 972.416 398.912 998.4 342.976 1001.984zM512 256l64 0 0 320-64 0 0-320ZM781.312 782.656c-31.616 0-57.344-25.728-57.344-57.344s25.664-57.344 57.344-57.344 57.344 25.664 57.344 57.344S812.928 782.656 781.312 782.656zM781.312 700.032c-13.952 0-25.344 11.392-25.344 25.344 0 14.016 11.392 25.344 25.344 25.344 14.016 0 25.344-11.392 25.344-25.344C806.656 711.36 795.328 700.032 781.312 700.032zM118.4 381.888c-22.784 0-41.344-18.56-41.344-41.344L77.056 268.544c0-22.784 18.56-41.344 41.344-41.344 22.784 0 41.344 18.56 41.344 41.344l0 72C159.744 363.328 141.184 381.888 118.4 381.888zM118.4 259.2c-5.056 0-9.344 4.288-9.344 9.344l0 72c0 10.24 18.688 10.24 18.688 0L127.744 268.544C127.744 263.36 123.52 259.2 118.4 259.2zM960.256 378.112c-22.72 0-41.344-18.56-41.344-41.344L918.912 264.832c0-22.784 18.56-41.344 41.344-41.344 22.784 0 41.344 18.56 41.344 41.344l0 72C1001.6 359.616 983.04 378.112 960.256 378.112zM960.256 255.488c-5.12 0-9.344 4.16-9.344 9.344l0 72c0 10.112 18.688 10.112 18.688 0L969.6 264.832C969.6 259.776 965.312 255.488 960.256 255.488z" p-id="4409" fill="#ffffff"></path></svg>