<?xml version="1.0" standalone="no"?><!DOCTYPE svg PUBLIC "-//W3C//DTD SVG 1.1//EN" "http://www.w3.org/Graphics/SVG/1.1/DTD/svg11.dtd"><svg t="1572763462641" class="icon" viewBox="0 0 1024 1024" version="1.1" xmlns="http://www.w3.org/2000/svg" p-id="3208" width="50" height="50" xmlns:xlink="http://www.w3.org/1999/xlink"><defs><style type="text/css"></style></defs><path d="M793.6 606.208a33.9968 33.9968 0 0 0-48.128 0L545.792 805.888V137.216c0-18.432-15.36-33.792-33.792-33.792s-33.792 15.36-33.792 33.792v668.672L278.528 606.208a33.9968 33.9968 0 0 0-48.128 0 33.9968 33.9968 0 0 0 0 48.128L487.424 911.36s0 1.024 1.024 1.024c3.072 3.072 7.168 6.144 11.264 7.168h1.024c3.072 2.048 7.168 2.048 11.264 2.048 4.096 0 8.192-1.024 12.288-2.048h1.024c4.096-2.048 8.192-4.096 11.264-7.168L793.6 655.36c13.312-14.336 13.312-35.84 0-49.152z" p-id="3209" fill="#FFFFFF"></path></svg>