<?xml version="1.0" standalone="no"?><!DOCTYPE svg PUBLIC "-//W3C//DTD SVG 1.1//EN" "http://www.w3.org/Graphics/SVG/1.1/DTD/svg11.dtd"><svg t="1572415068185" class="icon" viewBox="0 0 1024 1024" version="1.1" xmlns="http://www.w3.org/2000/svg" p-id="14018" width="50" height="50" xmlns:xlink="http://www.w3.org/1999/xlink"><defs><style type="text/css"></style></defs><path d="M875.008 889.856H148.992c-11.264 0-20.48-9.216-20.48-20.48s9.216-20.48 20.48-20.48h726.016c11.264 0 20.48 9.216 20.48 20.48s-9.216 20.48-20.48 20.48z" p-id="14019" fill="#ff5e14"></path><path d="M573.952 889.856H204.288c-12.288 0-22.528-10.24-22.528-22.528V180.736c0-25.6 20.992-46.592 46.592-46.592h321.024c25.6 0 46.592 20.992 46.592 46.592v686.592c0.512 12.288-9.728 22.528-22.016 22.528z m-351.232-40.96h332.288V180.736c0-3.072-2.56-5.632-5.632-5.632H228.864c-3.072 0-5.632 2.56-5.632 5.632v668.16z" p-id="14020" fill="#ff5e14"></path><path d="M345.088 318.976H292.864c-11.264 0-20.48-9.216-20.48-20.48s9.216-20.48 20.48-20.48h52.224c11.264 0 20.48 9.216 20.48 20.48s-9.216 20.48-20.48 20.48zM485.376 318.976H433.664c-11.264 0-20.48-9.216-20.48-20.48s9.216-20.48 20.48-20.48h52.224c11.264 0 20.48 9.216 20.48 20.48s-9.728 20.48-20.992 20.48zM345.088 429.568H292.864c-11.264 0-20.48-9.216-20.48-20.48s9.216-20.48 20.48-20.48h52.224c11.264 0 20.48 9.216 20.48 20.48s-9.216 20.48-20.48 20.48zM485.376 429.568H433.664c-11.264 0-20.48-9.216-20.48-20.48s9.216-20.48 20.48-20.48h52.224c11.264 0 20.48 9.216 20.48 20.48s-9.728 20.48-20.992 20.48zM345.088 539.648H292.864c-11.264 0-20.48-9.216-20.48-20.48s9.216-20.48 20.48-20.48h52.224c11.264 0 20.48 9.216 20.48 20.48s-9.216 20.48-20.48 20.48zM485.376 539.648H433.664c-11.264 0-20.48-9.216-20.48-20.48s9.216-20.48 20.48-20.48h52.224c11.264 0 20.48 9.216 20.48 20.48s-9.728 20.48-20.992 20.48z" p-id="14021" fill="#ff5e14"></path><path d="M345.088 650.24H292.864c-11.264 0-20.48-9.216-20.48-20.48s9.216-20.48 20.48-20.48h52.224c11.264 0 20.48 9.216 20.48 20.48s-9.216 20.48-20.48 20.48zM485.376 650.24H433.664c-11.264 0-20.48-9.216-20.48-20.48s9.216-20.48 20.48-20.48h52.224c11.264 0 20.48 9.216 20.48 20.48s-9.728 20.48-20.992 20.48z" p-id="14022" fill="#ff5e14"></path><path d="M345.088 760.32H292.864c-11.264 0-20.48-9.216-20.48-20.48s9.216-20.48 20.48-20.48h52.224c11.264 0 20.48 9.216 20.48 20.48s-9.216 20.48-20.48 20.48zM485.376 760.32H433.664c-11.264 0-20.48-9.216-20.48-20.48s9.216-20.48 20.48-20.48h52.224c11.264 0 20.48 9.216 20.48 20.48s-9.728 20.48-20.992 20.48z" p-id="14023" fill="#ff5e14"></path><path d="M842.24 862.72h-40.96v-491.52c0-4.096-2.56-8.192-6.656-9.216l-224.768-73.728 12.8-38.912L806.912 322.56c20.992 6.656 34.816 26.112 34.816 48.128v492.032z" p-id="14024" fill="#ff5e14"></path></svg>