<?xml version="1.0" standalone="no"?><!DOCTYPE svg PUBLIC "-//W3C//DTD SVG 1.1//EN" "http://www.w3.org/Graphics/SVG/1.1/DTD/svg11.dtd"><svg t="1572417071608" class="icon" viewBox="0 0 1024 1024" version="1.1" xmlns="http://www.w3.org/2000/svg" p-id="74980" width="50" height="50" xmlns:xlink="http://www.w3.org/1999/xlink"><defs><style type="text/css"></style></defs><path d="M473.6 930.133333h85.333333V85.333333a42.666667 42.666667 0 0 1 42.666667-42.666666h256a42.666667 42.666667 0 0 1 42.666667 42.666666v844.8h75.946666a25.6 25.6 0 1 1 0 51.2H68.266667a25.6 25.6 0 0 1 0-51.2h64V85.333333a42.666667 42.666667 0 0 1 42.666666-42.666666h256a42.666667 42.666667 0 0 1 42.666667 42.666666v844.8z m136.533333-836.266666v832h238.933334V93.866667h-238.933334z m55.466667 190.890666a25.6 25.6 0 0 1 0-51.2h132.352a25.6 25.6 0 1 1 0 51.2H665.6z m0 170.666667a25.6 25.6 0 1 1 0-51.2h132.352a25.6 25.6 0 1 1 0 51.2H665.6z m0 170.666667a25.6 25.6 0 1 1 0-51.2h132.352a25.6 25.6 0 1 1 0 51.2H665.6zM183.466667 93.866667v832h238.933333V93.866667H183.466667z m55.466666 190.890666a25.6 25.6 0 1 1 0-51.2h132.352a25.6 25.6 0 1 1 0 51.2H238.933333z m0 170.666667a25.6 25.6 0 1 1 0-51.2h132.352a25.6 25.6 0 1 1 0 51.2H238.933333z m0 170.666667a25.6 25.6 0 1 1 0-51.2h132.352a25.6 25.6 0 0 1 0 51.2H238.933333z" p-id="74981" fill="#ff5e14"></path></svg>