<?xml version="1.0" standalone="no"?><!DOCTYPE svg PUBLIC "-//W3C//DTD SVG 1.1//EN" "http://www.w3.org/Graphics/SVG/1.1/DTD/svg11.dtd"><svg t="1573876846362" class="icon" viewBox="0 0 1024 1024" version="1.1" xmlns="http://www.w3.org/2000/svg" p-id="8955" width="50" height="50" xmlns:xlink="http://www.w3.org/1999/xlink"><defs><style type="text/css"></style></defs><path d="M739.555556 741.319111H56.888889l341.333333-682.666667 235.121778 470.243556L739.555556 343.096889l227.555555 398.222222h-227.555555z m-28.444445-56.888889h157.980445L739.555556 457.728l-75.662223 132.323556 47.217778 94.435555zM398.222222 177.379556l-245.532444 507.050666h491.064889L398.222222 177.379556zM169.699556 912.213333v-56.888889h682.723555v56.888889H169.756444zM682.040889 170.666667a113.777778 113.777778 0 1 1 227.612444 0.113777A113.777778 113.777778 0 0 1 682.097778 170.666667z m56.888889 0a56.945778 56.945778 0 1 0 56.888889-56.888889c-31.345778 0-56.888889 25.486222-56.888889 56.888889z" p-id="8956" fill="#ff5e14"></path></svg>