<?xml version="1.0" standalone="no"?><!DOCTYPE svg PUBLIC "-//W3C//DTD SVG 1.1//EN" "http://www.w3.org/Graphics/SVG/1.1/DTD/svg11.dtd"><svg t="1573876810114" class="icon" viewBox="0 0 1024 1024" version="1.1" xmlns="http://www.w3.org/2000/svg" p-id="7501" width="50" height="50" xmlns:xlink="http://www.w3.org/1999/xlink"><defs><style type="text/css"></style></defs><path d="M717.6448 64c-76.6976 0-150.0672 29.696-205.568 82.432A298.4448 298.4448 0 0 0 306.432 64C149.0176 64 25.6 187.392 25.6 345.0624c0 184.1152 155.0848 325.5552 389.8624 539.5712l75.392 67.2768a31.8208 31.8208 0 0 0 42.4192 0l64.896-57.8048 10.368-9.472C843.3152 670.6176 998.4 529.1776 998.4 345.088 998.4 187.3664 875.1104 64 717.6448 64zM314.5728 124.3648c68.9664 2.176 133.4016 36.096 178.56 89.1904l18.816 22.0672 18.816-22.0672c45.2608-53.0688 109.568-87.04 178.5344-89.1904 130.432-4.2496 229.888 92.1088 229.888 220.6976 0 37.8112-8.704 74.1632-24.6528 110.6432h-250.0096l-22.9888-48.8192c-5.6064-12.032-17.28-19.0464-30.6176-19.6352a34.048 34.048 0 0 0-30.464 19.8656l-56.7296 117.1968-71.2192-151.8592c-5.8368-12.4928-17.6384-21.8112-31.232-22.2976a34.3296 34.3296 0 0 0-31.0784 16.7168l-55.04 89.088H109.568c-16.0768-36.48-24.7808-73.088-24.7808-110.8992-0.1024-128.7168 99.3536-224.9472 229.7856-220.6976z m254.5408 715.4432l-35.84 32.1024a31.7184 31.7184 0 0 1-42.5472 0l-35.84-32.1024c-139.7248-127.3856-249.7792-227.7376-312.32-323.6096h225.3568l49.0752-79.616 73.984 157.5424c6.0672 13.0816 18.816 21.2224 32.9984 21.2224h0.1024a36.096 36.096 0 0 0 33.024-21.4528l54.1696-111.744 14.7712 31.488 256.9216 0.128c-62.2848 96.4864-172.8 197.4528-313.856 326.0416z" p-id="7502" fill="#ff5e14"></path></svg>