<?xml version="1.0" standalone="no"?><!DOCTYPE svg PUBLIC "-//W3C//DTD SVG 1.1//EN" "http://www.w3.org/Graphics/SVG/1.1/DTD/svg11.dtd"><svg t="1573876716659" class="icon" viewBox="0 0 1024 1024" version="1.1" xmlns="http://www.w3.org/2000/svg" p-id="6052" width="50" height="50" xmlns:xlink="http://www.w3.org/1999/xlink"><defs><style type="text/css"></style></defs><path d="M320.372491 929.007246c-5.473334 0-11.068298-2.067704-15.203706-6.324742L97.303718 714.817437c-4.013778-4.013778-6.324742-9.487112-6.324742-15.203706s2.310963-11.189928 6.324742-15.203706L723.088253 58.62549c13.74415-13.74415 32.475116-21.650077 51.327711-21.650077 17.757928 0 34.177931 6.689631 46.462525 18.974225l143.158095 143.158095c12.892743 12.892743 19.704003 30.407412 18.852595 49.138377-0.729778 18.122817-8.392446 35.394227-21.528447 48.530229L335.576197 922.682504c-4.135408 4.257038-9.730372 6.324742-15.203706 6.324742z m-168.213802-231.09633l169.916617 169.916617 592.214752-592.214752c5.230075-5.230075 13.379261-15.325336 13.98741-22.258226 0.608148-6.568001-1.946074-13.379261-6.081483-17.514669L785.119373 98.763274c-3.892149-3.892149-11.189928-6.81126-19.460744-5.959853-8.757335 0.973037-15.811854 7.419408-21.285188 12.892742L152.158689 697.910916z m-9.243854 1.702815" p-id="6053" fill="#ff5e14"></path><path d="M76.991567 960.144435c-9.730372 0-18.244447-7.05452-19.947262-16.906521-1.824445-10.946668 5.594964-21.406818 16.663261-23.231262L306.8716 881.814942c11.068298-1.824445 21.406818 5.594964 23.231263 16.663262 1.824445 10.946668-5.594964 21.406818-16.663262 23.231263l-233.164034 38.313339c-1.094667 0-2.189334 0.12163-3.284 0.121629z m0 0" p-id="6054" fill="#ff5e14"></path><path d="M71.639862 969.874807c-10.33852 0-19.460744-7.541038-21.163558-18.001188-1.946074-11.676446 6.081482-22.744744 17.757928-24.690818l248.732629-40.745932c11.798076-1.946074 22.744744 6.081482 24.690818 17.757928 1.946074 11.676446-6.081482 22.744744-17.757928 24.690819l-248.732629 40.867561c-1.216296 0-2.310963 0.12163-3.52726 0.12163z m0 0" p-id="6055" fill="#ff5e14"></path><path d="M80.640456 964.644732c-1.094667 0-2.189334-0.12163-3.284-0.243259-10.946668-1.824445-18.487706-12.162965-16.663262-23.231263l38.313339-233.164033c1.824445-10.946668 12.162965-18.487706 23.231262-16.663262 10.946668 1.824445 18.487706 12.162965 16.663262 23.231262L100.587718 947.616582c-1.702815 9.973631-10.21689 17.028151-19.947262 17.02815z m0 0" p-id="6056" fill="#ff5e14"></path><path d="M71.761492 969.874807c-1.216296 0-2.310963-0.12163-3.52726-0.243259-11.676446-1.946074-19.704003-13.014372-17.757928-24.690819l40.867561-248.732628c1.946074-11.676446 13.014372-19.704003 24.690818-17.757929 11.676446 1.946074 19.704003 13.014372 17.757929 24.690819l-40.867562 248.732628c-1.702815 10.46015-10.825039 18.001188-21.163558 18.001188z m0 0M860.773013 388.606723c-5.473334 0-11.068298-2.067704-15.203705-6.324742L637.70424 174.416914c-8.392446-8.392446-8.392446-22.014966 0-30.407412 8.392446-8.392446 22.014966-8.392446 30.407412 0l207.865067 207.865067c8.392446 8.392446 8.392446 22.014966 0 30.407412-4.135408 4.257038-9.608742 6.324742-15.203706 6.324742z m0 0M679.30158 911.614206c-5.473334 0-11.068298-2.067704-15.203706-6.324742-8.392446-8.392446-11.798076-23.717781-3.40563-32.110227l114.331868-114.331868c8.392446-8.392446 25.420596-6.689631 33.813042 1.702815 8.392446 8.392446 11.068298 24.325929 2.675852 32.718375l-114.331868 114.331869c-4.135408 4.257038-12.284594 4.013778-17.879558 4.013778z m0 0M601.945124 834.25775c-5.473334 0-11.068298-2.067704-15.203706-6.324741-8.392446-8.392446-13.500891-23.596152-5.108445-31.988598l114.331868-114.331868c8.392446-8.392446 27.123411-6.81126 35.515857 1.581185 8.392446 8.392446 8.757335 25.298967 0.364889 33.691413l-114.331868 114.331868c-4.135408 4.135408-9.973631 3.040741-15.568595 3.040741z m0 0" p-id="6057" fill="#ff5e14"></path><path d="M783.294928 996.633329c-18.001188 0-34.907709-7.05452-47.557192-19.704002L493.329849 734.52144c-8.392446-8.392446-8.392446-22.014966 0-30.407412l214.797957-214.797957c4.013778-4.013778 9.487112-6.324742 15.203706-6.324742s11.189928 2.310963 15.203706 6.324742l242.407887 242.407887c12.649483 12.649483 19.704003 29.556004 19.704003 47.557192s-7.05452 34.907709-19.704003 47.557192L830.85212 976.929327c-12.649483 12.649483-29.556004 19.704003-47.557192 19.704002zM543.806153 713.966029l221.365958 221.365958c4.378667 4.378667 10.095261 6.689631 16.176743 6.689631s11.798076-2.432593 16.176743-6.689631L939.345766 793.511819c4.378667-4.378667 6.689631-10.095261 6.68963-16.176744s-2.432593-11.798076-6.68963-16.176743l-221.365958-221.365958L543.806153 713.966029z m-4.743556 5.351705M129.900463 362.09146c-5.473334 0-11.068298-2.067704-15.203706-6.324742-8.392446-8.392446-11.311557-24.08267-2.919111-32.475116l114.331868-114.331868c8.392446-8.392446 24.934078-6.446371 33.326524 2.067704 8.392446 8.392446 9.973631 22.866374 1.459555 31.258819l-114.331868 114.331869c-4.135408 4.257038-11.189928 5.473334-16.663262 5.473334z m0 0M207.256919 439.569545c-5.473334 0-11.068298-2.067704-15.203706-6.324742-8.392446-8.392446-11.676446-23.596152-3.284001-31.988597l114.331869-114.331868c8.392446-8.392446 25.298967-6.81126 33.691412 1.581185 8.392446 8.392446 10.33852 24.569189 1.946075 32.961635l-114.331869 114.331868c-4.135408 4.135408-11.676446 3.770519-17.14978 3.770519z m0 0" p-id="6058" fill="#ff5e14"></path><path d="M300.668488 532.981114c-5.716593 0-11.189928-2.310963-15.203706-6.324742L43.056895 284.248486c-12.649483-12.649483-19.704003-29.556004-19.704003-47.557192s7.05452-34.907709 19.704003-47.557193L193.14788 39.043117C205.918993 26.272004 222.825514 19.339114 240.705072 19.339114c18.001188 0 34.907709 6.93289 47.557192 19.704003L530.670151 281.329374c8.392446 8.392446 8.392446 22.014966 0 30.407412L315.872194 526.656372c-4.013778 4.013778-9.487112 6.324742-15.203706 6.324742zM242.651146 73.707566c-6.081482 0-11.919705 2.432593-16.176743 6.689631L84.532605 222.338995c-4.378667 4.378667-6.689631 10.095261-6.689631 16.176743s2.432593 11.919705 6.689631 16.176743l221.852476 221.852477L480.801995 302.128044 258.827889 80.397197c-4.257038-4.378667-10.095261-6.689631-16.176743-6.689631z m-1.946074-11.311557" p-id="6059" fill="#ff5e14"></path></svg>