<?xml version="1.0" standalone="no"?><!DOCTYPE svg PUBLIC "-//W3C//DTD SVG 1.1//EN" "http://www.w3.org/Graphics/SVG/1.1/DTD/svg11.dtd"><svg t="1572838734860" class="icon" viewBox="0 0 1024 1024" version="1.1" xmlns="http://www.w3.org/2000/svg" p-id="1113" width="50" height="50" xmlns:xlink="http://www.w3.org/1999/xlink"><defs><style type="text/css"></style></defs><path d="M819.2 397.1527114666667C819.2 228.10168853333334 681.7109333333334 91.02222186666665 512 91.02222186666665c-169.66542186666666 0-307.2 137.07946666666666-307.2 306.13048960000003 0 55.864888533333335 15.246221866666668 108.02062186666667 41.415111466666666 153.12213333333332h-0.3413333333333333L511.95448853333335 932.9777781333332l266.1944896-382.7029333333333h-0.3640896a302.83093333333335 302.83093333333335 0 0 0 41.415111466666666-153.12213333333332z m-307.1772448 153.05386666666666c-84.83271146666667 0-153.6-68.51697813333334-153.6-153.07662293333334 0-84.49137813333333 68.76728853333334-153.07662186666667 153.6-153.07662186666667 84.90097813333334 0 153.6 68.5852448 153.6 153.07662186666667 0 84.55964479999999-68.69902186666667 153.07662186666667-153.6 153.07662293333334z" fill="#ff5e14" p-id="1114"></path></svg>