<?xml version="1.0" standalone="no"?>
<!DOCTYPE svg PUBLIC "-//W3C//DTD SVG 1.1//EN" "http://www.w3.org/Graphics/SVG/1.1/DTD/svg11.dtd" >
<svg xmlns="http://www.w3.org/2000/svg" xmlns:xlink="http://www.w3.org/1999/xlink" version="1.1">
<metadata>
Created by FontForge 20150824 at Wed Jun  8 02:05:49 2016
 By Everything Fonts
Part of the digitally encoded machine readable outline data for producing the Typefaces provided is copyrighted (c) 2003 - 2006 Linotype GmbH, www.linotype.com. All rights reserved. This software is the property of Linotype GmbH, and may not be reproduced, modified, disclosed or transferred without the express written approval of Linotype GmbH. Copyright (c) 1988, 1990, 1993 Adobe Systems Incorporated. All Rights Reserved. Helvetica is a trademark of Heidelberger Druckmaschinen AG, exclusively licensed through Linotype GmbH, and may be registered in certain jurisdictions. This typeface is original artwork of Linotype Design Studio. The design may be protected in certain jurisdictions.
</metadata>
<defs>
<font id="HelveticaNeueLTProXBlkCn" horiz-adv-x="500" >
  <font-face 
    font-family="HelveticaNeueLTProXBlkCn"
    font-weight="950"
    font-stretch="normal"
    units-per-em="1000"
    panose-1="2 11 8 6 4 5 2 5 2 4"
    ascent="714"
    descent="-286"
    x-height="541"
    cap-height="714"
    bbox="-167 -240 1117 1023"
    underline-thickness="50"
    underline-position="-150"
    unicode-range="U+000D-FB02"
  />
<missing-glyph horiz-adv-x="512" 
d="M222 117h56v67h-56v-67zM225 234h46q0 52 6 72q6 19 43 52q37 34 50 60t13 60q0 59 -35 95t-89 36q-56 0 -92 -34t-43 -103l50 -8q11 95 82 95q31 0 53.5 -24.5t22.5 -60.5q0 -20 -9.5 -37t-40.5 -46q-31 -31 -46 -59q-13 -25 -13 -81zM462 50h-412v617h412v-617z
M512 718h-512v-718h512v718z" />
    <glyph glyph-name="IJ" unicode="IJ" horiz-adv-x="775" 
d="M29 0v714h200v-714h-200zM539 209v505h200v-514q0 -214 -240 -214q-46 0 -82.5 9t-59 21.5t-39 33t-24.5 36.5t-12 38.5t-4.5 32.5t-0.5 26v49h182v-53q0 -61 40 -61q25 0 32.5 20t7.5 71z" />
    <glyph glyph-name="ij" unicode="ij" horiz-adv-x="514" 
d="M32 584v138h194v-138h-194zM32 0v541h194v-541h-194zM288 584v138h194v-138h-194zM482 541v-545q0 -104 -32.5 -138t-135.5 -34q-40 0 -92 4v131q24 -3 30 -3q11 0 17.5 2t12.5 11.5t6 26.5v545h194z" />
    <glyph glyph-name="napostrophe" unicode="&#x22;n" horiz-adv-x="563" 
d="M342 0v358q0 30 -9 41.5t-29 11.5q-39 0 -39 -53v-358h-194v541h188v-62h2q42 76 143 76q57 0 94.5 -33.5t37.5 -103.5v-418h-194zM10 714v113h154v-93q-5 -51 -34 -72.5t-100 -24.5v46q26 3 36.5 9.5t15.5 21.5h-72z" />
    <glyph glyph-name="fi" unicode="fi" horiz-adv-x="574" 
d="M348 584v138h194v-138h-194zM348 0v541h194v-541h-194zM56 541v64q0 69 39.5 96t123.5 27q14 0 52.5 -1.5t46.5 -1.5v-123h-26q-15 0 -24.5 -2.5t-13 -9.5t-4 -11.5t-0.5 -15.5v-22h68v-126h-68v-415h-194v415h-59v126h59z" />
    <glyph glyph-name="fl" unicode="fl" horiz-adv-x="574" 
d="M348 0v714h194v-714h-194zM56 541v64q0 69 39.5 96t123.5 27q14 0 52.5 -1.5t46.5 -1.5v-123h-26q-15 0 -24.5 -2.5t-13 -9.5t-4 -11.5t-0.5 -15.5v-22h68v-126h-68v-415h-194v415h-59v126h59z" />
    <glyph glyph-name=".notdef" horiz-adv-x="512" 
d="M222 117h56v67h-56v-67zM225 234h46q0 52 6 72q6 19 43 52q37 34 50 60t13 60q0 59 -35 95t-89 36q-56 0 -92 -34t-43 -103l50 -8q11 95 82 95q31 0 53.5 -24.5t22.5 -60.5q0 -20 -9.5 -37t-40.5 -46q-31 -31 -46 -59q-13 -25 -13 -81zM462 50h-412v617h412v-617z
M512 718h-512v-718h512v718z" />
    <glyph glyph-name=".null" 
 />
    <glyph glyph-name=".null" 
 />
    <glyph glyph-name="nonmarkingreturn" horiz-adv-x="333" 
 />
    <glyph glyph-name="CR" unicode="&#xd;" horiz-adv-x="0" 
 />
    <glyph glyph-name="space" unicode=" " horiz-adv-x="260" 
 />
    <glyph glyph-name="exclam" unicode="!" horiz-adv-x="334" 
d="M76 0v168h182v-168h-182zM73 474v240h188v-240l-19 -260h-150z" />
    <glyph glyph-name="quotedbl" unicode="&#x22;" 
d="M45 328v386h170v-386h-170zM285 328v386h170v-386h-170z" />
    <glyph glyph-name="numbersign" unicode="#" horiz-adv-x="520" 
d="M314 516l22 178h120l-22 -178h71v-120h-87l-12 -98h72v-120h-88l-22 -178h-120l22 178h-64l-22 -178h-120l22 178h-71v120h87l12 98h-72v120h88l22 178h120l-22 -178h64zM286 298l12 98h-64l-12 -98h64z" />
    <glyph glyph-name="dollar" unicode="$" horiz-adv-x="520" 
d="M208 -103v89q-99 6 -148 53t-49 148v21h194v-36q0 -60 49 -60t49 64q0 21 -6 34.5t-12.5 19t-24.5 15.5q-9 5 -99 45q-64 32 -86 51q-58 51 -58 145q0 211 191 222v77h78v-77q121 -6 163.5 -60.5t42.5 -152.5h-188v29q0 58 -47 58q-22 0 -34 -15.5t-12 -39.5
q0 -28 16.5 -47.5t42.5 -32t58 -24t64 -27.5t58 -37.5t42.5 -59.5t16.5 -89q0 -123 -53 -171.5t-170 -52.5v-89h-78z" />
    <glyph glyph-name="percent" unicode="%" horiz-adv-x="778" 
d="M171 -31l322 756h114l-322 -756h-114zM174 324q-94 0 -127.5 46t-33.5 146t33.5 146t127.5 46t127.5 -46t33.5 -146t-33.5 -146t-127.5 -46zM174 408q20 0 24.5 22t4.5 86t-4.5 86t-24.5 22t-24.5 -22t-4.5 -86t4.5 -86t24.5 -22zM604 -14q-94 0 -127.5 46t-33.5 146
t33.5 146t127.5 46t127.5 -46t33.5 -146t-33.5 -146t-127.5 -46zM604 70q20 0 24.5 22t4.5 86t-4.5 86t-24.5 22t-24.5 -22t-4.5 -86t4.5 -86t24.5 -22z" />
    <glyph glyph-name="ampersand" unicode="&#x26;" horiz-adv-x="630" 
d="M330 567q0 23 -14 35t-36 12q-23 0 -36 -12t-13 -31q0 -23 17 -49l28 -40q15 9 34.5 35t19.5 50zM429 0l-29 40q-76 -54 -180 -54q-62 0 -107 20t-67 52t-31.5 63.5t-9.5 64.5q0 132 136 207q-72 83 -72 158q0 79 56 125t144 46q102 0 162.5 -39t60.5 -125
q0 -42 -19.5 -79t-41 -57.5t-62.5 -52.5l70 -97q24 50 24 78h170q-4 -63 -29.5 -121t-64.5 -93l100 -136h-210zM321 156l-85 116q-14 -7 -28.5 -27.5t-14.5 -47.5q0 -26 20 -43.5t47 -17.5q34 0 61 20z" />
    <glyph glyph-name="quotesingle" unicode="'" horiz-adv-x="260" 
d="M45 328v386h170v-386h-170z" />
    <glyph glyph-name="parenleft" unicode="(" horiz-adv-x="333" 
d="M181 714h163q-59 -82 -87.5 -207.5t-28.5 -246.5q0 -112 30.5 -237t85.5 -207h-163q-69 100 -107 226.5t-34 245.5q4 111 40.5 223.5t100.5 202.5z" />
    <glyph glyph-name="parenright" unicode=")" horiz-adv-x="333" 
d="M152 -184h-163q59 82 87.5 207.5t28.5 246.5q0 113 -30 236.5t-86 207.5h163q69 -100 107 -226.5t34 -245.5q-4 -111 -40.5 -223.5t-100.5 -202.5z" />
    <glyph glyph-name="asterisk" unicode="*" horiz-adv-x="407" 
d="M-4 522l32 100l123 -46v138h102v-138l126 46l32 -100l-126 -43l80 -113l-84 -61l-79 115l-76 -115l-84 61l84 113z" />
    <glyph glyph-name="plus" unicode="+" horiz-adv-x="600" 
d="M228 325v181h144v-181h181v-144h-181v-181h-144v181h-181v144h181z" />
    <glyph glyph-name="comma" unicode="," horiz-adv-x="260" 
d="M42 6v204h176v-154q0 -58 -6 -95t-23.5 -70t-53.5 -49t-93 -18v90q37 2 50 20t15 72h-65z" />
    <glyph glyph-name="hyphen" unicode="-" horiz-adv-x="370" 
d="M23 209v162h324v-162h-324z" />
    <glyph glyph-name="period" unicode="." horiz-adv-x="260" 
d="M42 0v212h176v-212h-176z" />
    <glyph glyph-name="slash" unicode="/" horiz-adv-x="352" 
d="M-16 -14l222 742h162l-222 -742h-162z" />
    <glyph glyph-name="zero" unicode="0" horiz-adv-x="520" 
d="M13 347q0 126 11 189t42 102q56 70 194 70t194 -70q31 -39 42 -102t11 -189t-11 -189t-42 -102q-56 -70 -194 -70t-194 70q-31 39 -42 102t-11 189zM307 347q0 152 -7 201q-7 34 -40 34t-40 -34q-7 -29 -7 -201t7 -201q7 -34 40 -34t40 34q7 51 7 201z" />
    <glyph glyph-name="one" unicode="1" horiz-adv-x="520" 
d="M381 708v-708h-200v473h-135v126h26q62 0 108.5 27t56.5 82h144z" />
    <glyph glyph-name="two" unicode="2" horiz-adv-x="520" 
d="M500 150v-150h-480q9 165 98 259l120 125q45 45 54 77q6 15 6 59q0 32 -8.5 47t-33.5 15q-41 0 -41 -70v-44h-188q0 129 52 184q53 56 182 56q61 0 106 -12t69.5 -30t39 -45.5t18.5 -51.5t4 -56q0 -129 -82 -206q-7 -7 -36.5 -34t-42 -39t-34.5 -36t-40 -48h237z" />
    <glyph glyph-name="three" unicode="3" horiz-adv-x="520" 
d="M213 218v-27q0 -17 1 -27t4.5 -24t13 -21t25.5 -7q21 0 31 14.5t11.5 30t1.5 47.5q0 58 -12.5 76.5t-66.5 18.5h-28v120h28q43 0 58.5 18t15.5 81q0 13 -1 22t-4.5 20t-12.5 16.5t-23 5.5q-28 0 -35.5 -19.5t-7.5 -68.5h-182q6 119 63 166.5t179 47.5q118 0 168 -48
t50 -144q0 -53 -25 -94.5t-74 -51.5v-2q55 -11 82.5 -54.5t27.5 -104.5q0 -118 -62 -170.5t-183 -52.5q-53 0 -93.5 10t-75.5 34t-52.5 71.5t-15.5 116.5h194z" />
    <glyph glyph-name="four" unicode="4" horiz-adv-x="520" 
d="M267 490l-106 -218h108v218h-2zM6 272l221 422h224v-422h63v-150h-63v-122h-182v122h-263v150z" />
    <glyph glyph-name="five" unicode="5" horiz-adv-x="520" 
d="M28 299l12 395h426v-150h-273l-6 -113h2q14 27 48.5 44.5t73.5 17.5q110 0 148.5 -60.5t38.5 -188.5q0 -134 -52.5 -196t-183.5 -62q-34 0 -61 3t-62.5 14.5t-59 32.5t-40.5 60t-17 93v28h188v-28q0 -77 43 -77q17 0 26 6t13.5 24.5t5 35t0.5 56.5q0 69 -8 95t-37 26
q-22 0 -32.5 -16.5t-10.5 -39.5h-182z" />
    <glyph glyph-name="six" unicode="6" horiz-adv-x="520" 
d="M260 327q-12 0 -20 -2.5t-13.5 -11t-8 -14t-4 -22.5t-1.5 -25.5v-32.5v-32t1.5 -25.5t4 -22.5t8 -14t13.5 -10.5t20 -2.5t20 2.5t13.5 10.5t8 14t4 22.5t1.5 25.5v32v32.5t-1.5 25.5t-4 22.5t-8 14t-13.5 11t-20 2.5zM493 522h-188v21q0 39 -43 39q-28 0 -35.5 -20
t-7.5 -75v-66h2q39 50 116 50q44 0 77 -14.5t50 -35.5t27.5 -52t13 -56.5t2.5 -56.5q0 -141 -55 -205.5t-192 -64.5q-39 0 -71.5 6t-56.5 16t-43 27t-31.5 33.5t-21 42t-13 46t-7 52.5t-3 53.5t-0.5 56.5q0 69 1.5 103t7.5 88.5t22 82.5t42 59t70 43.5t104 12.5
q120 0 174.5 -40.5t58.5 -145.5z" />
    <glyph glyph-name="seven" unicode="7" horiz-adv-x="520" 
d="M25 526v168h470v-148q-69 -96 -114 -248.5t-64 -297.5h-206q45 335 191 524v2h-277z" />
    <glyph glyph-name="eight" unicode="8" horiz-adv-x="520" 
d="M31 519q0 189 229 189t229 -189q0 -49 -25.5 -89.5t-68.5 -54.5v-2q1 0 12 -3.5t15.5 -5.5t15.5 -7t17 -11t15.5 -15t15 -21.5t11 -27.5t8 -35.5t2.5 -44.5q0 -115 -57.5 -165.5t-189.5 -50.5t-189.5 50.5t-57.5 165.5q0 24 2.5 44.5t8 35.5t11 27.5t15 21.5t15.5 15
t17 11t15.5 7t15.5 5.5t12 3.5v2q-44 14 -69 54t-25 90zM307 210q0 25 -0.5 34.5t-2.5 26t-6.5 22.5t-14 11.5t-23.5 5.5t-23.5 -5.5t-14 -11.5t-6.5 -22.5t-2.5 -26t-0.5 -34.5q0 -24 0.5 -33.5t2.5 -25.5t6.5 -22t14 -11.5t23.5 -5.5t23.5 5.5t14 11.5t6.5 22t2.5 25.5
t0.5 33.5zM301 503q0 20 -1 30t-4 23.5t-12 19.5t-24 6t-24 -6t-12 -19.5t-4 -23.5t-1 -30q0 -16 0.5 -24t2.5 -21t6 -19t12 -11t20 -5t20 5t12 11t6 19t2.5 21t0.5 24z" />
    <glyph glyph-name="nine" unicode="9" horiz-adv-x="520" 
d="M260 582q-12 0 -20 -2.5t-13.5 -10.5t-8 -14t-4 -22.5t-1.5 -25.5v-32v-32.5t1.5 -25.5t4 -22.5t8 -14t13.5 -11t20 -2.5t20 2.5t13.5 11t8 14t4 22.5t1.5 25.5v32.5v32t-1.5 25.5t-4 22.5t-8 14t-13.5 10.5t-20 2.5zM27 174h188v-23q0 -39 43 -39q28 0 35.5 20t7.5 75
v66h-2q-39 -50 -116 -50q-44 0 -77 14.5t-50 35.5t-27.5 52t-13 56.5t-2.5 56.5q0 141 55 205.5t192 64.5q39 0 71.5 -6t56.5 -16t43 -27t31.5 -33.5t21 -42t13 -46t7 -52.5t3 -53.5t0.5 -56.5q0 -59 -0.5 -88.5t-5 -79t-13.5 -74.5t-27 -58.5t-44 -49t-65.5 -27.5
t-91.5 -12q-121 0 -175 41t-58 147z" />
    <glyph glyph-name="colon" unicode=":" horiz-adv-x="260" 
d="M42 329v212h176v-212h-176zM42 0v212h176v-212h-176z" />
    <glyph glyph-name="semicolon" unicode=";" horiz-adv-x="260" 
d="M42 329v212h176v-212h-176zM42 6v204h176v-154q0 -58 -6 -95t-23.5 -70t-53.5 -49t-93 -18v90q37 2 50 20t15 72h-65z" />
    <glyph glyph-name="less" unicode="&#x3c;" horiz-adv-x="600" 
d="M47 178v150l506 192v-138l-345 -129l345 -129v-138z" />
    <glyph glyph-name="equal" unicode="=" horiz-adv-x="600" 
d="M47 69v144h506v-144h-506zM47 293v144h506v-144h-506z" />
    <glyph glyph-name="greater" unicode="&#x3e;" horiz-adv-x="600" 
d="M47 -14v138l345 129l-345 129v138l506 -192v-150z" />
    <glyph glyph-name="question" unicode="?" 
d="M151 0v168h182v-168h-182zM204 488h-176q2 112 35 160q55 80 190 80q21 0 41 -2t54 -13.5t58 -31t42.5 -59t18.5 -93.5q0 -87 -54 -148l-65 -75q-17 -19 -19 -92h-176q0 134 40 180l66 75q26 31 26 79q0 25 -10 42.5t-29 17.5q-20 0 -31 -19t-11 -46v-55z" />
    <glyph glyph-name="at" unicode="@" horiz-adv-x="800" 
d="M521 497l8 37h92l-40 -211q-7 -35 -7 -46q0 -22 17 -22q30 0 54 40t24 117q0 102 -68.5 158t-185.5 56q-122 0 -194 -74.5t-72 -195.5q0 -127 77 -197.5t206 -70.5q120 0 192 52h110q-55 -78 -135.5 -116t-198.5 -38q-154 0 -262.5 108.5t-108.5 262.5t108.5 262.5
t262.5 108.5q153 0 262 -83.5t109 -217.5q0 -60 -24.5 -113t-63 -86t-82.5 -52t-85 -19q-24 0 -39.5 11.5t-18.5 32.5h-4q-37 -44 -106 -44q-63 0 -106.5 48.5t-43.5 124.5q0 92 54 160t143 68q79 0 126 -61zM484 369q0 37 -20 59t-55 22q-41 0 -66 -31.5t-25 -72.5
q0 -35 18.5 -58t49.5 -23q43 0 70.5 30.5t27.5 73.5z" />
    <glyph glyph-name="A" unicode="A" horiz-adv-x="574" 
d="M331 265l-43 293h-2l-46 -293h91zM375 0l-22 109h-134l-20 -109h-206l169 714h251l168 -714h-206z" />
    <glyph glyph-name="B" unicode="B" horiz-adv-x="574" 
d="M239 570v-137h30q23 0 40.5 16t17.5 52q0 69 -61 69h-27zM39 0v714h288q96 0 148 -44.5t52 -132.5q0 -75 -34.5 -112.5t-79.5 -48.5v-2q131 -16 131 -168q0 -104 -55 -155t-151 -51h-299zM239 307v-163h35q64 0 64 77q0 86 -63 86h-36z" />
    <glyph glyph-name="C" unicode="C" horiz-adv-x="537" 
d="M322 450v58q0 88 -41 88q-38 0 -46 -40t-8 -199q0 -85 1.5 -126.5t7.5 -70t16 -35.5t29 -7q24 0 34.5 27.5t10.5 93.5v55h194v-45q0 -130 -57 -196.5t-185 -66.5q-75 0 -125 19t-76.5 43.5t-39 82t-14.5 98t-2 128.5q0 86 2 126t14.5 97.5t39 83t76.5 45t125 19.5
q62 0 106.5 -13.5t69.5 -33.5t39.5 -51.5t18.5 -60.5t4 -67v-52h-194z" />
    <glyph glyph-name="D" unicode="D" horiz-adv-x="574" 
d="M39 0v714h288q129 0 179 -93q24 -41 31 -89.5t7 -174.5q0 -42 -1 -69.5t-5.5 -68.5t-12.5 -68.5t-23.5 -58.5t-38 -49t-56.5 -30.5t-77 -12.5h-291zM239 570v-426h41q58 0 58 109v208q0 60 -13 84.5t-57 24.5h-29z" />
    <glyph glyph-name="E" unicode="E" 
d="M39 0v714h430v-162h-230v-110h215v-156h-215v-124h239v-162h-439z" />
    <glyph glyph-name="F" unicode="F" horiz-adv-x="481" 
d="M39 0v714h430v-162h-230v-110h215v-156h-215v-286h-200z" />
    <glyph glyph-name="G" unicode="G" horiz-adv-x="556" 
d="M284 257v132h245v-389h-139l-5 58h-2q-23 -43 -59 -57.5t-88 -14.5q-42 0 -75 11t-55 28t-37.5 47t-23.5 57t-12 70.5t-5 74.5t-1 82q0 52 1.5 85.5t6.5 77t15.5 70.5t29 56t45 45.5t66.5 27t91 10.5q72 0 120.5 -17t74 -50.5t36 -75t10.5 -99.5h-188v29q0 42 -11.5 61.5
t-39.5 19.5q-17 0 -28 -7t-15.5 -21t-6 -27t-1.5 -33v-294q0 -28 2.5 -46t15 -34t34.5 -16q33 0 44.5 22.5t11.5 67.5v49h-57z" />
    <glyph glyph-name="H" unicode="H" horiz-adv-x="574" 
d="M335 456v258h200v-714h-200v288h-96v-288h-200v714h200v-258h96z" />
    <glyph glyph-name="I" unicode="I" horiz-adv-x="258" 
d="M29 0v714h200v-714h-200z" />
    <glyph glyph-name="J" unicode="J" 
d="M264 209v505h200v-514q0 -214 -240 -214q-46 0 -82.5 9t-59 21.5t-39 33t-24.5 36.5t-12 38.5t-4.5 32.5t-0.5 26v49h182v-53q0 -61 40 -61q25 0 32.5 20t7.5 71z" />
    <glyph glyph-name="K" unicode="K" horiz-adv-x="574" 
d="M241 442l115 272h217l-176 -314l198 -400h-225l-102 237l-29 -55v-182h-200v714h200v-272h2z" />
    <glyph glyph-name="L" unicode="L" horiz-adv-x="463" 
d="M39 0v714h200v-552h218v-162h-418z" />
    <glyph glyph-name="M" unicode="M" horiz-adv-x="778" 
d="M39 0v714h290l59 -437h2l65 437h284v-714h-188v520h-2l-88 -520h-144l-88 520h-2v-520h-188z" />
    <glyph glyph-name="N" unicode="N" horiz-adv-x="593" 
d="M363 278v436h188v-714h-214l-111 440h-2v-440h-182v714h217l102 -436h2z" />
    <glyph glyph-name="O" unicode="O" horiz-adv-x="556" 
d="M21 357q0 86 2 126t14.5 97.5t39 83t76.5 45t125 19.5t125 -19.5t76.5 -45t39 -83t14.5 -97.5t2 -126q0 -88 -2 -128.5t-14.5 -98t-39 -82t-76.5 -43.5t-125 -19t-125 19t-76.5 43.5t-39 82t-14.5 98t-2 128.5zM329 357q0 82 -1.5 126t-8 71t-15.5 34.5t-26 7.5t-26 -7.5
t-15.5 -34.5t-8 -71t-1.5 -126t1.5 -126t8 -71t15.5 -34.5t26 -7.5t26 7.5t15.5 34.5t8 71t1.5 126z" />
    <glyph glyph-name="P" unicode="P" horiz-adv-x="556" 
d="M39 0v714h265q117 0 174 -53t57 -169q0 -114 -63.5 -168.5t-171.5 -54.5h-61v-269h-200zM239 570v-157h22q33 0 50.5 15t17.5 64q0 78 -68 78h-22z" />
    <glyph glyph-name="Q" unicode="Q" horiz-adv-x="556" 
d="M449 -130l-105 120q-14 -2 -30 -3q-5 -1 -17 -1h-19q-75 0 -125 19t-76.5 43.5t-39 82t-14.5 98t-2 128.5q0 86 2 126t14.5 97.5t39 83t76.5 45t125 19.5t125 -19.5t76.5 -45t39 -83t14.5 -97.5t2 -126q0 -84 -1.5 -125.5t-13 -92t-35.5 -80.5l84 -86zM329 357
q0 82 -1.5 126t-8 71t-15.5 34.5t-26 7.5t-26 -7.5t-15.5 -34.5t-8 -71t-1.5 -126t1.5 -126t8 -71t15.5 -34.5t26 -7.5t26 7.5t15.5 34.5t8 71t1.5 126z" />
    <glyph glyph-name="R" unicode="R" horiz-adv-x="574" 
d="M39 0v714h300q197 0 197 -187q0 -153 -119 -172v-2q67 -5 95 -57q19 -32 19 -122v-59q0 -64 9 -84q8 -15 21 -21v-10h-212q-15 18 -15 103q0 17 -1.5 53t-1.5 53q0 43 -13 57.5t-42 14.5h-37v-281h-200zM239 570v-157h29q68 0 68 84q0 42 -18.5 57.5t-55.5 15.5h-23z" />
    <glyph glyph-name="S" unicode="S" horiz-adv-x="537" 
d="M313 509v29q0 58 -47 58q-22 0 -34 -15.5t-12 -38.5q0 -29 16.5 -49.5t42.5 -33t58 -24t64 -27.5t58 -38.5t42.5 -61t16.5 -90.5q0 -124 -61.5 -178t-200.5 -54q-120 0 -178.5 47.5t-58.5 161.5v19h194v-33q0 -28 12.5 -45.5t37.5 -17.5q49 0 49 63q0 21 -6.5 35.5
t-13.5 20.5t-23 15q-13 8 -47 23t-52 24q-84 41 -114 81t-30 118q0 133 76 186q64 44 163 44q73 0 121.5 -16.5t72.5 -49t33 -68t9 -85.5h-188z" />
    <glyph glyph-name="T" unicode="T" horiz-adv-x="464" 
d="M-4 546v168h472v-168h-136v-546h-200v546h-136z" />
    <glyph glyph-name="U" unicode="U" horiz-adv-x="556" 
d="M324 204v510h200v-472q0 -131 -58 -193.5t-188 -62.5q-141 0 -193.5 59t-52.5 197v472h200v-510q0 -48 9 -67t37 -19t37 19t9 67z" />
    <glyph glyph-name="V" unicode="V" horiz-adv-x="537" 
d="M272 162l65 552h211l-151 -714h-258l-150 714h216l65 -552h2z" />
    <glyph glyph-name="W" unicode="W" horiz-adv-x="778" 
d="M551 208l43 506h188l-118 -714h-214l-60 480h-2l-57 -480h-218l-117 714h194l47 -506h2l63 506h176l71 -506h2z" />
    <glyph glyph-name="X" unicode="X" horiz-adv-x="556" 
d="M279 507l53 207h221l-156 -352l170 -362h-228l-60 219h-2l-60 -219h-228l170 362l-156 352h221l53 -207h2z" />
    <glyph glyph-name="Y" unicode="Y" horiz-adv-x="538" 
d="M270 465l62 249h217l-180 -433v-281h-200v281l-180 433h222l57 -249h2z" />
    <glyph glyph-name="Z" unicode="Z" horiz-adv-x="481" 
d="M19 137l211 415h-196v162h428v-139l-217 -413h216v-162h-442v137z" />
    <glyph glyph-name="bracketleft" unicode="[" horiz-adv-x="333" 
d="M64 -184v898h280v-138h-104v-622h104v-138h-280z" />
    <glyph glyph-name="backslash" unicode="\" horiz-adv-x="352" 
d="M146 728l222 -742h-162l-222 742h162z" />
    <glyph glyph-name="bracketright" unicode="]" horiz-adv-x="333" 
d="M93 -46v622h-104v138h280v-898h-280v138h104z" />
    <glyph glyph-name="asciicircum" unicode="^" horiz-adv-x="600" 
d="M410 329l-110 239l-110 -239h-147l174 365h166l174 -365h-147z" />
    <glyph glyph-name="underscore" unicode="_" 
d="M0 -125v50h500v-50h-500z" />
    <glyph glyph-name="grave" unicode="`" horiz-adv-x="260" 
d="M87 594l-93 144h176l36 -144h-119z" />
    <glyph glyph-name="a" unicode="a" 
d="M462 399v-319q0 -42 18 -80h-182q-9 24 -9 57l-2 1q-31 -72 -127 -72q-77 0 -112 40t-35 120q0 83 33 119.5t96 50.5l90 21q31 7 42.5 18.5t11.5 37.5q0 20 -10.5 31t-26.5 11q-47 0 -47 -62h-170q0 93 51.5 137.5t166.5 44.5q122 0 167 -41.5t45 -114.5zM286 184v78
q-10 -6 -48 -21q-37 -14 -37 -69q0 -54 39 -54q46 0 46 66z" />
    <glyph glyph-name="b" unicode="b" horiz-adv-x="519" 
d="M306 271q0 81 -8 110.5t-36 29.5t-36 -29.5t-8 -110.5q0 -82 8 -111.5t36 -29.5t36 29.5t8 111.5zM27 0v714h194v-236h2q14 36 47 56.5t73 20.5q49 0 81.5 -21t48 -61.5t21.5 -85.5t6 -108q0 -37 -0.5 -57t-3.5 -56t-9 -57t-18.5 -47.5t-30 -40.5t-45 -24.5t-62.5 -10.5
q-88 0 -111 76h-2v-62h-191z" />
    <glyph glyph-name="c" unicode="c" horiz-adv-x="481" 
d="M294 327v25q0 42 -9.5 59.5t-33.5 17.5q-27 0 -35.5 -28.5t-8.5 -129.5q0 -103 7 -131t36 -28q28 0 37.5 24.5t9.5 95.5h176q0 -134 -48 -187q-52 -59 -175 -59q-62 0 -106.5 15.5t-69.5 40t-39 64t-18 76.5t-4 89t4 88.5t18 76t39 64t69.5 40t106.5 15.5
q129 0 176 -51.5t47 -176.5h-179z" />
    <glyph glyph-name="d" unicode="d" horiz-adv-x="519" 
d="M301 271q0 81 -8 110.5t-36 29.5t-36 -29.5t-8 -110.5q0 -82 8 -111.5t36 -29.5t36 29.5t8 111.5zM298 478v236h194v-714h-191v62h-2q-23 -76 -111 -76q-35 0 -62.5 10.5t-45 24.5t-30 40.5t-18.5 47.5t-9 57t-3.5 56t-0.5 57q0 63 6 108t21.5 85.5t48 61.5t81.5 21
q40 0 73 -20.5t47 -56.5h2z" />
    <glyph glyph-name="e" unicode="e" horiz-adv-x="481" 
d="M291 341v32q0 39 -9.5 53.5t-33.5 14.5q-22 0 -31.5 -14.5t-9.5 -53.5v-32h84zM207 239v-71q0 -19 2 -31.5t11.5 -24.5t28.5 -12q26 0 34 21.5t8 68.5h176q0 -109 -58 -157q-57 -47 -159 -47q-62 0 -106.5 15.5t-69.5 40t-39 64t-18 76.5t-4 89t4 88.5t18 76t39 64
t69.5 40t106.5 15.5q36 0 65.5 -5.5t51.5 -13.5t38.5 -23.5t28 -29.5t19 -38t11.5 -42t6 -48.5t2.5 -51t0.5 -55.5v-9h-266z" />
    <glyph glyph-name="f" unicode="f" horiz-adv-x="315" 
d="M56 541v64q0 69 39.5 96t123.5 27q14 0 52.5 -1.5t46.5 -1.5v-123h-26q-15 0 -24.5 -2.5t-13 -9.5t-4 -11.5t-0.5 -15.5v-22h68v-126h-68v-415h-194v415h-59v126h59z" />
    <glyph glyph-name="g" unicode="g" horiz-adv-x="519" 
d="M307 474v67h185v-519q0 -112 -62 -159t-176 -47q-58 0 -100.5 11t-64 25t-34.5 38.5t-16 40t-5 41.5h176q0 -20 9 -30q11 -12 32 -12q25 0 36 11.5t11 38.5v107h-2q-31 -69 -123 -69q-154 0 -154 263q0 45 2 77t12 72t27 65t49.5 42.5t77.5 17.5q87 0 118 -81h2zM301 271
q0 81 -8 110.5t-36 29.5t-36 -29.5t-8 -110.5q0 -62 8.5 -88.5t34.5 -26.5q28 0 36.5 26.5t8.5 88.5z" />
    <glyph glyph-name="h" unicode="h" horiz-adv-x="519" 
d="M298 0v358q0 30 -9 41.5t-29 11.5q-39 0 -39 -53v-358h-194v714h194v-235h2q42 76 137 76q57 0 94.5 -33.5t37.5 -103.5v-418h-194z" />
    <glyph glyph-name="i" unicode="i" horiz-adv-x="258" 
d="M32 584v138h194v-138h-194zM32 0v541h194v-541h-194z" />
    <glyph glyph-name="j" unicode="j" horiz-adv-x="258" 
d="M32 584v138h194v-138h-194zM226 541v-545q0 -104 -32.5 -138t-135.5 -34q-40 0 -92 4v131q24 -3 30 -3q11 0 17.5 2t12.5 11.5t6 26.5v545h194z" />
    <glyph glyph-name="k" unicode="k" horiz-adv-x="519" 
d="M226 375l92 166h206l-149 -224l163 -317h-206l-82 177l-29 -44v-133h-194v714h197v-339h2z" />
    <glyph glyph-name="l" unicode="l" horiz-adv-x="258" 
d="M32 0v714h194v-714h-194z" />
    <glyph glyph-name="m" unicode="m" horiz-adv-x="796" 
d="M572 0v358q0 30 -9 41.5t-29 11.5q-39 0 -39 -53v-358h-194v358q0 30 -9 41.5t-29 11.5q-39 0 -39 -53v-358h-194v541h188v-62h2q42 76 143 76q90 0 129 -76q40 76 142 76q57 0 94.5 -33.5t37.5 -103.5v-418h-194z" />
    <glyph glyph-name="n" unicode="n" horiz-adv-x="519" 
d="M298 0v358q0 30 -9 41.5t-29 11.5q-39 0 -39 -53v-358h-194v541h188v-62h2q42 76 143 76q57 0 94.5 -33.5t37.5 -103.5v-418h-194z" />
    <glyph glyph-name="o" unicode="o" 
d="M207 271q0 -95 8.5 -127t34.5 -32t34.5 32t8.5 127t-8.5 127t-34.5 32t-34.5 -32t-8.5 -127zM250 555q62 0 106.5 -15.5t69.5 -40t39 -64t18 -76t4 -88.5t-4 -89t-18 -76.5t-39 -64t-69.5 -40t-106.5 -15.5t-106.5 15.5t-69.5 40t-39 64t-18 76.5t-4 89t4 88.5t18 76
t39 64t69.5 40t106.5 15.5z" />
    <glyph glyph-name="p" unicode="p" horiz-adv-x="519" 
d="M306 270q0 82 -8 111.5t-36 29.5t-36 -29.5t-8 -111.5q0 -81 8 -110.5t36 -29.5t36 29.5t8 110.5zM27 -176v717h191v-62h2q23 76 111 76q35 0 62.5 -10.5t45 -24.5t30 -40.5t18.5 -47.5t9 -57t3.5 -56t0.5 -57q0 -50 -3.5 -88t-13 -75t-26.5 -60.5t-46 -38t-68 -14.5
q-40 0 -73 20.5t-47 56.5h-2v-239h-194z" />
    <glyph glyph-name="q" unicode="q" horiz-adv-x="519" 
d="M301 270q0 82 -8 111.5t-36 29.5t-36 -29.5t-8 -111.5q0 -81 8 -110.5t36 -29.5t36 29.5t8 110.5zM301 479v62h191v-717h-194v239h-2q-14 -36 -47 -56.5t-73 -20.5q-39 0 -68 14.5t-46 38t-26.5 60.5t-13 75t-3.5 88q0 37 0.5 57t3.5 56t9 57t18.5 47.5t30 40.5t45 24.5
t62.5 10.5q88 0 111 -76h2z" />
    <glyph glyph-name="r" unicode="r" horiz-adv-x="370" 
d="M27 0v541h188v-80h2q15 41 46 67.5t69 26.5q12 0 33 -3v-177q-11 1 -24 3q-5 1 -15 1h-22q-48 0 -65.5 -24t-17.5 -75v-280h-194z" />
    <glyph glyph-name="s" unicode="s" horiz-adv-x="463" 
d="M10 174h170q6 -45 10 -53q11 -21 41 -21q22 0 31 14t9 28q0 21 -12.5 31.5t-63.5 27.5q-102 35 -141.5 69t-39.5 103q0 86 52 134t160 48q45 0 80 -7t57.5 -17t38.5 -26.5t23.5 -29.5t11.5 -32.5t4.5 -29.5t0.5 -26h-164q0 29 -8 39q-10 15 -39 15q-41 0 -41 -37
q0 -19 26 -32.5t117 -44.5q27 -9 43 -17.5t36.5 -26t30.5 -46.5t10 -70q0 -94 -61.5 -137.5t-160.5 -43.5q-112 0 -165.5 40t-55.5 148z" />
    <glyph glyph-name="t" unicode="t" horiz-adv-x="315" 
d="M56 541v159h194v-159h68v-126h-68v-241q0 -28 7 -39t30 -11q21 0 31 3v-129q-32 -6 -96 -6q-40 0 -60.5 1.5t-45 7.5t-35 19.5t-18 37.5t-7.5 60v297h-59v126h59z" />
    <glyph glyph-name="u" unicode="u" horiz-adv-x="519" 
d="M304 0v62h-2q-42 -76 -143 -76q-57 0 -94.5 33.5t-37.5 103.5v418h194v-358q0 -30 9 -41.5t29 -11.5q39 0 39 53v358h194v-541h-188z" />
    <glyph glyph-name="v" unicode="v" horiz-adv-x="481" 
d="M124 0l-128 541h200l45 -373h2l48 373h194l-133 -541h-228z" />
    <glyph glyph-name="w" unicode="w" horiz-adv-x="759" 
d="M110 0l-111 541h194l38 -373h2l52 373h200l50 -373h2l41 373h182l-108 -541h-224l-45 349h-2l-48 -349h-223z" />
    <glyph glyph-name="x" unicode="x" 
d="M250 409l52 132h200l-140 -261l142 -280h-194l-55 146l-59 -146h-200l148 280l-136 261h194z" />
    <glyph glyph-name="y" unicode="y" horiz-adv-x="481" 
d="M146 0l-150 541h200l49 -328h2l44 328h194l-139 -536q-10 -37 -17 -58.5t-18.5 -45t-24.5 -35.5t-33.5 -23t-47 -15t-63.5 -4q-49 0 -92 9v126q26 -3 51 -3q24 0 35 15q10 13 10 29z" />
    <glyph glyph-name="z" unicode="z" horiz-adv-x="463" 
d="M18 148l182 243h-173v150h411v-144l-191 -247h198v-150h-427v148z" />
    <glyph glyph-name="braceleft" unicode="{" horiz-adv-x="333" 
d="M0 181v168q33 0 48.5 19t15.5 75v134q0 67 38.5 102t104.5 35h126v-138h-35q-58 0 -58 -62v-127q0 -59 -24.5 -87.5t-83.5 -33.5v-2q59 -5 83.5 -33.5t24.5 -87.5v-127q0 -62 58 -62h35v-138h-126q-66 0 -104.5 35t-38.5 102v134q0 56 -15.5 75t-48.5 19z" />
    <glyph glyph-name="bar" unicode="|" horiz-adv-x="278" 
d="M67 -14v742h144v-742h-144z" />
    <glyph glyph-name="braceright" unicode="}" horiz-adv-x="333" 
d="M0 -184v138h35q58 0 58 62v127q0 59 24.5 87.5t83.5 33.5v2q-59 5 -83.5 33.5t-24.5 87.5v127q0 62 -58 62h-35v138h126q66 0 104.5 -35t38.5 -102v-134q0 -56 15.5 -75t48.5 -19v-168q-33 0 -48.5 -19t-15.5 -75v-134q0 -67 -38.5 -102t-104.5 -35h-126z" />
    <glyph glyph-name="asciitilde" unicode="~" horiz-adv-x="600" 
d="M105 145l-36 126q44 88 125 88q40 0 113.5 -34t98.5 -34q28 0 47.5 18t41.5 52l36 -128q-27 -41 -55 -63.5t-70 -22.5t-110 34t-102 34q-54 0 -89 -70z" />
    <glyph glyph-name="uni00A0" unicode="&#xa0;" horiz-adv-x="260" 
 />
    <glyph glyph-name="exclamdown" unicode="&#xa1;" horiz-adv-x="334" 
d="M258 544v-168h-182v168h182zM261 70v-240h-188v240l19 260h150z" />
    <glyph glyph-name="cent" unicode="&#xa2;" horiz-adv-x="520" 
d="M230 -104v90q-123 10 -167 93q-33 60 -33 192q0 49 3.5 84t15.5 73t33 62.5t58.5 42t89.5 22.5v84h78v-84q105 -8 143.5 -59.5t38.5 -168.5h-179v25q0 42 -9.5 59.5t-34.5 17.5q-27 0 -35 -28.5t-8 -129.5q0 -103 7 -131t36 -28q28 0 37.5 24.5t9.5 95.5h176
q0 -135 -48 -188q-43 -49 -134 -56v-92h-78z" />
    <glyph glyph-name="sterling" unicode="&#xa3;" horiz-adv-x="520" 
d="M10 280v113h66q-42 70 -42 131q0 90 63 137t159 47q74 0 123.5 -15t75 -44.5t35.5 -64.5t10 -84h-176v22q0 66 -48 66q-17 0 -28 -6t-14.5 -17.5t-4.5 -18.5t-1 -19q0 -44 48 -134h170v-113h-136q0 -42 -18 -75q-9 -17 -20 -29.5t-20 -19.5t-34 -25l2 -2q22 6 33 6
q25 0 41 -7q46 -16 67 -16q38 0 101 38l50 -117q-71 -47 -156 -47q-38 0 -96 15q-77 21 -99 21q-11 0 -21 -1t-19.5 -3t-15.5 -3.5t-15 -5.5t-12.5 -5.5t-13 -6t-11.5 -5.5l-45 107q32 15 73 67.5t41 97.5q0 12 -3 16h-109z" />
    <glyph glyph-name="currency" unicode="&#xa4;" horiz-adv-x="520" 
d="M9 520l75 71l52 -51q56 36 124 36t124 -36l52 51l75 -71l-54 -53q38 -61 38 -120q0 -60 -36 -116l52 -51l-70 -77l-54 54q-56 -39 -127 -39t-127 39l-54 -54l-70 77l52 51q-36 56 -36 116q0 59 38 120zM157 347q0 -43 30 -73t73 -30t73 30t30 73t-30 73t-73 30t-73 -30
t-30 -73z" />
    <glyph glyph-name="yen" unicode="&#xa5;" horiz-adv-x="520" 
d="M166 0v113h-123v108h123v72h-123v108h74l-128 293h200l70 -276h2l70 276h200l-128 -293h74v-108h-123v-72h123v-108h-123v-113h-188z" />
    <glyph glyph-name="brokenbar" unicode="&#xa6;" horiz-adv-x="278" 
d="M67 430v298h144v-298h-144zM67 -14v298h144v-298h-144z" />
    <glyph glyph-name="section" unicode="&#xa7;" horiz-adv-x="520" 
d="M203 265l115 -45l10 9q21 20 21 55q0 22 -13 33t-40 21l-90 35q-41 -41 -41 -62q0 -33 38 -46zM481 548h-170v17q0 43 -45 43q-20 0 -32.5 -10.5t-12.5 -29.5q0 -25 26 -39q23 -13 93 -36.5t95 -38.5q70 -44 70 -149q0 -91 -71 -143q60 -43 60 -132q0 -52 -19.5 -89
t-54 -57t-74.5 -29t-88 -9q-66 0 -112.5 16t-69 36t-34.5 52t-13.5 49.5t-1.5 43.5v7h182q0 -57 13 -72q11 -12 30 -12q42 0 42 54q0 41 -44 57l-111 40q-63 22 -93.5 61t-30.5 103q0 44 23.5 91t57.5 62q-57 39 -57 115q0 91 60 135t164 44q59 0 101.5 -12t64 -28t34 -43.5
t15 -46.5t3.5 -50z" />
    <glyph glyph-name="dieresis" unicode="&#xa8;" horiz-adv-x="260" 
d="M149 594v144h144v-144h-144zM-33 594v144h144v-144h-144z" />
    <glyph glyph-name="copyright" unicode="&#xa9;" horiz-adv-x="800" 
d="M29 357q0 154 108.5 262.5t262.5 108.5t262.5 -108.5t108.5 -262.5t-108.5 -262.5t-262.5 -108.5t-262.5 108.5t-108.5 262.5zM651 357q0 121 -71 192t-180 71t-180 -71t-71 -192t70.5 -192t180.5 -71q109 0 180 71t71 192zM584 408h-105q-11 52 -77 52q-38 0 -59 -28.5
t-21 -77.5q0 -46 23 -77t59 -31q30 0 50.5 14t24.5 40h108q-9 -75 -55 -112.5t-118 -37.5q-92 0 -146 56.5t-54 146.5q0 92 52.5 147.5t145.5 55.5q71 0 116 -37t56 -111z" />
    <glyph glyph-name="ordfeminine" unicode="&#xaa;" horiz-adv-x="325" 
d="M304 614v-191q0 -25 12 -49h-118q-6 14 -6 35h-2q-11 -23 -34 -33q-21 -9 -48 -9q-52 0 -75.5 23.5t-23.5 72.5q0 50 21.5 71.5t65.5 30.5l59 12q21 5 28 12t7 22q0 10 -6.5 17.5t-17.5 7.5q-4 0 -8 -0.5t-6.5 -2.5t-4.5 -2.5t-4 -4t-3 -4.5t-2 -5.5t-1 -5t-1 -5.5l-1 -6
h-114q0 55 34.5 81.5t111.5 26.5q80 0 108.5 -25t28.5 -69zM190 486v47q-4 -3 -31 -13q-24 -9 -24 -41q0 -34 25 -34q30 0 30 41z" />
    <glyph glyph-name="guillemotleft" unicode="&#xab;" horiz-adv-x="444" 
d="M36 168v239l170 101v-168l-92 -50l92 -50v-168zM238 168v239l170 101v-168l-92 -50l92 -50v-168z" />
    <glyph glyph-name="logicalnot" unicode="&#xac;" horiz-adv-x="600" 
d="M409 108v185h-362v144h506v-329h-144z" />
    <glyph glyph-name="uni00AD" unicode="&#xad;" horiz-adv-x="370" 
d="M23 209v162h324v-162h-324z" />
    <glyph glyph-name="registered" unicode="&#xae;" horiz-adv-x="800" 
d="M29 357q0 154 108.5 262.5t262.5 108.5t262.5 -108.5t108.5 -262.5t-108.5 -262.5t-262.5 -108.5t-262.5 108.5t-108.5 262.5zM651 357q0 121 -71 192t-180 71t-180 -71t-71 -192t70.5 -192t180.5 -71q109 0 180 71t71 192zM455 166l-88 148h-13v-148h-96v383h150
q78 0 118.5 -26.5t40.5 -93.5q0 -96 -97 -110l92 -153h-107zM354 392h68q49 0 49 38q0 41 -56 41h-61v-79z" />
    <glyph glyph-name="macron" unicode="&#xaf;" horiz-adv-x="260" 
d="M-33 615v102h326v-102h-326z" />
    <glyph glyph-name="degree" unicode="&#xb0;" horiz-adv-x="400" 
d="M41 549q0 66 46.5 112.5t112.5 46.5t112.5 -46.5t46.5 -112.5t-46.5 -112.5t-112.5 -46.5t-112.5 46.5t-46.5 112.5zM131 549q0 -29 20 -49t49 -20t49 20t20 49t-20 49t-49 20t-49 -20t-20 -49z" />
    <glyph glyph-name="plusminus" unicode="&#xb1;" horiz-adv-x="600" 
d="M47 0v144h506v-144h-506zM228 415v91h144v-91h181v-144h-181v-91h-144v91h-181v144h181z" />
    <glyph glyph-name="twosuperior" unicode="&#xb2;" horiz-adv-x="338" 
d="M135 564h-120q0 82 33 113q31 31 119 31q49 0 82 -10t47.5 -28t19.5 -35.5t5 -40.5q0 -37 -14 -66.5t-32.5 -47.5t-47.5 -47.5t-48 -56.5h144v-96h-308q4 90 70 159l69 75q35 39 35 79q0 37 -25 37q-29 0 -29 -42v-24z" />
    <glyph glyph-name="threesuperior" unicode="&#xb3;" horiz-adv-x="338" 
d="M119 457v84h20q28 0 39.5 9.5t11.5 39.5q0 34 -25 34q-16 0 -20 -11t-4 -37h-120q2 76 40 104t105 28q82 0 116 -28.5t34 -87.5q0 -32 -16.5 -57t-48.5 -31v-2q72 -13 72 -95q0 -134 -154 -134q-74 0 -115 29.5t-39 108.5h126v-9q0 -11 0.5 -16.5t2.5 -13.5t7 -11.5
t14 -3.5q10 0 15.5 3.5t7.5 12.5t2.5 14.5t0.5 19.5q0 21 -2 29.5t-13.5 14.5t-36.5 6h-20z" />
    <glyph glyph-name="acute" unicode="&#xb4;" horiz-adv-x="260" 
d="M54 594l36 144h176l-93 -144h-119z" />
    <glyph glyph-name="mu" unicode="&#xb5;" horiz-adv-x="519" 
d="M492 541v-541h-188v62h-2q-26 -76 -67 -76q-4 0 -14 2v-164h-194v717h194v-358q0 -30 9 -41.5t29 -11.5q39 0 39 53v358h194z" />
    <glyph glyph-name="paragraph" unicode="&#xb6;" horiz-adv-x="620" 
d="M436 -130v730h-95v-730h-156v454q-76 0 -131.5 51t-55.5 144q0 91 54.5 143t155.5 52h384v-844h-156z" />
    <glyph glyph-name="periodcentered" unicode="&#xb7;" horiz-adv-x="260" 
d="M36 278q0 39 27.5 66.5t66.5 27.5t66.5 -27.5t27.5 -66.5t-27.5 -66.5t-66.5 -27.5t-66.5 27.5t-27.5 66.5z" />
    <glyph glyph-name="cedilla" unicode="&#xb8;" horiz-adv-x="260" 
d="M8 -217l23 59q30 -16 78 -16q41 0 41 31q0 14 -12.5 22.5t-28.5 8.5q-11 0 -27 -6l-29 21l50 97h65l-34 -64q14 5 35 5q36 0 59.5 -24t23.5 -58q0 -47 -39.5 -73t-90.5 -26q-64 0 -114 23z" />
    <glyph glyph-name="onesuperior" unicode="&#xb9;" horiz-adv-x="338" 
d="M112 280v278h-83v84q109 0 122 66h93v-428h-132z" />
    <glyph glyph-name="ordmasculine" unicode="&#xba;" horiz-adv-x="325" 
d="M163 630q-20 0 -24 -15t-4 -77q0 -61 4.5 -77t23.5 -16t23 15.5t4 77.5t-4 77t-23 15zM9 538q0 39 5 65.5t19.5 52.5t47 39t82.5 13t82 -13t46.5 -39t19.5 -52.5t5 -65.5q0 -40 -5 -66.5t-19.5 -52.5t-46.5 -39t-82 -13t-82.5 13t-47 39t-19.5 52.5t-5 66.5z" />
    <glyph glyph-name="guillemotright" unicode="&#xbb;" horiz-adv-x="444" 
d="M408 407v-239l-170 -96v168l92 50l-92 50v168zM206 407v-239l-170 -96v168l92 50l-92 50v168z" />
    <glyph glyph-name="onequarter" unicode="&#xbc;" horiz-adv-x="778" 
d="M112 280v278h-83v84q109 0 122 66h93v-428h-132zM120 -31l387 756h114l-387 -756h-114zM590 165v141h-2l-70 -141h72zM411 165l144 255h161v-255h33v-96h-33v-69h-132v69h-173v96z" />
    <glyph glyph-name="onehalf" unicode="&#xbd;" horiz-adv-x="778" 
d="M112 280v278h-83v84q109 0 122 66h93v-428h-132zM749 0h-308q4 90 70 159l69 75q35 39 35 79q0 37 -25 37q-29 0 -29 -42v-24h-120q0 82 33 113q31 31 119 31q49 0 82 -10t47.5 -28t19.5 -35.5t5 -40.5q0 -37 -14 -66.5t-32.5 -47.5t-47.5 -47.5t-48 -56.5h144v-96z
M106 -31l387 756h114l-387 -756h-114z" />
    <glyph glyph-name="threequarters" unicode="&#xbe;" horiz-adv-x="778" 
d="M119 457v84h20q28 0 39.5 9.5t11.5 39.5q0 34 -25 34q-16 0 -20 -11t-4 -37h-120q2 76 40 104t105 28q82 0 116 -28.5t34 -87.5q0 -32 -16.5 -57t-48.5 -31v-2q72 -13 72 -95q0 -134 -154 -134q-74 0 -115 29.5t-39 108.5h126v-9q0 -11 0.5 -16.5t2.5 -13.5t7 -11.5
t14 -3.5q10 0 15.5 3.5t7.5 12.5t2.5 14.5t0.5 19.5q0 21 -2 29.5t-13.5 14.5t-36.5 6h-20zM151 -31l387 756h114l-387 -756h-114zM604 165v141h-2l-70 -141h72zM425 165l144 255h161v-255h33v-96h-33v-69h-132v69h-173v96z" />
    <glyph glyph-name="questiondown" unicode="&#xbf;" 
d="M167 376v168h182v-168h-182zM296 1v55h176q-2 -112 -35 -160q-55 -80 -190 -80q-21 0 -41 2t-54 13.5t-58 31t-42.5 59t-18.5 93.5q0 87 54 148l65 75q17 19 19 92h176q0 -134 -40 -180l-66 -75q-26 -31 -26 -79q0 -25 10 -42.5t29 -17.5q20 0 31 19t11 46z" />
    <glyph glyph-name="Agrave" unicode="&#xc0;" horiz-adv-x="574" 
d="M331 265l-43 293h-2l-46 -293h91zM375 0l-22 109h-134l-20 -109h-206l169 714h251l168 -714h-206zM240 760l-93 144h176l36 -144h-119z" />
    <glyph glyph-name="Aacute" unicode="&#xc1;" horiz-adv-x="574" 
d="M331 265l-43 293h-2l-46 -293h91zM375 0l-22 109h-134l-20 -109h-206l169 714h251l168 -714h-206zM221 760l36 144h176l-93 -144h-119z" />
    <glyph glyph-name="Acircumflex" unicode="&#xc2;" horiz-adv-x="574" 
d="M331 265l-43 293h-2l-46 -293h91zM375 0l-22 109h-134l-20 -109h-206l169 714h251l168 -714h-206zM126 764l57 144h206l59 -144h-132l-29 81l-35 -81h-126z" />
    <glyph glyph-name="Atilde" unicode="&#xc3;" horiz-adv-x="574" 
d="M331 265l-43 293h-2l-46 -293h91zM375 0l-22 109h-134l-20 -109h-206l169 714h251l168 -714h-206zM208 760h-90q4 59 30 101.5t71 42.5q22 0 64 -18q40 -18 54 -18q10 0 16 7t7.5 12t3.5 17h90q0 -58 -30 -101t-84 -43q-30 0 -65 18t-44 18q-21 0 -23 -36z" />
    <glyph glyph-name="Adieresis" unicode="&#xc4;" horiz-adv-x="574" 
d="M331 265l-43 293h-2l-46 -293h91zM375 0l-22 109h-134l-20 -109h-206l169 714h251l168 -714h-206zM306 760v144h144v-144h-144zM124 760v144h144v-144h-144z" />
    <glyph glyph-name="Aring" unicode="&#xc5;" horiz-adv-x="574" 
d="M331 265l-43 293h-2l-46 -293h91zM375 0l-22 109h-134l-20 -109h-206l169 714h251l168 -714h-206zM228 860q0 -24 17 -41t41 -17t41 17t17 41q0 25 -17 42t-41 17t-41 -17t-17 -42zM156 861q0 55 37.5 90.5t92.5 35.5t92.5 -35.5t37.5 -90.5t-37.5 -89.5t-92.5 -34.5
t-92.5 34.5t-37.5 89.5z" />
    <glyph glyph-name="AE" unicode="&#xc6;" horiz-adv-x="796" 
d="M374 0v109h-138l-33 -109h-210l266 714h506v-162h-203v-110h188v-156h-188v-124h212v-162h-400zM374 265v293h-6l-88 -293h94z" />
    <glyph glyph-name="Ccedilla" unicode="&#xc7;" horiz-adv-x="537" 
d="M142 -217l23 59q30 -16 78 -16q41 0 41 31q0 14 -12.5 22.5t-28.5 8.5q-11 0 -27 -6l-29 21l43 85q-62 5 -101 24q-26 13 -45 31t-31 45.5t-18.5 50t-9.5 65t-3.5 70t-0.5 83.5q0 86 2 126t14.5 97.5t39 83t76.5 45t125 19.5q62 0 106.5 -13.5t69.5 -33.5t39.5 -51.5
t18.5 -60.5t4 -67v-52h-194v58q0 88 -41 88q-38 0 -46 -40t-8 -199q0 -85 1.5 -126.5t7.5 -70t16 -35.5t29 -7q24 0 34.5 27.5t10.5 93.5v55h194v-45q0 -196 -130 -246q-42 -16 -96 -17l-26 -50q14 5 35 5q36 0 59.5 -24t23.5 -58q0 -47 -39.5 -73t-90.5 -26q-64 0 -114 23z
" />
    <glyph glyph-name="Egrave" unicode="&#xc8;" 
d="M39 0v714h430v-162h-230v-110h215v-156h-215v-124h239v-162h-439zM207 760l-93 144h176l36 -144h-119z" />
    <glyph glyph-name="Eacute" unicode="&#xc9;" 
d="M39 0v714h430v-162h-230v-110h215v-156h-215v-124h239v-162h-439zM194 760l36 144h176l-93 -144h-119z" />
    <glyph glyph-name="Ecircumflex" unicode="&#xca;" 
d="M39 0v714h430v-162h-230v-110h215v-156h-215v-124h239v-162h-439zM94 760l57 144h206l59 -144h-132l-29 81l-35 -81h-126z" />
    <glyph glyph-name="Edieresis" unicode="&#xcb;" 
d="M39 0v714h430v-162h-230v-110h215v-156h-215v-124h239v-162h-439zM275 760v144h144v-144h-144zM93 760v144h144v-144h-144z" />
    <glyph glyph-name="Igrave" unicode="&#xcc;" horiz-adv-x="258" 
d="M29 0v714h200v-714h-200zM110 760l-93 144h176l36 -144h-119z" />
    <glyph glyph-name="Iacute" unicode="&#xcd;" horiz-adv-x="258" 
d="M29 0v714h200v-714h-200zM31 760l36 144h176l-93 -144h-119z" />
    <glyph glyph-name="Icircumflex" unicode="&#xce;" horiz-adv-x="258" 
d="M29 0v714h200v-714h-200zM-33 760l57 144h206l59 -144h-132l-29 81l-35 -81h-126z" />
    <glyph glyph-name="Idieresis" unicode="&#xcf;" horiz-adv-x="258" 
d="M29 0v714h200v-714h-200zM149 760v144h144v-144h-144zM-33 760v144h144v-144h-144z" />
    <glyph glyph-name="Eth" unicode="&#xd0;" horiz-adv-x="574" 
d="M298 433v-126h-59v-163h41q58 0 58 109v208q0 60 -13 84.5t-57 24.5h-29v-137h59zM39 433v281h288q129 0 179 -93q24 -41 31 -89.5t7 -174.5q0 -42 -1 -69.5t-5.5 -68.5t-12.5 -68.5t-23.5 -58.5t-38 -49t-56.5 -30.5t-77 -12.5h-291v307h-53v126h53z" />
    <glyph glyph-name="Ntilde" unicode="&#xd1;" horiz-adv-x="593" 
d="M363 278v436h188v-714h-214l-111 440h-2v-440h-182v714h217l102 -436h2zM216 760h-90q4 59 30 101.5t71 42.5q22 0 64 -18q40 -18 54 -18q10 0 16 7t7.5 12t3.5 17h90q0 -58 -30 -101t-84 -43q-30 0 -65 18t-44 18q-21 0 -23 -36z" />
    <glyph glyph-name="Ograve" unicode="&#xd2;" horiz-adv-x="556" 
d="M21 357q0 86 2 126t14.5 97.5t39 83t76.5 45t125 19.5t125 -19.5t76.5 -45t39 -83t14.5 -97.5t2 -126q0 -88 -2 -128.5t-14.5 -98t-39 -82t-76.5 -43.5t-125 -19t-125 19t-76.5 43.5t-39 82t-14.5 98t-2 128.5zM329 357q0 82 -1.5 126t-8 71t-15.5 34.5t-26 7.5t-26 -7.5
t-15.5 -34.5t-8 -71t-1.5 -126t1.5 -126t8 -71t15.5 -34.5t26 -7.5t26 7.5t15.5 34.5t8 71t1.5 126zM221 760l-93 144h176l36 -144h-119z" />
    <glyph glyph-name="Oacute" unicode="&#xd3;" horiz-adv-x="556" 
d="M21 357q0 86 2 126t14.5 97.5t39 83t76.5 45t125 19.5t125 -19.5t76.5 -45t39 -83t14.5 -97.5t2 -126q0 -88 -2 -128.5t-14.5 -98t-39 -82t-76.5 -43.5t-125 -19t-125 19t-76.5 43.5t-39 82t-14.5 98t-2 128.5zM329 357q0 82 -1.5 126t-8 71t-15.5 34.5t-26 7.5t-26 -7.5
t-15.5 -34.5t-8 -71t-1.5 -126t1.5 -126t8 -71t15.5 -34.5t26 -7.5t26 7.5t15.5 34.5t8 71t1.5 126zM216 760l36 144h176l-93 -144h-119z" />
    <glyph glyph-name="Ocircumflex" unicode="&#xd4;" horiz-adv-x="556" 
d="M21 357q0 86 2 126t14.5 97.5t39 83t76.5 45t125 19.5t125 -19.5t76.5 -45t39 -83t14.5 -97.5t2 -126q0 -88 -2 -128.5t-14.5 -98t-39 -82t-76.5 -43.5t-125 -19t-125 19t-76.5 43.5t-39 82t-14.5 98t-2 128.5zM329 357q0 82 -1.5 126t-8 71t-15.5 34.5t-26 7.5t-26 -7.5
t-15.5 -34.5t-8 -71t-1.5 -126t1.5 -126t8 -71t15.5 -34.5t26 -7.5t26 7.5t15.5 34.5t8 71t1.5 126zM118 760l57 144h206l59 -144h-132l-29 81l-35 -81h-126z" />
    <glyph glyph-name="Otilde" unicode="&#xd5;" horiz-adv-x="556" 
d="M21 357q0 86 2 126t14.5 97.5t39 83t76.5 45t125 19.5t125 -19.5t76.5 -45t39 -83t14.5 -97.5t2 -126q0 -88 -2 -128.5t-14.5 -98t-39 -82t-76.5 -43.5t-125 -19t-125 19t-76.5 43.5t-39 82t-14.5 98t-2 128.5zM329 357q0 82 -1.5 126t-8 71t-15.5 34.5t-26 7.5t-26 -7.5
t-15.5 -34.5t-8 -71t-1.5 -126t1.5 -126t8 -71t15.5 -34.5t26 -7.5t26 7.5t15.5 34.5t8 71t1.5 126zM199 760h-90q4 59 30 101.5t71 42.5q22 0 64 -18q40 -18 54 -18q10 0 16 7t7.5 12t3.5 17h90q0 -58 -30 -101t-84 -43q-30 0 -65 18t-44 18q-21 0 -23 -36z" />
    <glyph glyph-name="Odieresis" unicode="&#xd6;" horiz-adv-x="556" 
d="M21 357q0 86 2 126t14.5 97.5t39 83t76.5 45t125 19.5t125 -19.5t76.5 -45t39 -83t14.5 -97.5t2 -126q0 -88 -2 -128.5t-14.5 -98t-39 -82t-76.5 -43.5t-125 -19t-125 19t-76.5 43.5t-39 82t-14.5 98t-2 128.5zM329 357q0 82 -1.5 126t-8 71t-15.5 34.5t-26 7.5t-26 -7.5
t-15.5 -34.5t-8 -71t-1.5 -126t1.5 -126t8 -71t15.5 -34.5t26 -7.5t26 7.5t15.5 34.5t8 71t1.5 126zM298 760v144h144v-144h-144zM116 760v144h144v-144h-144z" />
    <glyph glyph-name="multiply" unicode="&#xd7;" horiz-adv-x="600" 
d="M199 253l-147 146l101 102l147 -145l146 145l102 -102l-146 -146l146 -146l-102 -102l-146 145l-147 -145l-101 102z" />
    <glyph glyph-name="Oslash" unicode="&#xd8;" horiz-adv-x="556" 
d="M389 715l27 60l72 -33l-28 -63q27 -22 43 -52.5t22.5 -79t8 -83.5t1.5 -107q0 -88 -2 -128.5t-14.5 -98t-39 -82t-76.5 -43.5t-125 -19q-67 0 -117 14l-29 -66l-72 33l31 70q-25 22 -40 52.5t-21 78.5t-7.5 82.5t-1.5 106.5q0 86 2 126t14.5 97.5t39 83t76.5 45t125 19.5
q69 0 111 -13zM327 380l-92 -212q5 -30 14.5 -40t28.5 -10q17 0 26 7.5t15.5 34.5t8 71t1.5 126v23h-2zM229 347l90 209q-8 40 -41 40q-17 0 -26 -7.5t-15.5 -34.5t-8 -71t-1.5 -126v-10h2z" />
    <glyph glyph-name="Ugrave" unicode="&#xd9;" horiz-adv-x="556" 
d="M324 204v510h200v-472q0 -131 -58 -193.5t-188 -62.5q-141 0 -193.5 59t-52.5 197v472h200v-510q0 -48 9 -67t37 -19t37 19t9 67zM236 760l-93 144h176l36 -144h-119z" />
    <glyph glyph-name="Uacute" unicode="&#xda;" horiz-adv-x="556" 
d="M324 204v510h200v-472q0 -131 -58 -193.5t-188 -62.5q-141 0 -193.5 59t-52.5 197v472h200v-510q0 -48 9 -67t37 -19t37 19t9 67zM215 760l36 144h176l-93 -144h-119z" />
    <glyph glyph-name="Ucircumflex" unicode="&#xdb;" horiz-adv-x="556" 
d="M324 204v510h200v-472q0 -131 -58 -193.5t-188 -62.5q-141 0 -193.5 59t-52.5 197v472h200v-510q0 -48 9 -67t37 -19t37 19t9 67zM117 760l57 144h206l59 -144h-132l-29 81l-35 -81h-126z" />
    <glyph glyph-name="Udieresis" unicode="&#xdc;" horiz-adv-x="556" 
d="M324 204v510h200v-472q0 -131 -58 -193.5t-188 -62.5q-141 0 -193.5 59t-52.5 197v472h200v-510q0 -48 9 -67t37 -19t37 19t9 67zM299 760v144h144v-144h-144zM117 760v144h144v-144h-144z" />
    <glyph glyph-name="Yacute" unicode="&#xdd;" horiz-adv-x="538" 
d="M270 465l62 249h217l-180 -433v-281h-200v281l-180 433h222l57 -249h2zM217 760l36 144h176l-93 -144h-119z" />
    <glyph glyph-name="Thorn" unicode="&#xde;" horiz-adv-x="556" 
d="M39 0v714h200v-120h65q117 0 174 -53t57 -169q0 -114 -63.5 -168.5t-171.5 -54.5h-61v-149h-200zM239 450v-157h22q33 0 50.5 15t17.5 64q0 78 -68 78h-22z" />
    <glyph glyph-name="germandbls" unicode="&#xdf;" horiz-adv-x="537" 
d="M32 0v520q0 115 57 161.5t188 46.5q61 0 104 -12t65.5 -29.5t35 -46t15.5 -51.5t3 -56q0 -53 -19 -84.5t-67 -45.5v-2q59 -15 80 -53.5t21 -105.5q0 -54 -3 -88t-14.5 -68t-32 -52.5t-56.5 -30t-89 -11.5q-50 0 -66 6v123q15 -3 25 -3q42 0 42 70v78q0 64 -45 64
q-1 0 -22 -3v132q15 -3 28 -3q30 0 30 64q0 44 -10 63t-33 19q-15 0 -24 -4t-17 -24.5t-8 -59.5v-514h-188z" />
    <glyph glyph-name="agrave" unicode="&#xe0;" 
d="M462 399v-319q0 -42 18 -80h-182q-9 24 -9 57l-2 1q-31 -72 -127 -72q-77 0 -112 40t-35 120q0 83 33 119.5t96 50.5l90 21q31 7 42.5 18.5t11.5 37.5q0 20 -10.5 31t-26.5 11q-47 0 -47 -62h-170q0 93 51.5 137.5t166.5 44.5q122 0 167 -41.5t45 -114.5zM286 184v78
q-10 -6 -48 -21q-37 -14 -37 -69q0 -54 39 -54q46 0 46 66zM239 594l-93 144h176l36 -144h-119z" />
    <glyph glyph-name="aacute" unicode="&#xe1;" 
d="M462 399v-319q0 -42 18 -80h-182q-9 24 -9 57l-2 1q-31 -72 -127 -72q-77 0 -112 40t-35 120q0 83 33 119.5t96 50.5l90 21q31 7 42.5 18.5t11.5 37.5q0 20 -10.5 31t-26.5 11q-47 0 -47 -62h-170q0 93 51.5 137.5t166.5 44.5q122 0 167 -41.5t45 -114.5zM286 184v78
q-10 -6 -48 -21q-37 -14 -37 -69q0 -54 39 -54q46 0 46 66zM189 594l36 144h176l-93 -144h-119z" />
    <glyph glyph-name="acircumflex" unicode="&#xe2;" 
d="M462 399v-319q0 -42 18 -80h-182q-9 24 -9 57l-2 1q-31 -72 -127 -72q-77 0 -112 40t-35 120q0 83 33 119.5t96 50.5l90 21q31 7 42.5 18.5t11.5 37.5q0 20 -10.5 31t-26.5 11q-47 0 -47 -62h-170q0 93 51.5 137.5t166.5 44.5q122 0 167 -41.5t45 -114.5zM286 184v78
q-10 -6 -48 -21q-37 -14 -37 -69q0 -54 39 -54q46 0 46 66zM91 594l57 144h206l59 -144h-132l-29 81l-35 -81h-126z" />
    <glyph glyph-name="atilde" unicode="&#xe3;" 
d="M462 399v-319q0 -42 18 -80h-182q-9 24 -9 57l-2 1q-31 -72 -127 -72q-77 0 -112 40t-35 120q0 83 33 119.5t96 50.5l90 21q31 7 42.5 18.5t11.5 37.5q0 20 -10.5 31t-26.5 11q-47 0 -47 -62h-170q0 93 51.5 137.5t166.5 44.5q122 0 167 -41.5t45 -114.5zM286 184v78
q-10 -6 -48 -21q-37 -14 -37 -69q0 -54 39 -54q46 0 46 66zM173 594h-90q4 59 30 101.5t71 42.5q22 0 64 -18q40 -18 54 -18q10 0 16 7t7.5 12t3.5 17h90q0 -58 -30 -101t-84 -43q-30 0 -65 18t-44 18q-21 0 -23 -36z" />
    <glyph glyph-name="adieresis" unicode="&#xe4;" 
d="M462 399v-319q0 -42 18 -80h-182q-9 24 -9 57l-2 1q-31 -72 -127 -72q-77 0 -112 40t-35 120q0 83 33 119.5t96 50.5l90 21q31 7 42.5 18.5t11.5 37.5q0 20 -10.5 31t-26.5 11q-47 0 -47 -62h-170q0 93 51.5 137.5t166.5 44.5q122 0 167 -41.5t45 -114.5zM286 184v78
q-10 -6 -48 -21q-37 -14 -37 -69q0 -54 39 -54q46 0 46 66zM270 594v144h144v-144h-144zM88 594v144h144v-144h-144z" />
    <glyph glyph-name="aring" unicode="&#xe5;" 
d="M462 399v-319q0 -42 18 -80h-182q-9 24 -9 57l-2 1q-31 -72 -127 -72q-77 0 -112 40t-35 120q0 83 33 119.5t96 50.5l90 21q31 7 42.5 18.5t11.5 37.5q0 20 -10.5 31t-26.5 11q-47 0 -47 -62h-170q0 93 51.5 137.5t166.5 44.5q122 0 167 -41.5t45 -114.5zM286 184v78
q-10 -6 -48 -21q-37 -14 -37 -69q0 -54 39 -54q46 0 46 66zM192 706q0 -24 17 -41t41 -17t41 17t17 41q0 25 -17 42t-41 17t-41 -17t-17 -42zM120 707q0 55 37.5 90.5t92.5 35.5t92.5 -35.5t37.5 -90.5t-37.5 -89.5t-92.5 -34.5t-92.5 34.5t-37.5 89.5z" />
    <glyph glyph-name="ae" unicode="&#xe6;" horiz-adv-x="741" 
d="M462 239v-71q0 -19 2 -31.5t11.5 -24.5t28.5 -12q26 0 34 21.5t8 68.5h176q0 -109 -58 -157q-57 -47 -152 -47q-28 0 -55 4t-56 13.5t-49.5 28.5t-26.5 46h-2q-11 -44 -51.5 -68t-87.5 -24q-92 0 -131.5 39.5t-39.5 121.5t33 118.5t96 50.5l90 21q31 7 42.5 18.5
t11.5 37.5q0 20 -10.5 31t-26.5 11q-47 0 -47 -62h-170q0 93 51.5 137.5t166.5 44.5q103 0 133 -57q31 57 140 57q37 0 67 -5.5t51 -19t36 -27.5t24.5 -39t15 -44t8 -53.5t3 -56.5t0.5 -62v-9h-266zM546 341v32q0 39 -9 53.5t-33 14.5q-23 0 -32.5 -14.5t-9.5 -53.5v-32h84z
M286 184v78q-10 -6 -48 -21q-37 -14 -37 -69q0 -54 39 -54q46 0 46 66z" />
    <glyph glyph-name="ccedilla" unicode="&#xe7;" horiz-adv-x="481" 
d="M119 -217l23 59q30 -16 78 -16q41 0 41 31q0 14 -12.5 22.5t-28.5 8.5q-10 0 -27 -6l-29 21l43 85q-51 4 -84 21q-66 32 -88 96t-22 166q0 52 4 88.5t18 76t39 64t69.5 40t106.5 15.5q129 0 176 -51.5t47 -176.5h-179v25q0 42 -9.5 59.5t-33.5 17.5q-27 0 -35.5 -28.5
t-8.5 -129.5q0 -103 7 -131t36 -28q28 0 37.5 24.5t9.5 95.5h176q0 -134 -48 -187q-25 -30 -69 -45q-40 -12 -85 -13l-26 -51q14 5 35 5q36 0 59.5 -24t23.5 -58q0 -47 -39.5 -73t-90.5 -26q-64 0 -114 23z" />
    <glyph glyph-name="egrave" unicode="&#xe8;" horiz-adv-x="481" 
d="M291 341v32q0 39 -9.5 53.5t-33.5 14.5q-22 0 -31.5 -14.5t-9.5 -53.5v-32h84zM207 239v-71q0 -19 2 -31.5t11.5 -24.5t28.5 -12q26 0 34 21.5t8 68.5h176q0 -109 -58 -157q-57 -47 -159 -47q-62 0 -106.5 15.5t-69.5 40t-39 64t-18 76.5t-4 89t4 88.5t18 76t39 64
t69.5 40t106.5 15.5q36 0 65.5 -5.5t51.5 -13.5t38.5 -23.5t28 -29.5t19 -38t11.5 -42t6 -48.5t2.5 -51t0.5 -55.5v-9h-266zM196 594l-93 144h176l36 -144h-119z" />
    <glyph glyph-name="eacute" unicode="&#xe9;" horiz-adv-x="481" 
d="M291 341v32q0 39 -9.5 53.5t-33.5 14.5q-22 0 -31.5 -14.5t-9.5 -53.5v-32h84zM207 239v-71q0 -19 2 -31.5t11.5 -24.5t28.5 -12q26 0 34 21.5t8 68.5h176q0 -109 -58 -157q-57 -47 -159 -47q-62 0 -106.5 15.5t-69.5 40t-39 64t-18 76.5t-4 89t4 88.5t18 76t39 64
t69.5 40t106.5 15.5q36 0 65.5 -5.5t51.5 -13.5t38.5 -23.5t28 -29.5t19 -38t11.5 -42t6 -48.5t2.5 -51t0.5 -55.5v-9h-266zM189 594l36 144h176l-93 -144h-119z" />
    <glyph glyph-name="ecircumflex" unicode="&#xea;" horiz-adv-x="481" 
d="M291 341v32q0 39 -9.5 53.5t-33.5 14.5q-22 0 -31.5 -14.5t-9.5 -53.5v-32h84zM207 239v-71q0 -19 2 -31.5t11.5 -24.5t28.5 -12q26 0 34 21.5t8 68.5h176q0 -109 -58 -157q-57 -47 -159 -47q-62 0 -106.5 15.5t-69.5 40t-39 64t-18 76.5t-4 89t4 88.5t18 76t39 64
t69.5 40t106.5 15.5q36 0 65.5 -5.5t51.5 -13.5t38.5 -23.5t28 -29.5t19 -38t11.5 -42t6 -48.5t2.5 -51t0.5 -55.5v-9h-266zM89 594l57 144h206l59 -144h-132l-29 81l-35 -81h-126z" />
    <glyph glyph-name="edieresis" unicode="&#xeb;" horiz-adv-x="481" 
d="M291 341v32q0 39 -9.5 53.5t-33.5 14.5q-22 0 -31.5 -14.5t-9.5 -53.5v-32h84zM207 239v-71q0 -19 2 -31.5t11.5 -24.5t28.5 -12q26 0 34 21.5t8 68.5h176q0 -109 -58 -157q-57 -47 -159 -47q-62 0 -106.5 15.5t-69.5 40t-39 64t-18 76.5t-4 89t4 88.5t18 76t39 64
t69.5 40t106.5 15.5q36 0 65.5 -5.5t51.5 -13.5t38.5 -23.5t28 -29.5t19 -38t11.5 -42t6 -48.5t2.5 -51t0.5 -55.5v-9h-266zM269 594v144h144v-144h-144zM87 594v144h144v-144h-144z" />
    <glyph glyph-name="igrave" unicode="&#xec;" horiz-adv-x="258" 
d="M32 0v541h194v-541h-194zM106 594l-93 144h176l36 -144h-119z" />
    <glyph glyph-name="iacute" unicode="&#xed;" horiz-adv-x="258" 
d="M32 0v541h194v-541h-194zM34 594l36 144h176l-93 -144h-119z" />
    <glyph glyph-name="icircumflex" unicode="&#xee;" horiz-adv-x="258" 
d="M32 0v541h194v-541h-194zM-30 594l57 144h206l59 -144h-132l-29 81l-35 -81h-126z" />
    <glyph glyph-name="idieresis" unicode="&#xef;" horiz-adv-x="258" 
d="M32 0v541h194v-541h-194zM148 594v144h144v-144h-144zM-34 594v144h144v-144h-144z" />
    <glyph glyph-name="eth" unicode="&#xf0;" 
d="M124 570l-53 67l72 34q-21 21 -73 64l147 77q35 -30 76 -71l86 40l53 -67l-79 -37q72 -82 103 -167.5t31 -207.5q0 -63 -4 -106t-18 -86t-39.5 -68t-69.5 -40.5t-106 -15.5t-106.5 15t-69.5 37.5t-39 59.5t-18 71.5t-4 81.5q0 144 49.5 209.5t148.5 65.5q39 0 63 -18l2 2
q-22 56 -70 98zM207 256q0 -86 8.5 -115t34.5 -29t34.5 29t8.5 115t-8.5 115t-34.5 29t-34.5 -29t-8.5 -115z" />
    <glyph glyph-name="ntilde" unicode="&#xf1;" horiz-adv-x="519" 
d="M298 0v358q0 30 -9 41.5t-29 11.5q-39 0 -39 -53v-358h-194v541h188v-62h2q42 76 143 76q57 0 94.5 -33.5t37.5 -103.5v-418h-194zM172 594h-90q4 59 30 101.5t71 42.5q22 0 64 -18q40 -18 54 -18q10 0 16 7t7.5 12t3.5 17h90q0 -58 -30 -101t-84 -43q-30 0 -65 18
t-44 18q-21 0 -23 -36z" />
    <glyph glyph-name="ograve" unicode="&#xf2;" 
d="M207 271q0 -95 8.5 -127t34.5 -32t34.5 32t8.5 127t-8.5 127t-34.5 32t-34.5 -32t-8.5 -127zM250 555q62 0 106.5 -15.5t69.5 -40t39 -64t18 -76t4 -88.5t-4 -89t-18 -76.5t-39 -64t-69.5 -40t-106.5 -15.5t-106.5 15.5t-69.5 40t-39 64t-18 76.5t-4 89t4 88.5t18 76
t39 64t69.5 40t106.5 15.5zM190 594l-93 144h176l36 -144h-119z" />
    <glyph glyph-name="oacute" unicode="&#xf3;" 
d="M207 271q0 -95 8.5 -127t34.5 -32t34.5 32t8.5 127t-8.5 127t-34.5 32t-34.5 -32t-8.5 -127zM250 555q62 0 106.5 -15.5t69.5 -40t39 -64t18 -76t4 -88.5t-4 -89t-18 -76.5t-39 -64t-69.5 -40t-106.5 -15.5t-106.5 15.5t-69.5 40t-39 64t-18 76.5t-4 89t4 88.5t18 76
t39 64t69.5 40t106.5 15.5zM189 594l36 144h176l-93 -144h-119z" />
    <glyph glyph-name="ocircumflex" unicode="&#xf4;" 
d="M207 271q0 -95 8.5 -127t34.5 -32t34.5 32t8.5 127t-8.5 127t-34.5 32t-34.5 -32t-8.5 -127zM250 555q62 0 106.5 -15.5t69.5 -40t39 -64t18 -76t4 -88.5t-4 -89t-18 -76.5t-39 -64t-69.5 -40t-106.5 -15.5t-106.5 15.5t-69.5 40t-39 64t-18 76.5t-4 89t4 88.5t18 76
t39 64t69.5 40t106.5 15.5zM89 594l57 144h206l59 -144h-132l-29 81l-35 -81h-126z" />
    <glyph glyph-name="otilde" unicode="&#xf5;" 
d="M207 271q0 -95 8.5 -127t34.5 -32t34.5 32t8.5 127t-8.5 127t-34.5 32t-34.5 -32t-8.5 -127zM250 555q62 0 106.5 -15.5t69.5 -40t39 -64t18 -76t4 -88.5t-4 -89t-18 -76.5t-39 -64t-69.5 -40t-106.5 -15.5t-106.5 15.5t-69.5 40t-39 64t-18 76.5t-4 89t4 88.5t18 76
t39 64t69.5 40t106.5 15.5zM172 594h-90q4 59 30 101.5t71 42.5q22 0 64 -18q40 -18 54 -18q10 0 16 7t7.5 12t3.5 17h90q0 -58 -30 -101t-84 -43q-30 0 -65 18t-44 18q-21 0 -23 -36z" />
    <glyph glyph-name="odieresis" unicode="&#xf6;" 
d="M207 271q0 -95 8.5 -127t34.5 -32t34.5 32t8.5 127t-8.5 127t-34.5 32t-34.5 -32t-8.5 -127zM250 555q62 0 106.5 -15.5t69.5 -40t39 -64t18 -76t4 -88.5t-4 -89t-18 -76.5t-39 -64t-69.5 -40t-106.5 -15.5t-106.5 15.5t-69.5 40t-39 64t-18 76.5t-4 89t4 88.5t18 76
t39 64t69.5 40t106.5 15.5zM269 594v144h144v-144h-144zM87 594v144h144v-144h-144z" />
    <glyph glyph-name="divide" unicode="&#xf7;" horiz-adv-x="600" 
d="M194 37q0 45 30.5 75.5t75.5 30.5t75.5 -30.5t30.5 -75.5t-30.5 -75.5t-75.5 -30.5t-75.5 30.5t-30.5 75.5zM194 469q0 45 30.5 75.5t75.5 30.5t75.5 -30.5t30.5 -75.5t-30.5 -75.5t-75.5 -30.5t-75.5 30.5t-30.5 75.5zM47 181v144h506v-144h-506z" />
    <glyph glyph-name="oslash" unicode="&#xf8;" 
d="M304 296l-98 -159q11 -31 44 -31q35 0 45 32t10 133v14q0 8 -1 11zM197 259l93 155q-10 21 -40 21q-35 0 -45 -31.5t-10 -132.5v-12h2zM20 -26l47 76q-32 36 -43 90t-11 131q0 52 4 88.5t18 76t39 64t69.5 40t106.5 15.5q68 0 115 -18l42 68l64 -39l-43 -69
q35 -38 47 -93t12 -133q0 -52 -4 -89t-18 -76.5t-39 -64t-69.5 -40t-106.5 -15.5q-79 0 -124 22l-44 -72z" />
    <glyph glyph-name="ugrave" unicode="&#xf9;" horiz-adv-x="519" 
d="M304 0v62h-2q-42 -76 -143 -76q-57 0 -94.5 33.5t-37.5 103.5v418h194v-358q0 -30 9 -41.5t29 -11.5q39 0 39 53v358h194v-541h-188zM211 594l-93 144h176l36 -144h-119z" />
    <glyph glyph-name="uacute" unicode="&#xfa;" horiz-adv-x="519" 
d="M304 0v62h-2q-42 -76 -143 -76q-57 0 -94.5 33.5t-37.5 103.5v418h194v-358q0 -30 9 -41.5t29 -11.5q39 0 39 53v358h194v-541h-188zM197 594l36 144h176l-93 -144h-119z" />
    <glyph glyph-name="ucircumflex" unicode="&#xfb;" horiz-adv-x="519" 
d="M304 0v62h-2q-42 -76 -143 -76q-57 0 -94.5 33.5t-37.5 103.5v418h194v-358q0 -30 9 -41.5t29 -11.5q39 0 39 53v358h194v-541h-188zM99 594l57 144h206l59 -144h-132l-29 81l-35 -81h-126z" />
    <glyph glyph-name="udieresis" unicode="&#xfc;" horiz-adv-x="519" 
d="M304 0v62h-2q-42 -76 -143 -76q-57 0 -94.5 33.5t-37.5 103.5v418h194v-358q0 -30 9 -41.5t29 -11.5q39 0 39 53v358h194v-541h-188zM279 594v144h144v-144h-144zM97 594v144h144v-144h-144z" />
    <glyph glyph-name="yacute" unicode="&#xfd;" horiz-adv-x="481" 
d="M146 0l-150 541h200l49 -328h2l44 328h194l-139 -536q-10 -37 -17 -58.5t-18.5 -45t-24.5 -35.5t-33.5 -23t-47 -15t-63.5 -4q-49 0 -92 9v126q26 -3 51 -3q24 0 35 15q10 13 10 29zM186 594l36 144h176l-93 -144h-119z" />
    <glyph glyph-name="thorn" unicode="&#xfe;" horiz-adv-x="519" 
d="M306 270q0 82 -8 111.5t-36 29.5t-36 -29.5t-8 -111.5q0 -81 8 -110.5t36 -29.5t36 29.5t8 110.5zM27 -176v890h194v-235h2q23 76 108 76q35 0 62.5 -10.5t45 -24.5t30 -40.5t18.5 -47.5t9 -57t3.5 -56t0.5 -57q0 -50 -3.5 -88t-13 -75t-26.5 -60.5t-46 -38t-68 -14.5
q-40 0 -73 20.5t-47 56.5h-2v-239h-194z" />
    <glyph glyph-name="ydieresis" unicode="&#xff;" horiz-adv-x="481" 
d="M146 0l-150 541h200l49 -328h2l44 328h194l-139 -536q-10 -37 -17 -58.5t-18.5 -45t-24.5 -35.5t-33.5 -23t-47 -15t-63.5 -4q-49 0 -92 9v126q26 -3 51 -3q24 0 35 15q10 13 10 29zM265 594v144h144v-144h-144zM83 594v144h144v-144h-144z" />
    <glyph glyph-name="Amacron" unicode="&#x100;" horiz-adv-x="574" 
d="M331 265l-43 293h-2l-46 -293h91zM375 0l-22 109h-134l-20 -109h-206l169 714h251l168 -714h-206zM124 781v102h326v-102h-326z" />
    <glyph glyph-name="amacron" unicode="&#x101;" 
d="M462 399v-319q0 -42 18 -80h-182q-9 24 -9 57l-2 1q-31 -72 -127 -72q-77 0 -112 40t-35 120q0 83 33 119.5t96 50.5l90 21q31 7 42.5 18.5t11.5 37.5q0 20 -10.5 31t-26.5 11q-47 0 -47 -62h-170q0 93 51.5 137.5t166.5 44.5q122 0 167 -41.5t45 -114.5zM286 184v78
q-10 -6 -48 -21q-37 -14 -37 -69q0 -54 39 -54q46 0 46 66zM91 615v102h326v-102h-326z" />
    <glyph glyph-name="Abreve" unicode="&#x102;" horiz-adv-x="574" 
d="M331 265l-43 293h-2l-46 -293h91zM375 0l-22 109h-134l-20 -109h-206l169 714h251l168 -714h-206zM133 908h84q0 -27 20 -44.5t48 -17.5q33 0 52.5 16.5t19.5 45.5h84q0 -72 -45 -112t-117 -40q-65 0 -105.5 40.5t-40.5 111.5z" />
    <glyph glyph-name="abreve" unicode="&#x103;" 
d="M462 399v-319q0 -42 18 -80h-182q-9 24 -9 57l-2 1q-31 -72 -127 -72q-77 0 -112 40t-35 120q0 83 33 119.5t96 50.5l90 21q31 7 42.5 18.5t11.5 37.5q0 20 -10.5 31t-26.5 11q-47 0 -47 -62h-170q0 93 51.5 137.5t166.5 44.5q122 0 167 -41.5t45 -114.5zM286 184v78
q-10 -6 -48 -21q-37 -14 -37 -69q0 -54 39 -54q46 0 46 66zM98 742h84q0 -27 20 -44.5t48 -17.5q33 0 52.5 16.5t19.5 45.5h84q0 -72 -45 -112t-117 -40q-65 0 -105.5 40.5t-40.5 111.5z" />
    <glyph glyph-name="Aogonek" unicode="&#x104;" horiz-adv-x="574" 
d="M483 -150l24 -53q-64 -37 -136 -37q-57 0 -87 25q-27 25 -27 70q0 70 118 145l-22 109h-134l-20 -109h-206l169 714h251l168 -714h-119q-65 -54 -81 -82t-16 -52q0 -38 41 -38q36 0 77 22zM331 265l-43 293h-2l-46 -293h91z" />
    <glyph glyph-name="aogonek" unicode="&#x105;" 
d="M462 399v-319q0 -42 18 -80h-100q-44 -57 -57 -85q-12 -27 -12 -49q0 -38 37 -38q32 0 69 22l22 -53q-59 -37 -123 -37q-51 0 -78 25q-24 24 -24 70q0 58 84 145q-9 24 -9 57l-2 1q-31 -72 -127 -72q-77 0 -112 40t-35 120q0 83 33 119.5t96 50.5l90 21q31 7 42.5 18.5
t11.5 37.5q0 20 -10.5 31t-26.5 11q-47 0 -47 -62h-170q0 93 51.5 137.5t166.5 44.5q122 0 167 -41.5t45 -114.5zM286 184v78q-10 -6 -48 -21q-37 -14 -37 -69q0 -54 39 -54q46 0 46 66z" />
    <glyph glyph-name="Cacute" unicode="&#x106;" horiz-adv-x="537" 
d="M322 450v58q0 88 -41 88q-38 0 -46 -40t-8 -199q0 -85 1.5 -126.5t7.5 -70t16 -35.5t29 -7q24 0 34.5 27.5t10.5 93.5v55h194v-45q0 -130 -57 -196.5t-185 -66.5q-75 0 -125 19t-76.5 43.5t-39 82t-14.5 98t-2 128.5q0 86 2 126t14.5 97.5t39 83t76.5 45t125 19.5
q62 0 106.5 -13.5t69.5 -33.5t39.5 -51.5t18.5 -60.5t4 -67v-52h-194zM217 760l36 144h176l-93 -144h-119z" />
    <glyph glyph-name="cacute" unicode="&#x107;" horiz-adv-x="481" 
d="M294 327v25q0 42 -9.5 59.5t-33.5 17.5q-27 0 -35.5 -28.5t-8.5 -129.5q0 -103 7 -131t36 -28q28 0 37.5 24.5t9.5 95.5h176q0 -134 -48 -187q-52 -59 -175 -59q-62 0 -106.5 15.5t-69.5 40t-39 64t-18 76.5t-4 89t4 88.5t18 76t39 64t69.5 40t106.5 15.5
q129 0 176 -51.5t47 -176.5h-179zM187 594l36 144h176l-93 -144h-119z" />
    <glyph glyph-name="Ccircumflex" unicode="&#x108;" horiz-adv-x="537" 
d="M322 450v58q0 88 -41 88q-38 0 -46 -40t-8 -199q0 -85 1.5 -126.5t7.5 -70t16 -35.5t29 -7q24 0 34.5 27.5t10.5 93.5v55h194v-45q0 -130 -57 -196.5t-185 -66.5q-75 0 -125 19t-76.5 43.5t-39 82t-14.5 98t-2 128.5q0 86 2 126t14.5 97.5t39 83t76.5 45t125 19.5
q62 0 106.5 -13.5t69.5 -33.5t39.5 -51.5t18.5 -60.5t4 -67v-52h-194zM116 760l57 144h206l59 -144h-132l-29 81l-35 -81h-126z" />
    <glyph glyph-name="ccircumflex" unicode="&#x109;" horiz-adv-x="481" 
d="M294 327v25q0 42 -9.5 59.5t-33.5 17.5q-27 0 -35.5 -28.5t-8.5 -129.5q0 -103 7 -131t36 -28q28 0 37.5 24.5t9.5 95.5h176q0 -134 -48 -187q-52 -59 -175 -59q-62 0 -106.5 15.5t-69.5 40t-39 64t-18 76.5t-4 89t4 88.5t18 76t39 64t69.5 40t106.5 15.5
q129 0 176 -51.5t47 -176.5h-179zM92 594l57 144h206l59 -144h-132l-29 81l-35 -81h-126z" />
    <glyph glyph-name="Cdotaccent" unicode="&#x10a;" horiz-adv-x="537" 
d="M322 450v58q0 88 -41 88q-38 0 -46 -40t-8 -199q0 -85 1.5 -126.5t7.5 -70t16 -35.5t29 -7q24 0 34.5 27.5t10.5 93.5v55h194v-45q0 -130 -57 -196.5t-185 -66.5q-75 0 -125 19t-76.5 43.5t-39 82t-14.5 98t-2 128.5q0 86 2 126t14.5 97.5t39 83t76.5 45t125 19.5
q62 0 106.5 -13.5t69.5 -33.5t39.5 -51.5t18.5 -60.5t4 -67v-52h-194zM207 760v144h144v-144h-144z" />
    <glyph glyph-name="cdotaccent" unicode="&#x10b;" horiz-adv-x="481" 
d="M294 327v25q0 42 -9.5 59.5t-33.5 17.5q-27 0 -35.5 -28.5t-8.5 -129.5q0 -103 7 -131t36 -28q28 0 37.5 24.5t9.5 95.5h176q0 -134 -48 -187q-52 -59 -175 -59q-62 0 -106.5 15.5t-69.5 40t-39 64t-18 76.5t-4 89t4 88.5t18 76t39 64t69.5 40t106.5 15.5
q129 0 176 -51.5t47 -176.5h-179zM179 594v144h144v-144h-144z" />
    <glyph glyph-name="Ccaron" unicode="&#x10c;" horiz-adv-x="537" 
d="M322 450v58q0 88 -41 88q-38 0 -46 -40t-8 -199q0 -85 1.5 -126.5t7.5 -70t16 -35.5t29 -7q24 0 34.5 27.5t10.5 93.5v55h194v-45q0 -130 -57 -196.5t-185 -66.5q-75 0 -125 19t-76.5 43.5t-39 82t-14.5 98t-2 128.5q0 86 2 126t14.5 97.5t39 83t76.5 45t125 19.5
q62 0 106.5 -13.5t69.5 -33.5t39.5 -51.5t18.5 -60.5t4 -67v-52h-194zM174 760l-57 144h126l35 -81l29 81h132l-59 -144h-206z" />
    <glyph glyph-name="ccaron" unicode="&#x10d;" horiz-adv-x="481" 
d="M294 327v25q0 42 -9.5 59.5t-33.5 17.5q-27 0 -35.5 -28.5t-8.5 -129.5q0 -103 7 -131t36 -28q28 0 37.5 24.5t9.5 95.5h176q0 -134 -48 -187q-52 -59 -175 -59q-62 0 -106.5 15.5t-69.5 40t-39 64t-18 76.5t-4 89t4 88.5t18 76t39 64t69.5 40t106.5 15.5
q129 0 176 -51.5t47 -176.5h-179zM148 594l-57 144h126l35 -81l29 81h132l-59 -144h-206z" />
    <glyph glyph-name="Dcaron" unicode="&#x10e;" horiz-adv-x="574" 
d="M39 0v714h288q129 0 179 -93q24 -41 31 -89.5t7 -174.5q0 -42 -1 -69.5t-5.5 -68.5t-12.5 -68.5t-23.5 -58.5t-38 -49t-56.5 -30.5t-77 -12.5h-291zM239 570v-426h41q58 0 58 109v208q0 60 -13 84.5t-57 24.5h-29zM161 760l-57 144h126l35 -81l29 81h132l-59 -144h-206z
" />
    <glyph glyph-name="dcaron" unicode="&#x10f;" horiz-adv-x="662" 
d="M301 271q0 81 -8 110.5t-36 29.5t-36 -29.5t-8 -110.5q0 -82 8 -111.5t36 -29.5t36 29.5t8 111.5zM298 478v236h194v-714h-191v62h-2q-23 -76 -111 -76q-35 0 -62.5 10.5t-45 24.5t-30 40.5t-18.5 47.5t-9 57t-3.5 56t-0.5 57q0 63 6 108t21.5 85.5t48 61.5t81.5 21
q40 0 73 -20.5t47 -56.5h2zM526 570l23 144h151l-55 -144h-119z" />
    <glyph glyph-name="Dcroat" unicode="&#x110;" horiz-adv-x="574" 
d="M298 433v-126h-59v-163h41q58 0 58 109v208q0 60 -13 84.5t-57 24.5h-29v-137h59zM39 433v281h288q129 0 179 -93q24 -41 31 -89.5t7 -174.5q0 -42 -1 -69.5t-5.5 -68.5t-12.5 -68.5t-23.5 -58.5t-38 -49t-56.5 -30.5t-77 -12.5h-291v307h-53v126h53z" />
    <glyph glyph-name="dcroat" unicode="&#x111;" horiz-adv-x="569" 
d="M219 572v82h79v60h194v-60h87v-82h-87v-572h-191v62h-2q-23 -76 -111 -76q-35 0 -62.5 10.5t-45 24.5t-30 40.5t-18.5 47.5t-9 57t-3.5 56t-0.5 57q0 63 6 108t21.5 85.5t48 61.5t81.5 21q40 0 73 -20.5t47 -56.5h2v94h-79zM301 271q0 81 -8 110.5t-36 29.5t-36 -29.5
t-8 -110.5q0 -82 8 -111.5t36 -29.5t36 29.5t8 111.5z" />
    <glyph glyph-name="Emacron" unicode="&#x112;" 
d="M39 0v714h430v-162h-230v-110h215v-156h-215v-124h239v-162h-439zM92 781v102h326v-102h-326z" />
    <glyph glyph-name="emacron" unicode="&#x113;" horiz-adv-x="481" 
d="M291 341v32q0 39 -9.5 53.5t-33.5 14.5q-22 0 -31.5 -14.5t-9.5 -53.5v-32h84zM207 239v-71q0 -19 2 -31.5t11.5 -24.5t28.5 -12q26 0 34 21.5t8 68.5h176q0 -109 -58 -157q-57 -47 -159 -47q-62 0 -106.5 15.5t-69.5 40t-39 64t-18 76.5t-4 89t4 88.5t18 76t39 64
t69.5 40t106.5 15.5q36 0 65.5 -5.5t51.5 -13.5t38.5 -23.5t28 -29.5t19 -38t11.5 -42t6 -48.5t2.5 -51t0.5 -55.5v-9h-266zM88 615v102h326v-102h-326z" />
    <glyph glyph-name="Ebreve" unicode="&#x114;" 
d="M39 0v714h430v-162h-230v-110h215v-156h-215v-124h239v-162h-439zM96 908h84q0 -27 20 -44.5t48 -17.5q33 0 52.5 16.5t19.5 45.5h84q0 -72 -45 -112t-117 -40q-65 0 -105.5 40.5t-40.5 111.5z" />
    <glyph glyph-name="ebreve" unicode="&#x115;" horiz-adv-x="481" 
d="M291 341v32q0 39 -9.5 53.5t-33.5 14.5q-22 0 -31.5 -14.5t-9.5 -53.5v-32h84zM207 239v-71q0 -19 2 -31.5t11.5 -24.5t28.5 -12q26 0 34 21.5t8 68.5h176q0 -109 -58 -157q-57 -47 -159 -47q-62 0 -106.5 15.5t-69.5 40t-39 64t-18 76.5t-4 89t4 88.5t18 76t39 64
t69.5 40t106.5 15.5q36 0 65.5 -5.5t51.5 -13.5t38.5 -23.5t28 -29.5t19 -38t11.5 -42t6 -48.5t2.5 -51t0.5 -55.5v-9h-266zM96 742h84q0 -27 20 -44.5t48 -17.5q33 0 52.5 16.5t19.5 45.5h84q0 -72 -45 -112t-117 -40q-65 0 -105.5 40.5t-40.5 111.5z" />
    <glyph glyph-name="Edotaccent" unicode="&#x116;" 
d="M39 0v714h430v-162h-230v-110h215v-156h-215v-124h239v-162h-439zM186 760v144h144v-144h-144z" />
    <glyph glyph-name="edotaccent" unicode="&#x117;" horiz-adv-x="481" 
d="M291 341v32q0 39 -9.5 53.5t-33.5 14.5q-22 0 -31.5 -14.5t-9.5 -53.5v-32h84zM207 239v-71q0 -19 2 -31.5t11.5 -24.5t28.5 -12q26 0 34 21.5t8 68.5h176q0 -109 -58 -157q-57 -47 -159 -47q-62 0 -106.5 15.5t-69.5 40t-39 64t-18 76.5t-4 89t4 88.5t18 76t39 64
t69.5 40t106.5 15.5q36 0 65.5 -5.5t51.5 -13.5t38.5 -23.5t28 -29.5t19 -38t11.5 -42t6 -48.5t2.5 -51t0.5 -55.5v-9h-266zM179 594v144h144v-144h-144z" />
    <glyph glyph-name="Eogonek" unicode="&#x118;" 
d="M455 -150l24 -53q-64 -37 -136 -37q-57 0 -87 25q-27 25 -27 70q0 70 118 145h-308v714h430v-162h-230v-110h215v-156h-215v-124h239v-162h-44q-65 -54 -81 -82t-16 -52q0 -38 41 -38q36 0 77 22z" />
    <glyph glyph-name="eogonek" unicode="&#x119;" horiz-adv-x="481" 
d="M348 -150l24 -53q-64 -37 -136 -37q-57 0 -87 25q-27 25 -27 70q0 29 26 67q23 31 72 65q-61 5 -97 22q-66 32 -88 96t-22 166q0 52 4 88.5t18 76t39 64t69.5 40t106.5 15.5q36 0 65.5 -5.5t51.5 -13.5t38.5 -23.5t28 -29.5t19 -38t11.5 -42t6 -48.5t2.5 -51t0.5 -55.5
v-9h-266v-71q0 -19 2 -31.5t11.5 -24.5t28.5 -12q26 0 34 21.5t8 68.5h176q0 -109 -58 -157q-29 -25 -69 -35q-7 -2 -23 -6q-56 -48 -71 -74q-16 -28 -16 -52q0 -38 41 -38q36 0 77 22zM291 341v32q0 39 -9.5 53.5t-33.5 14.5q-22 0 -31.5 -14.5t-9.5 -53.5v-32h84z" />
    <glyph glyph-name="Ecaron" unicode="&#x11a;" 
d="M39 0v714h430v-162h-230v-110h215v-156h-215v-124h239v-162h-439zM151 760l-57 144h126l35 -81l29 81h132l-59 -144h-206z" />
    <glyph glyph-name="ecaron" unicode="&#x11b;" horiz-adv-x="481" 
d="M291 341v32q0 39 -9.5 53.5t-33.5 14.5q-22 0 -31.5 -14.5t-9.5 -53.5v-32h84zM207 239v-71q0 -19 2 -31.5t11.5 -24.5t28.5 -12q26 0 34 21.5t8 68.5h176q0 -109 -58 -157q-57 -47 -159 -47q-62 0 -106.5 15.5t-69.5 40t-39 64t-18 76.5t-4 89t4 88.5t18 76t39 64
t69.5 40t106.5 15.5q36 0 65.5 -5.5t51.5 -13.5t38.5 -23.5t28 -29.5t19 -38t11.5 -42t6 -48.5t2.5 -51t0.5 -55.5v-9h-266zM148 594l-57 144h126l35 -81l29 81h132l-59 -144h-206z" />
    <glyph glyph-name="Gcircumflex" unicode="&#x11c;" horiz-adv-x="556" 
d="M284 257v132h245v-389h-139l-5 58h-2q-23 -43 -59 -57.5t-88 -14.5q-42 0 -75 11t-55 28t-37.5 47t-23.5 57t-12 70.5t-5 74.5t-1 82q0 52 1.5 85.5t6.5 77t15.5 70.5t29 56t45 45.5t66.5 27t91 10.5q72 0 120.5 -17t74 -50.5t36 -75t10.5 -99.5h-188v29q0 42 -11.5 61.5
t-39.5 19.5q-17 0 -28 -7t-15.5 -21t-6 -27t-1.5 -33v-294q0 -28 2.5 -46t15 -34t34.5 -16q33 0 44.5 22.5t11.5 67.5v49h-57zM124 760l57 144h206l59 -144h-132l-29 81l-35 -81h-126z" />
    <glyph glyph-name="gcircumflex" unicode="&#x11d;" horiz-adv-x="519" 
d="M307 474v67h185v-519q0 -112 -62 -159t-176 -47q-58 0 -100.5 11t-64 25t-34.5 38.5t-16 40t-5 41.5h176q0 -20 9 -30q11 -12 32 -12q25 0 36 11.5t11 38.5v107h-2q-31 -69 -123 -69q-154 0 -154 263q0 45 2 77t12 72t27 65t49.5 42.5t77.5 17.5q87 0 118 -81h2zM301 271
q0 81 -8 110.5t-36 29.5t-36 -29.5t-8 -110.5q0 -62 8.5 -88.5t34.5 -26.5q28 0 36.5 26.5t8.5 88.5zM108 594l57 144h206l59 -144h-132l-29 81l-35 -81h-126z" />
    <glyph glyph-name="Gbreve" unicode="&#x11e;" horiz-adv-x="556" 
d="M284 257v132h245v-389h-139l-5 58h-2q-23 -43 -59 -57.5t-88 -14.5q-42 0 -75 11t-55 28t-37.5 47t-23.5 57t-12 70.5t-5 74.5t-1 82q0 52 1.5 85.5t6.5 77t15.5 70.5t29 56t45 45.5t66.5 27t91 10.5q72 0 120.5 -17t74 -50.5t36 -75t10.5 -99.5h-188v29q0 42 -11.5 61.5
t-39.5 19.5q-17 0 -28 -7t-15.5 -21t-6 -27t-1.5 -33v-294q0 -28 2.5 -46t15 -34t34.5 -16q33 0 44.5 22.5t11.5 67.5v49h-57zM129 908h84q0 -27 20 -44.5t48 -17.5q33 0 52.5 16.5t19.5 45.5h84q0 -72 -45 -112t-117 -40q-65 0 -105.5 40.5t-40.5 111.5z" />
    <glyph glyph-name="gbreve" unicode="&#x11f;" horiz-adv-x="519" 
d="M307 474v67h185v-519q0 -112 -62 -159t-176 -47q-58 0 -100.5 11t-64 25t-34.5 38.5t-16 40t-5 41.5h176q0 -20 9 -30q11 -12 32 -12q25 0 36 11.5t11 38.5v107h-2q-31 -69 -123 -69q-154 0 -154 263q0 45 2 77t12 72t27 65t49.5 42.5t77.5 17.5q87 0 118 -81h2zM301 271
q0 81 -8 110.5t-36 29.5t-36 -29.5t-8 -110.5q0 -62 8.5 -88.5t34.5 -26.5q28 0 36.5 26.5t8.5 88.5zM118 742h84q0 -27 20 -44.5t48 -17.5q33 0 52.5 16.5t19.5 45.5h84q0 -72 -45 -112t-117 -40q-65 0 -105.5 40.5t-40.5 111.5z" />
    <glyph glyph-name="Gdotaccent" unicode="&#x120;" horiz-adv-x="556" 
d="M284 257v132h245v-389h-139l-5 58h-2q-23 -43 -59 -57.5t-88 -14.5q-42 0 -75 11t-55 28t-37.5 47t-23.5 57t-12 70.5t-5 74.5t-1 82q0 52 1.5 85.5t6.5 77t15.5 70.5t29 56t45 45.5t66.5 27t91 10.5q72 0 120.5 -17t74 -50.5t36 -75t10.5 -99.5h-188v29q0 42 -11.5 61.5
t-39.5 19.5q-17 0 -28 -7t-15.5 -21t-6 -27t-1.5 -33v-294q0 -28 2.5 -46t15 -34t34.5 -16q33 0 44.5 22.5t11.5 67.5v49h-57zM212 760v144h144v-144h-144z" />
    <glyph glyph-name="gdotaccent" unicode="&#x121;" horiz-adv-x="519" 
d="M307 474v67h185v-519q0 -112 -62 -159t-176 -47q-58 0 -100.5 11t-64 25t-34.5 38.5t-16 40t-5 41.5h176q0 -20 9 -30q11 -12 32 -12q25 0 36 11.5t11 38.5v107h-2q-31 -69 -123 -69q-154 0 -154 263q0 45 2 77t12 72t27 65t49.5 42.5t77.5 17.5q87 0 118 -81h2zM301 271
q0 81 -8 110.5t-36 29.5t-36 -29.5t-8 -110.5q0 -62 8.5 -88.5t34.5 -26.5q28 0 36.5 26.5t8.5 88.5zM198 594v144h144v-144h-144z" />
    <glyph glyph-name="Gcommaaccent" unicode="&#x122;" horiz-adv-x="556" 
d="M284 257v132h245v-389h-139l-5 58h-2q-23 -43 -59 -57.5t-88 -14.5q-42 0 -75 11t-55 28t-37.5 47t-23.5 57t-12 70.5t-5 74.5t-1 82q0 52 1.5 85.5t6.5 77t15.5 70.5t29 56t45 45.5t66.5 27t91 10.5q72 0 120.5 -17t74 -50.5t36 -75t10.5 -99.5h-188v29q0 42 -11.5 61.5
t-39.5 19.5q-17 0 -28 -7t-15.5 -21t-6 -27t-1.5 -33v-294q0 -28 2.5 -46t15 -34t34.5 -16q33 0 44.5 22.5t11.5 67.5v49h-57zM205 -163v113h154v-93q-5 -51 -34 -72.5t-100 -24.5v46q26 3 36.5 9.5t15.5 21.5h-72z" />
    <glyph glyph-name="gcommaaccent" unicode="&#x123;" horiz-adv-x="519" 
d="M307 474v67h185v-519q0 -112 -62 -159t-176 -47q-58 0 -100.5 11t-64 25t-34.5 38.5t-16 40t-5 41.5h176q0 -20 9 -30q11 -12 32 -12q25 0 36 11.5t11 38.5v107h-2q-31 -69 -123 -69q-154 0 -154 263q0 45 2 77t12 72t27 65t49.5 42.5t77.5 17.5q87 0 118 -81h2zM301 271
q0 81 -8 110.5t-36 29.5t-36 -29.5t-8 -110.5q0 -62 8.5 -88.5t34.5 -26.5q28 0 36.5 26.5t8.5 88.5zM356 714v-113h-154v93q5 51 34 72.5t100 24.5v-46q-26 -3 -36.5 -9.5t-15.5 -21.5h72z" />
    <glyph glyph-name="Hcircumflex" unicode="&#x124;" horiz-adv-x="574" 
d="M335 456v258h200v-714h-200v288h-96v-288h-200v714h200v-258h96zM128 760l57 144h206l59 -144h-132l-29 81l-35 -81h-126z" />
    <glyph glyph-name="hcircumflex" unicode="&#x125;" horiz-adv-x="519" 
d="M298 0v358q0 30 -9 41.5t-29 11.5q-39 0 -39 -53v-358h-194v714h194v-235h2q42 76 137 76q57 0 94.5 -33.5t37.5 -103.5v-418h-194zM99 760l57 144h206l59 -144h-132l-29 81l-35 -81h-126z" />
    <glyph glyph-name="Hbar" unicode="&#x126;" horiz-adv-x="574" 
d="M335 583v131h200v-714h-200v288h-96v-288h-200v714h200v-131h96zM239 438h96v63h-96v-63z" />
    <glyph glyph-name="hbar" unicode="&#x127;" horiz-adv-x="571" 
d="M350 0v358q0 30 -9 41.5t-29 11.5q-39 0 -39 -53v-358h-194v572h-85v82h85v60h194v-60h77v-82h-77v-93h2q42 76 137 76q57 0 94.5 -33.5t37.5 -103.5v-418h-194z" />
    <glyph glyph-name="Itilde" unicode="&#x128;" horiz-adv-x="258" 
d="M29 0v714h200v-714h-200zM54 760h-90q4 59 30 101.5t71 42.5q22 0 64 -18q40 -18 54 -18q10 0 16 7t7.5 12t3.5 17h90q0 -58 -30 -101t-84 -43q-30 0 -65 18t-44 18q-21 0 -23 -36z" />
    <glyph glyph-name="itilde" unicode="&#x129;" horiz-adv-x="258" 
d="M32 0v541h194v-541h-194zM56 594h-90q4 59 30 101.5t71 42.5q22 0 64 -18q40 -18 54 -18q10 0 16 7t7.5 12t3.5 17h90q0 -58 -30 -101t-84 -43q-30 0 -65 18t-44 18q-21 0 -23 -36z" />
    <glyph glyph-name="Imacron" unicode="&#x12a;" horiz-adv-x="258" 
d="M29 0v714h200v-714h-200zM-34 781v102h326v-102h-326z" />
    <glyph glyph-name="imacron" unicode="&#x12b;" horiz-adv-x="258" 
d="M32 0v541h194v-541h-194zM-32 615v102h326v-102h-326z" />
    <glyph glyph-name="Iogonek" unicode="&#x12e;" horiz-adv-x="258" 
d="M224 -150l24 -53q-64 -37 -136 -37q-57 0 -87 25q-27 25 -27 70q0 70 118 145h-87v714h200v-714h-26q-65 -54 -81 -82t-16 -52q0 -38 41 -38q36 0 77 22z" />
    <glyph glyph-name="iogonek" unicode="&#x12f;" horiz-adv-x="258" 
d="M213 -150l24 -53q-64 -37 -136 -37q-57 0 -87 25q-27 25 -27 70q0 70 118 145h-73v541h194v-541h-34q-65 -54 -81 -82t-16 -52q0 -38 41 -38q36 0 77 22zM32 584v138h194v-138h-194z" />
    <glyph glyph-name="Idotaccent" unicode="&#x130;" horiz-adv-x="258" 
d="M29 0v714h200v-714h-200zM59 760v144h144v-144h-144z" />
    <glyph glyph-name="dotlessi" unicode="&#x131;" horiz-adv-x="258" 
d="M32 0v541h194v-541h-194z" />
    <glyph glyph-name="Jcircumflex" unicode="&#x134;" 
d="M264 209v505h200v-514q0 -214 -240 -214q-46 0 -82.5 9t-59 21.5t-39 33t-24.5 36.5t-12 38.5t-4.5 32.5t-0.5 26v49h182v-53q0 -61 40 -61q25 0 32.5 20t7.5 71zM199 760l57 144h206l59 -144h-132l-29 81l-35 -81h-126z" />
    <glyph glyph-name="jcircumflex" unicode="&#x135;" horiz-adv-x="258" 
d="M226 541v-545q0 -104 -32.5 -138t-135.5 -34q-40 0 -92 4v131q24 -3 30 -3q11 0 17.5 2t12.5 11.5t6 26.5v545h194zM-34 594l57 144h206l59 -144h-132l-29 81l-35 -81h-126z" />
    <glyph glyph-name="Kcommaaccent" unicode="&#x136;" horiz-adv-x="574" 
d="M241 442l115 272h217l-176 -314l198 -400h-225l-102 237l-29 -55v-182h-200v714h200v-272h2zM229 -163v113h154v-93q-5 -51 -34 -72.5t-100 -24.5v46q26 3 36.5 9.5t15.5 21.5h-72z" />
    <glyph glyph-name="kcommaaccent" unicode="&#x137;" horiz-adv-x="519" 
d="M226 375l92 166h206l-149 -224l163 -317h-206l-82 177l-29 -44v-133h-194v714h197v-339h2zM198 -163v113h154v-93q-5 -51 -34 -72.5t-100 -24.5v46q26 3 36.5 9.5t15.5 21.5h-72z" />
    <glyph glyph-name="Lacute" unicode="&#x139;" horiz-adv-x="463" 
d="M39 0v714h200v-552h218v-162h-418zM76 760l36 144h176l-93 -144h-119z" />
    <glyph glyph-name="lacute" unicode="&#x13a;" horiz-adv-x="258" 
d="M32 0v714h194v-714h-194zM36 760l36 144h176l-93 -144h-119z" />
    <glyph glyph-name="Lcommaaccent" unicode="&#x13b;" horiz-adv-x="463" 
d="M39 0v714h200v-552h218v-162h-418zM170 -163v113h154v-93q-5 -51 -34 -72.5t-100 -24.5v46q26 3 36.5 9.5t15.5 21.5h-72z" />
    <glyph glyph-name="lcommaaccent" unicode="&#x13c;" horiz-adv-x="258" 
d="M32 0v714h194v-714h-194zM53 -163v113h154v-93q-5 -51 -34 -72.5t-100 -24.5v46q26 3 36.5 9.5t15.5 21.5h-72z" />
    <glyph glyph-name="Lcaron" unicode="&#x13d;" horiz-adv-x="463" 
d="M39 0v714h200v-552h218v-162h-418zM277 570l23 144h151l-55 -144h-119z" />
    <glyph glyph-name="lcaron" unicode="&#x13e;" horiz-adv-x="395" 
d="M32 0v714h194v-714h-194zM259 570l23 144h151l-55 -144h-119z" />
    <glyph glyph-name="Ldot" unicode="&#x13f;" horiz-adv-x="463" 
d="M39 0v714h200v-552h218v-162h-418zM288 397v144h144v-144h-144z" />
    <glyph glyph-name="ldot" unicode="&#x140;" horiz-adv-x="446" 
d="M32 0v714h194v-714h-194zM272 397v144h144v-144h-144z" />
    <glyph glyph-name="Lslash" unicode="&#x141;" horiz-adv-x="463" 
d="M239 453l125 75v-126l-125 -75v-165h218v-162h-418v212l-63 -38v126l63 38v376h200v-261z" />
    <glyph glyph-name="lslash" unicode="&#x142;" horiz-adv-x="294" 
d="M244 493l52 32v-120l-52 -32v-373h-194v261l-52 -32v120l52 32v333h194v-221z" />
    <glyph glyph-name="Nacute" unicode="&#x143;" horiz-adv-x="593" 
d="M363 278v436h188v-714h-214l-111 440h-2v-440h-182v714h217l102 -436h2zM233 760l36 144h176l-93 -144h-119z" />
    <glyph glyph-name="nacute" unicode="&#x144;" horiz-adv-x="519" 
d="M298 0v358q0 30 -9 41.5t-29 11.5q-39 0 -39 -53v-358h-194v541h188v-62h2q42 76 143 76q57 0 94.5 -33.5t37.5 -103.5v-418h-194zM195 594l36 144h176l-93 -144h-119z" />
    <glyph glyph-name="Ncommaaccent" unicode="&#x145;" horiz-adv-x="593" 
d="M363 278v436h188v-714h-214l-111 440h-2v-440h-182v714h217l102 -436h2zM219 -163v113h154v-93q-5 -51 -34 -72.5t-100 -24.5v46q26 3 36.5 9.5t15.5 21.5h-72z" />
    <glyph glyph-name="ncommaaccent" unicode="&#x146;" horiz-adv-x="519" 
d="M298 0v358q0 30 -9 41.5t-29 11.5q-39 0 -39 -53v-358h-194v541h188v-62h2q42 76 143 76q57 0 94.5 -33.5t37.5 -103.5v-418h-194zM181 -163v113h154v-93q-5 -51 -34 -72.5t-100 -24.5v46q26 3 36.5 9.5t15.5 21.5h-72z" />
    <glyph glyph-name="Ncaron" unicode="&#x147;" horiz-adv-x="593" 
d="M363 278v436h188v-714h-214l-111 440h-2v-440h-182v714h217l102 -436h2zM196 760l-57 144h126l35 -81l29 81h132l-59 -144h-206z" />
    <glyph glyph-name="ncaron" unicode="&#x148;" horiz-adv-x="519" 
d="M298 0v358q0 30 -9 41.5t-29 11.5q-39 0 -39 -53v-358h-194v541h188v-62h2q42 76 143 76q57 0 94.5 -33.5t37.5 -103.5v-418h-194zM155 594l-57 144h126l35 -81l29 81h132l-59 -144h-206z" />
    <glyph glyph-name="Omacron" unicode="&#x14c;" horiz-adv-x="556" 
d="M21 357q0 86 2 126t14.5 97.5t39 83t76.5 45t125 19.5t125 -19.5t76.5 -45t39 -83t14.5 -97.5t2 -126q0 -88 -2 -128.5t-14.5 -98t-39 -82t-76.5 -43.5t-125 -19t-125 19t-76.5 43.5t-39 82t-14.5 98t-2 128.5zM329 357q0 82 -1.5 126t-8 71t-15.5 34.5t-26 7.5t-26 -7.5
t-15.5 -34.5t-8 -71t-1.5 -126t1.5 -126t8 -71t15.5 -34.5t26 -7.5t26 7.5t15.5 34.5t8 71t1.5 126zM114 781v102h326v-102h-326z" />
    <glyph glyph-name="omacron" unicode="&#x14d;" 
d="M207 271q0 -95 8.5 -127t34.5 -32t34.5 32t8.5 127t-8.5 127t-34.5 32t-34.5 -32t-8.5 -127zM250 555q62 0 106.5 -15.5t69.5 -40t39 -64t18 -76t4 -88.5t-4 -89t-18 -76.5t-39 -64t-69.5 -40t-106.5 -15.5t-106.5 15.5t-69.5 40t-39 64t-18 76.5t-4 89t4 88.5t18 76
t39 64t69.5 40t106.5 15.5zM87 615v102h326v-102h-326z" />
    <glyph glyph-name="Obreve" unicode="&#x14e;" horiz-adv-x="556" 
d="M21 357q0 86 2 126t14.5 97.5t39 83t76.5 45t125 19.5t125 -19.5t76.5 -45t39 -83t14.5 -97.5t2 -126q0 -88 -2 -128.5t-14.5 -98t-39 -82t-76.5 -43.5t-125 -19t-125 19t-76.5 43.5t-39 82t-14.5 98t-2 128.5zM329 357q0 82 -1.5 126t-8 71t-15.5 34.5t-26 7.5t-26 -7.5
t-15.5 -34.5t-8 -71t-1.5 -126t1.5 -126t8 -71t15.5 -34.5t26 -7.5t26 7.5t15.5 34.5t8 71t1.5 126zM124 908h84q0 -27 20 -44.5t48 -17.5q33 0 52.5 16.5t19.5 45.5h84q0 -72 -45 -112t-117 -40q-65 0 -105.5 40.5t-40.5 111.5z" />
    <glyph glyph-name="obreve" unicode="&#x14f;" 
d="M207 271q0 -95 8.5 -127t34.5 -32t34.5 32t8.5 127t-8.5 127t-34.5 32t-34.5 -32t-8.5 -127zM250 555q62 0 106.5 -15.5t69.5 -40t39 -64t18 -76t4 -88.5t-4 -89t-18 -76.5t-39 -64t-69.5 -40t-106.5 -15.5t-106.5 15.5t-69.5 40t-39 64t-18 76.5t-4 89t4 88.5t18 76
t39 64t69.5 40t106.5 15.5zM96 742h84q0 -27 20 -44.5t48 -17.5q33 0 52.5 16.5t19.5 45.5h84q0 -72 -45 -112t-117 -40q-65 0 -105.5 40.5t-40.5 111.5z" />
    <glyph glyph-name="Ohungarumlaut" unicode="&#x150;" horiz-adv-x="556" 
d="M21 357q0 86 2 126t14.5 97.5t39 83t76.5 45t125 19.5t125 -19.5t76.5 -45t39 -83t14.5 -97.5t2 -126q0 -88 -2 -128.5t-14.5 -98t-39 -82t-76.5 -43.5t-125 -19t-125 19t-76.5 43.5t-39 82t-14.5 98t-2 128.5zM329 357q0 82 -1.5 126t-8 71t-15.5 34.5t-26 7.5t-26 -7.5
t-15.5 -34.5t-8 -71t-1.5 -126t1.5 -126t8 -71t15.5 -34.5t26 -7.5t26 7.5t15.5 34.5t8 71t1.5 126zM327 760l36 144h176l-93 -144h-119zM115 760l36 144h176l-93 -144h-119z" />
    <glyph glyph-name="ohungarumlaut" unicode="&#x151;" 
d="M207 271q0 -95 8.5 -127t34.5 -32t34.5 32t8.5 127t-8.5 127t-34.5 32t-34.5 -32t-8.5 -127zM250 555q62 0 106.5 -15.5t69.5 -40t39 -64t18 -76t4 -88.5t-4 -89t-18 -76.5t-39 -64t-69.5 -40t-106.5 -15.5t-106.5 15.5t-69.5 40t-39 64t-18 76.5t-4 89t4 88.5t18 76
t39 64t69.5 40t106.5 15.5zM293 594l36 144h176l-93 -144h-119zM81 594l36 144h176l-93 -144h-119z" />
    <glyph glyph-name="OE" unicode="&#x152;" horiz-adv-x="759" 
d="M353 685v29h375v-162h-211v-110h196v-156h-196v-124h220v-162h-384v25q-45 -39 -116 -39q-63 0 -105.5 22t-64 49.5t-32.5 85.5t-12.5 97t-1.5 117q0 63 2.5 105.5t9.5 89t21.5 75.5t37.5 53.5t58.5 36t83.5 11.5q82 0 119 -43zM329 357q0 82 -1.5 126t-8 71t-15.5 34.5
t-26 7.5t-26 -7.5t-15.5 -34.5t-8 -71t-1.5 -126t1.5 -126t8 -71t15.5 -34.5t26 -7.5t26 7.5t15.5 34.5t8 71t1.5 126z" />
    <glyph glyph-name="oe" unicode="&#x153;" horiz-adv-x="742" 
d="M463 239v-71q0 -19 2 -31.5t11.5 -24.5t28.5 -12q26 0 34 21.5t8 68.5h176q0 -98 -50.5 -151t-148.5 -53q-118 0 -148 64q-35 -64 -155 -64q-61 0 -103 21.5t-64 62t-31.5 89t-9.5 112.5t9.5 112t32.5 88.5t68 62t110 21.5q59 0 100 -18.5t50 -41.5q34 60 141 60
q37 0 67 -5.5t51 -19t36 -27.5t24.5 -39t15 -44t8 -53.5t3 -56.5t0.5 -62v-9h-266zM547 341v32q0 39 -9.5 53.5t-33.5 14.5q-22 0 -31.5 -14.5t-9.5 -53.5v-32h84zM293 271q0 102 -7.5 130t-35.5 28t-35.5 -28t-7.5 -130q0 -101 7.5 -130t35.5 -29t35.5 29t7.5 130z" />
    <glyph glyph-name="Racute" unicode="&#x154;" horiz-adv-x="574" 
d="M39 0v714h300q197 0 197 -187q0 -153 -119 -172v-2q67 -5 95 -57q19 -32 19 -122v-59q0 -64 9 -84q8 -15 21 -21v-10h-212q-15 18 -15 103q0 17 -1.5 53t-1.5 53q0 43 -13 57.5t-42 14.5h-37v-281h-200zM239 570v-157h29q68 0 68 84q0 42 -18.5 57.5t-55.5 15.5h-23z
M201 760l36 144h176l-93 -144h-119z" />
    <glyph glyph-name="racute" unicode="&#x155;" horiz-adv-x="370" 
d="M27 0v541h188v-80h2q15 41 46 67.5t69 26.5q12 0 33 -3v-177q-11 1 -24 3q-5 1 -15 1h-22q-48 0 -65.5 -24t-17.5 -75v-280h-194zM96 594l36 144h176l-93 -144h-119z" />
    <glyph glyph-name="Rcommaaccent" unicode="&#x156;" horiz-adv-x="574" 
d="M39 0v714h300q197 0 197 -187q0 -153 -119 -172v-2q67 -5 95 -57q19 -32 19 -122v-59q0 -64 9 -84q8 -15 21 -21v-10h-212q-15 18 -15 103q0 17 -1.5 53t-1.5 53q0 43 -13 57.5t-42 14.5h-37v-281h-200zM239 570v-157h29q68 0 68 84q0 42 -18.5 57.5t-55.5 15.5h-23z
M209 -163v113h154v-93q-5 -51 -34 -72.5t-100 -24.5v46q26 3 36.5 9.5t15.5 21.5h-72z" />
    <glyph glyph-name="rcommaaccent" unicode="&#x157;" horiz-adv-x="370" 
d="M27 0v541h188v-80h2q15 41 46 67.5t69 26.5q12 0 33 -3v-177q-11 1 -24 3q-5 1 -15 1h-22q-48 0 -65.5 -24t-17.5 -75v-280h-194zM45 -163v113h154v-93q-5 -51 -34 -72.5t-100 -24.5v46q26 3 36.5 9.5t15.5 21.5h-72z" />
    <glyph glyph-name="Rcaron" unicode="&#x158;" horiz-adv-x="574" 
d="M39 0v714h300q197 0 197 -187q0 -153 -119 -172v-2q67 -5 95 -57q19 -32 19 -122v-59q0 -64 9 -84q8 -15 21 -21v-10h-212q-15 18 -15 103q0 17 -1.5 53t-1.5 53q0 43 -13 57.5t-42 14.5h-37v-281h-200zM239 570v-157h29q68 0 68 84q0 42 -18.5 57.5t-55.5 15.5h-23z
M167 760l-57 144h126l35 -81l29 81h132l-59 -144h-206z" />
    <glyph glyph-name="rcaron" unicode="&#x159;" horiz-adv-x="370" 
d="M27 0v541h188v-80h2q15 41 46 67.5t69 26.5q12 0 33 -3v-177q-11 1 -24 3q-5 1 -15 1h-22q-48 0 -65.5 -24t-17.5 -75v-280h-194zM91 594l-57 144h126l35 -81l29 81h132l-59 -144h-206z" />
    <glyph glyph-name="Sacute" unicode="&#x15a;" horiz-adv-x="537" 
d="M313 509v29q0 58 -47 58q-22 0 -34 -15.5t-12 -38.5q0 -29 16.5 -49.5t42.5 -33t58 -24t64 -27.5t58 -38.5t42.5 -61t16.5 -90.5q0 -124 -61.5 -178t-200.5 -54q-120 0 -178.5 47.5t-58.5 161.5v19h194v-33q0 -28 12.5 -45.5t37.5 -17.5q49 0 49 63q0 21 -6.5 35.5
t-13.5 20.5t-23 15q-13 8 -47 23t-52 24q-84 41 -114 81t-30 118q0 133 76 186q64 44 163 44q73 0 121.5 -16.5t72.5 -49t33 -68t9 -85.5h-188zM210 760l36 144h176l-93 -144h-119z" />
    <glyph glyph-name="sacute" unicode="&#x15b;" horiz-adv-x="463" 
d="M10 174h170q6 -45 10 -53q11 -21 41 -21q22 0 31 14t9 28q0 21 -12.5 31.5t-63.5 27.5q-102 35 -141.5 69t-39.5 103q0 86 52 134t160 48q45 0 80 -7t57.5 -17t38.5 -26.5t23.5 -29.5t11.5 -32.5t4.5 -29.5t0.5 -26h-164q0 29 -8 39q-10 15 -39 15q-41 0 -41 -37
q0 -19 26 -32.5t117 -44.5q27 -9 43 -17.5t36.5 -26t30.5 -46.5t10 -70q0 -94 -61.5 -137.5t-160.5 -43.5q-112 0 -165.5 40t-55.5 148zM169 594l36 144h176l-93 -144h-119z" />
    <glyph glyph-name="Scircumflex" unicode="&#x15c;" horiz-adv-x="537" 
d="M313 509v29q0 58 -47 58q-22 0 -34 -15.5t-12 -38.5q0 -29 16.5 -49.5t42.5 -33t58 -24t64 -27.5t58 -38.5t42.5 -61t16.5 -90.5q0 -124 -61.5 -178t-200.5 -54q-120 0 -178.5 47.5t-58.5 161.5v19h194v-33q0 -28 12.5 -45.5t37.5 -17.5q49 0 49 63q0 21 -6.5 35.5
t-13.5 20.5t-23 15q-13 8 -47 23t-52 24q-84 41 -114 81t-30 118q0 133 76 186q64 44 163 44q73 0 121.5 -16.5t72.5 -49t33 -68t9 -85.5h-188zM109 760l57 144h206l59 -144h-132l-29 81l-35 -81h-126z" />
    <glyph glyph-name="scircumflex" unicode="&#x15d;" horiz-adv-x="463" 
d="M10 174h170q6 -45 10 -53q11 -21 41 -21q22 0 31 14t9 28q0 21 -12.5 31.5t-63.5 27.5q-102 35 -141.5 69t-39.5 103q0 86 52 134t160 48q45 0 80 -7t57.5 -17t38.5 -26.5t23.5 -29.5t11.5 -32.5t4.5 -29.5t0.5 -26h-164q0 29 -8 39q-10 15 -39 15q-41 0 -41 -37
q0 -19 26 -32.5t117 -44.5q27 -9 43 -17.5t36.5 -26t30.5 -46.5t10 -70q0 -94 -61.5 -137.5t-160.5 -43.5q-112 0 -165.5 40t-55.5 148zM74 594l57 144h206l59 -144h-132l-29 81l-35 -81h-126z" />
    <glyph glyph-name="Scedilla" unicode="&#x15e;" horiz-adv-x="537" 
d="M140 -217l23 59q30 -16 78 -16q41 0 41 31q0 14 -12.5 22.5t-28.5 8.5q-10 0 -27 -6l-29 21l43 84q-36 1 -74 10q-135 31 -135 198v19h194v-33q0 -28 12.5 -45.5t37.5 -17.5q49 0 49 63q0 21 -6.5 35.5t-13.5 20.5t-23 15q-13 8 -47 23t-52 24q-84 41 -114 81t-30 118
q0 133 76 186q64 44 163 44q73 0 121.5 -16.5t72.5 -49t33 -68t9 -85.5h-188v29q0 58 -47 58q-22 0 -34 -15.5t-12 -38.5q0 -29 16.5 -49.5t42.5 -33t58 -24t64 -27.5t58 -38.5t42.5 -61t16.5 -90.5q0 -94 -34 -147t-109 -72q-36 -9 -82 -12l-27 -51q14 5 35 5
q36 0 59.5 -24t23.5 -58q0 -47 -39.5 -73t-90.5 -26q-64 0 -114 23z" />
    <glyph glyph-name="scedilla" unicode="&#x15f;" horiz-adv-x="463" 
d="M103 -217l23 59q30 -16 78 -16q41 0 41 31q0 14 -12.5 22.5t-28.5 8.5q-11 0 -27 -6l-29 21l43 84q-20 1 -54 7q-62 12 -94 55t-33 125h170q6 -45 10 -53q11 -21 41 -21q22 0 31 14t9 28q0 21 -12.5 31.5t-63.5 27.5q-102 35 -141.5 69t-39.5 103q0 86 52 134t160 48
q45 0 80 -7t57.5 -17t38.5 -26.5t23.5 -29.5t11.5 -32.5t4.5 -29.5t0.5 -26h-164q0 29 -8 39q-10 15 -39 15q-41 0 -41 -37q0 -19 26 -32.5t117 -44.5q27 -9 43 -17.5t36.5 -26t30.5 -46.5t10 -70q0 -71 -37 -114t-100 -57q-28 -8 -60 -9l-27 -51q14 5 35 5q36 0 59.5 -24
t23.5 -58q0 -47 -39.5 -73t-90.5 -26q-64 0 -114 23z" />
    <glyph glyph-name="Scaron" unicode="&#x160;" horiz-adv-x="537" 
d="M313 509v29q0 58 -47 58q-22 0 -34 -15.5t-12 -38.5q0 -29 16.5 -49.5t42.5 -33t58 -24t64 -27.5t58 -38.5t42.5 -61t16.5 -90.5q0 -124 -61.5 -178t-200.5 -54q-120 0 -178.5 47.5t-58.5 161.5v19h194v-33q0 -28 12.5 -45.5t37.5 -17.5q49 0 49 63q0 21 -6.5 35.5
t-13.5 20.5t-23 15q-13 8 -47 23t-52 24q-84 41 -114 81t-30 118q0 133 76 186q64 44 163 44q73 0 121.5 -16.5t72.5 -49t33 -68t9 -85.5h-188zM166 760l-57 144h126l35 -81l29 81h132l-59 -144h-206z" />
    <glyph glyph-name="scaron" unicode="&#x161;" horiz-adv-x="463" 
d="M10 174h170q6 -45 10 -53q11 -21 41 -21q22 0 31 14t9 28q0 21 -12.5 31.5t-63.5 27.5q-102 35 -141.5 69t-39.5 103q0 86 52 134t160 48q45 0 80 -7t57.5 -17t38.5 -26.5t23.5 -29.5t11.5 -32.5t4.5 -29.5t0.5 -26h-164q0 29 -8 39q-10 15 -39 15q-41 0 -41 -37
q0 -19 26 -32.5t117 -44.5q27 -9 43 -17.5t36.5 -26t30.5 -46.5t10 -70q0 -94 -61.5 -137.5t-160.5 -43.5q-112 0 -165.5 40t-55.5 148zM129 594l-57 144h126l35 -81l29 81h132l-59 -144h-206z" />
    <glyph glyph-name="Tcommaaccent" unicode="&#x162;" horiz-adv-x="464" 
d="M-4 546v168h472v-168h-136v-546h-200v546h-136zM153 -163v113h154v-93q-5 -51 -34 -72.5t-100 -24.5v46q26 3 36.5 9.5t15.5 21.5h-72z" />
    <glyph glyph-name="tcommaaccent" unicode="&#x163;" horiz-adv-x="315" 
d="M56 541v159h194v-159h68v-126h-68v-241q0 -28 7 -39t30 -11q21 0 31 3v-129q-32 -6 -96 -6q-40 0 -60.5 1.5t-45 7.5t-35 19.5t-18 37.5t-7.5 60v297h-59v126h59zM110 -163v113h154v-93q-5 -51 -34 -72.5t-100 -24.5v46q26 3 36.5 9.5t15.5 21.5h-72z" />
    <glyph glyph-name="Tcaron" unicode="&#x164;" horiz-adv-x="464" 
d="M-4 546v168h472v-168h-136v-546h-200v546h-136zM131 760l-57 144h126l35 -81l29 81h132l-59 -144h-206z" />
    <glyph glyph-name="tcaron" unicode="&#x165;" horiz-adv-x="451" 
d="M311 570l23 144h151l-55 -144h-119zM56 541v159h194v-159h68v-126h-68v-241q0 -28 7 -39t30 -11q21 0 31 3v-129q-32 -6 -96 -6q-40 0 -60.5 1.5t-45 7.5t-35 19.5t-18 37.5t-7.5 60v297h-59v126h59z" />
    <glyph glyph-name="Tbar" unicode="&#x166;" horiz-adv-x="464" 
d="M39 334v82h93v130h-136v168h472v-168h-136v-130h93v-82h-93v-334h-200v334h-93z" />
    <glyph glyph-name="tbar" unicode="&#x167;" horiz-adv-x="315" 
d="M-12 261v82h68v72h-59v126h59v159h194v-159h68v-126h-68v-72h77v-82h-77v-87q0 -28 7 -39t30 -11q21 0 31 3v-129q-32 -6 -96 -6q-40 0 -60.5 1.5t-45 7.5t-35 19.5t-18 37.5t-7.5 60v143h-68z" />
    <glyph glyph-name="Utilde" unicode="&#x168;" horiz-adv-x="556" 
d="M324 204v510h200v-472q0 -131 -58 -193.5t-188 -62.5q-141 0 -193.5 59t-52.5 197v472h200v-510q0 -48 9 -67t37 -19t37 19t9 67zM202 760h-90q4 59 30 101.5t71 42.5q22 0 64 -18q40 -18 54 -18q10 0 16 7t7.5 12t3.5 17h90q0 -58 -30 -101t-84 -43q-30 0 -65 18t-44 18
q-21 0 -23 -36z" />
    <glyph glyph-name="utilde" unicode="&#x169;" horiz-adv-x="519" 
d="M304 0v62h-2q-42 -76 -143 -76q-57 0 -94.5 33.5t-37.5 103.5v418h194v-358q0 -30 9 -41.5t29 -11.5q39 0 39 53v358h194v-541h-188zM183 594h-90q4 59 30 101.5t71 42.5q22 0 64 -18q40 -18 54 -18q10 0 16 7t7.5 12t3.5 17h90q0 -58 -30 -101t-84 -43q-30 0 -65 18
t-44 18q-21 0 -23 -36z" />
    <glyph glyph-name="Umacron" unicode="&#x16a;" horiz-adv-x="556" 
d="M324 204v510h200v-472q0 -131 -58 -193.5t-188 -62.5q-141 0 -193.5 59t-52.5 197v472h200v-510q0 -48 9 -67t37 -19t37 19t9 67zM117 781v102h326v-102h-326z" />
    <glyph glyph-name="umacron" unicode="&#x16b;" horiz-adv-x="519" 
d="M304 0v62h-2q-42 -76 -143 -76q-57 0 -94.5 33.5t-37.5 103.5v418h194v-358q0 -30 9 -41.5t29 -11.5q39 0 39 53v358h194v-541h-188zM97 615v102h326v-102h-326z" />
    <glyph glyph-name="Ubreve" unicode="&#x16c;" horiz-adv-x="556" 
d="M324 204v510h200v-472q0 -131 -58 -193.5t-188 -62.5q-141 0 -193.5 59t-52.5 197v472h200v-510q0 -48 9 -67t37 -19t37 19t9 67zM126 908h84q0 -27 20 -44.5t48 -17.5q33 0 52.5 16.5t19.5 45.5h84q0 -72 -45 -112t-117 -40q-65 0 -105.5 40.5t-40.5 111.5z" />
    <glyph glyph-name="ubreve" unicode="&#x16d;" horiz-adv-x="519" 
d="M304 0v62h-2q-42 -76 -143 -76q-57 0 -94.5 33.5t-37.5 103.5v418h194v-358q0 -30 9 -41.5t29 -11.5q39 0 39 53v358h194v-541h-188zM106 742h84q0 -27 20 -44.5t48 -17.5q33 0 52.5 16.5t19.5 45.5h84q0 -72 -45 -112t-117 -40q-65 0 -105.5 40.5t-40.5 111.5z" />
    <glyph glyph-name="Uring" unicode="&#x16e;" horiz-adv-x="556" 
d="M324 204v510h200v-472q0 -131 -58 -193.5t-188 -62.5q-141 0 -193.5 59t-52.5 197v472h200v-510q0 -48 9 -67t37 -19t37 19t9 67zM221 862q0 -24 17 -41t41 -17t41 17t17 41q0 25 -17 42t-41 17t-41 -17t-17 -42zM149 863q0 55 37.5 90.5t92.5 35.5t92.5 -35.5
t37.5 -90.5t-37.5 -89.5t-92.5 -34.5t-92.5 34.5t-37.5 89.5z" />
    <glyph glyph-name="uring" unicode="&#x16f;" horiz-adv-x="519" 
d="M304 0v62h-2q-42 -76 -143 -76q-57 0 -94.5 33.5t-37.5 103.5v418h194v-358q0 -30 9 -41.5t29 -11.5q39 0 39 53v358h194v-541h-188zM202 706q0 -24 17 -41t41 -17t41 17t17 41q0 25 -17 42t-41 17t-41 -17t-17 -42zM130 707q0 55 37.5 90.5t92.5 35.5t92.5 -35.5
t37.5 -90.5t-37.5 -89.5t-92.5 -34.5t-92.5 34.5t-37.5 89.5z" />
    <glyph glyph-name="Uhungarumlaut" unicode="&#x170;" horiz-adv-x="556" 
d="M324 204v510h200v-472q0 -131 -58 -193.5t-188 -62.5q-141 0 -193.5 59t-52.5 197v472h200v-510q0 -48 9 -67t37 -19t37 19t9 67zM324 760l36 144h176l-93 -144h-119zM112 760l36 144h176l-93 -144h-119z" />
    <glyph glyph-name="uhungarumlaut" unicode="&#x171;" horiz-adv-x="519" 
d="M304 0v62h-2q-42 -76 -143 -76q-57 0 -94.5 33.5t-37.5 103.5v418h194v-358q0 -30 9 -41.5t29 -11.5q39 0 39 53v358h194v-541h-188zM309 594l36 144h176l-93 -144h-119zM97 594l36 144h176l-93 -144h-119z" />
    <glyph glyph-name="Uogonek" unicode="&#x172;" horiz-adv-x="556" 
d="M374 -150l24 -53q-64 -37 -136 -37q-57 0 -87 25q-27 25 -27 70q0 29 26 67q23 31 72 65q-49 3 -89 14q-69 22 -97 80t-28 161v472h200v-510q0 -48 9 -67t37 -19t37 19t9 67v510h200v-472q0 -128 -57 -192q-42 -48 -126 -60q-54 -46 -69 -72q-16 -28 -16 -52
q0 -38 41 -38q36 0 77 22z" />
    <glyph glyph-name="uogonek" unicode="&#x173;" horiz-adv-x="519" 
d="M304 0v62h-2q-42 -76 -143 -76q-57 0 -94.5 33.5t-37.5 103.5v418h194v-358q0 -30 9 -41.5t29 -11.5q39 0 39 53v358h194v-541h-109q-66 -88 -66 -134q0 -38 37 -38q32 0 69 22l22 -53q-59 -37 -123 -37q-51 0 -78 25q-24 24 -24 70q0 63 85 145h-1z" />
    <glyph glyph-name="Wcircumflex" unicode="&#x174;" horiz-adv-x="778" 
d="M551 208l43 506h188l-118 -714h-214l-60 480h-2l-57 -480h-218l-117 714h194l47 -506h2l63 506h176l71 -506h2zM230 760l57 144h206l59 -144h-132l-29 81l-35 -81h-126z" />
    <glyph glyph-name="wcircumflex" unicode="&#x175;" horiz-adv-x="759" 
d="M110 0l-111 541h194l38 -373h2l52 373h200l50 -373h2l41 373h182l-108 -541h-224l-45 349h-2l-48 -349h-223zM225 594l57 144h206l59 -144h-132l-29 81l-35 -81h-126z" />
    <glyph glyph-name="Ycircumflex" unicode="&#x176;" horiz-adv-x="538" 
d="M270 465l62 249h217l-180 -433v-281h-200v281l-180 433h222l57 -249h2zM108 760l57 144h206l59 -144h-132l-29 81l-35 -81h-126z" />
    <glyph glyph-name="ycircumflex" unicode="&#x177;" horiz-adv-x="481" 
d="M146 0l-150 541h200l49 -328h2l44 328h194l-139 -536q-10 -37 -17 -58.5t-18.5 -45t-24.5 -35.5t-33.5 -23t-47 -15t-63.5 -4q-49 0 -92 9v126q26 -3 51 -3q24 0 35 15q10 13 10 29zM85 594l57 144h206l59 -144h-132l-29 81l-35 -81h-126z" />
    <glyph glyph-name="Ydieresis" unicode="&#x178;" horiz-adv-x="538" 
d="M270 465l62 249h217l-180 -433v-281h-200v281l-180 433h222l57 -249h2zM289 760v144h144v-144h-144zM107 760v144h144v-144h-144z" />
    <glyph glyph-name="Zacute" unicode="&#x179;" horiz-adv-x="481" 
d="M19 137l211 415h-196v162h428v-139l-217 -413h216v-162h-442v137zM183 760l36 144h176l-93 -144h-119z" />
    <glyph glyph-name="zacute" unicode="&#x17a;" horiz-adv-x="463" 
d="M18 148l182 243h-173v150h411v-144l-191 -247h198v-150h-427v148zM167 594l36 144h176l-93 -144h-119z" />
    <glyph glyph-name="Zdotaccent" unicode="&#x17b;" horiz-adv-x="481" 
d="M19 137l211 415h-196v162h428v-139l-217 -413h216v-162h-442v137zM179 760v144h144v-144h-144z" />
    <glyph glyph-name="zdotaccent" unicode="&#x17c;" horiz-adv-x="463" 
d="M18 148l182 243h-173v150h411v-144l-191 -247h198v-150h-427v148zM166 594v144h144v-144h-144z" />
    <glyph glyph-name="Zcaron" unicode="&#x17d;" horiz-adv-x="481" 
d="M19 137l211 415h-196v162h428v-139l-217 -413h216v-162h-442v137zM149 760l-57 144h126l35 -81l29 81h132l-59 -144h-206z" />
    <glyph glyph-name="zcaron" unicode="&#x17e;" horiz-adv-x="463" 
d="M18 148l182 243h-173v150h411v-144l-191 -247h198v-150h-427v148zM134 594l-57 144h126l35 -81l29 81h132l-59 -144h-206z" />
    <glyph glyph-name="florin" unicode="&#x192;" horiz-adv-x="520" 
d="M-33 -166l26 119q3 0 8.5 -1t10 -1.5t8.5 -0.5q47 0 61 21t27 94l46 237h-104l21 114h105l19 91q25 117 71.5 162t158.5 45q51 0 87 -6l-25 -123q-15 3 -32 3q-38 0 -53 -20.5t-31 -93.5l-13 -58h111l-21 -114h-112l-42 -233q-13 -76 -33 -128t-64 -84q-46 -33 -134 -33
q-47 0 -96 10z" />
    <glyph glyph-name="Scommaaccent" unicode="&#x218;" horiz-adv-x="537" 
d="M313 509v29q0 58 -47 58q-22 0 -34 -15.5t-12 -38.5q0 -29 16.5 -49.5t42.5 -33t58 -24t64 -27.5t58 -38.5t42.5 -61t16.5 -90.5q0 -124 -61.5 -178t-200.5 -54q-120 0 -178.5 47.5t-58.5 161.5v19h194v-33q0 -28 12.5 -45.5t37.5 -17.5q49 0 49 63q0 21 -6.5 35.5
t-13.5 20.5t-23 15q-13 8 -47 23t-52 24q-84 41 -114 81t-30 118q0 133 76 186q64 44 163 44q73 0 121.5 -16.5t72.5 -49t33 -68t9 -85.5h-188zM187 -163v113h154v-93q-5 -51 -34 -72.5t-100 -24.5v46q26 3 36.5 9.5t15.5 21.5h-72z" />
    <glyph glyph-name="scommaaccent" unicode="&#x219;" horiz-adv-x="463" 
d="M10 174h170q6 -45 10 -53q11 -21 41 -21q22 0 31 14t9 28q0 21 -12.5 31.5t-63.5 27.5q-102 35 -141.5 69t-39.5 103q0 86 52 134t160 48q45 0 80 -7t57.5 -17t38.5 -26.5t23.5 -29.5t11.5 -32.5t4.5 -29.5t0.5 -26h-164q0 29 -8 39q-10 15 -39 15q-41 0 -41 -37
q0 -19 26 -32.5t117 -44.5q27 -9 43 -17.5t36.5 -26t30.5 -46.5t10 -70q0 -94 -61.5 -137.5t-160.5 -43.5q-112 0 -165.5 40t-55.5 148zM155 -163v113h154v-93q-5 -51 -34 -72.5t-100 -24.5v46q26 3 36.5 9.5t15.5 21.5h-72z" />
    <glyph glyph-name="uni021A" unicode="&#x21a;" horiz-adv-x="464" 
d="M-4 546v168h472v-168h-136v-546h-200v546h-136zM153 -163v113h154v-93q-5 -51 -34 -72.5t-100 -24.5v46q26 3 36.5 9.5t15.5 21.5h-72z" />
    <glyph glyph-name="uni021B" unicode="&#x21b;" horiz-adv-x="315" 
d="M56 541v159h194v-159h68v-126h-68v-241q0 -28 7 -39t30 -11q21 0 31 3v-129q-32 -6 -96 -6q-40 0 -60.5 1.5t-45 7.5t-35 19.5t-18 37.5t-7.5 60v297h-59v126h59zM110 -163v113h154v-93q-5 -51 -34 -72.5t-100 -24.5v46q26 3 36.5 9.5t15.5 21.5h-72z" />
    <glyph glyph-name="circumflex" unicode="&#x2c6;" horiz-adv-x="260" 
d="M-31 594l57 144h206l59 -144h-132l-29 81l-35 -81h-126z" />
    <glyph glyph-name="caron" unicode="&#x2c7;" horiz-adv-x="260" 
d="M26 594l-57 144h126l35 -81l29 81h132l-59 -144h-206z" />
    <glyph glyph-name="uni02C9" unicode="&#x2c9;" horiz-adv-x="260" 
d="M-33 615v102h326v-102h-326z" />
    <glyph glyph-name="breve" unicode="&#x2d8;" horiz-adv-x="260" 
d="M-24 742h84q0 -27 20 -44.5t48 -17.5q33 0 52.5 16.5t19.5 45.5h84q0 -72 -45 -112t-117 -40q-65 0 -105.5 40.5t-40.5 111.5z" />
    <glyph glyph-name="dotaccent" unicode="&#x2d9;" horiz-adv-x="260" 
d="M58 594v144h144v-144h-144z" />
    <glyph glyph-name="ring" unicode="&#x2da;" horiz-adv-x="260" 
d="M72 706q0 -24 17 -41t41 -17t41 17t17 41q0 25 -17 42t-41 17t-41 -17t-17 -42zM0 707q0 55 37.5 90.5t92.5 35.5t92.5 -35.5t37.5 -90.5t-37.5 -89.5t-92.5 -34.5t-92.5 34.5t-37.5 89.5z" />
    <glyph glyph-name="ogonek" unicode="&#x2db;" horiz-adv-x="260" 
d="M230 -150l24 -53q-64 -37 -136 -37q-57 0 -87 25q-27 25 -27 70q0 70 118 145h87q-65 -54 -81 -82t-16 -52q0 -38 41 -38q36 0 77 22z" />
    <glyph glyph-name="tilde" unicode="&#x2dc;" horiz-adv-x="260" 
d="M52 594h-90q4 59 30 101.5t71 42.5q22 0 64 -18q40 -18 54 -18q10 0 16 7t7.5 12t3.5 17h90q0 -58 -30 -101t-84 -43q-30 0 -65 18t-44 18q-21 0 -23 -36z" />
    <glyph glyph-name="hungarumlaut" unicode="&#x2dd;" horiz-adv-x="260" 
d="M130 594l36 144h176l-93 -144h-119zM-82 594l36 144h176l-93 -144h-119z" />
    <glyph glyph-name="uni0394" unicode="&#x394;" horiz-adv-x="722" 
d="M486 150l-134 386l-124 -386h258zM710 0h-698l249 712h177z" />
    <glyph glyph-name="uni03A9" unicode="&#x3a9;" horiz-adv-x="778" 
d="M726 416q0 -88 -45.5 -161.5t-127.5 -90.5v-19h172v-145h-302v222q63 11 94.5 60t31.5 117q0 75 -41.5 125t-115.5 50q-75 0 -119 -52.5t-44 -128.5q0 -66 31.5 -112.5t92.5 -58.5v-222h-302v145h173v19q-84 23 -128.5 91.5t-44.5 159.5q0 144 98 225t244 81
q141 0 237 -82.5t96 -222.5z" />
    <glyph glyph-name="uni03BC" unicode="&#x3bc;" horiz-adv-x="519" 
d="M492 541v-541h-188v62h-2q-26 -76 -67 -76q-4 0 -14 2v-164h-194v717h194v-358q0 -30 9 -41.5t29 -11.5q39 0 39 53v358h194z" />
    <glyph glyph-name="pi" unicode="&#x3c0;" horiz-adv-x="629" 
d="M604 134v-113q-58 -30 -109 -30q-70 0 -98.5 38t-28.5 109v217h-143v-355h-155v355h-70v141h604v-141h-81v-155q0 -3 -0.5 -14t0 -15.5t1.5 -14t3.5 -14t6.5 -9.5t11 -7.5t16 -2.5q19 0 43 11z" />
    <glyph glyph-name="endash" unicode="&#x2013;" 
d="M500 368v-156h-500v156h500z" />
    <glyph glyph-name="emdash" unicode="&#x2014;" horiz-adv-x="1000" 
d="M0 212v156h1000v-156h-1000z" />
    <glyph glyph-name="quoteleft" unicode="&#x2018;" horiz-adv-x="260" 
d="M42 328v154q0 58 6 95t23.5 70t53.5 49t93 18v-90q-37 -4 -50 -20.5t-15 -71.5h65v-204h-176z" />
    <glyph glyph-name="quoteright" unicode="&#x2019;" horiz-adv-x="260" 
d="M42 510v204h176v-154q0 -58 -6 -95t-23.5 -70t-53.5 -49t-93 -18v90q37 2 50 20t15 72h-65z" />
    <glyph glyph-name="quotesinglbase" unicode="&#x201a;" horiz-adv-x="260" 
d="M42 6v204h176v-154q0 -58 -6 -95t-23.5 -70t-53.5 -49t-93 -18v90q37 2 50 20t15 72h-65z" />
    <glyph glyph-name="quotedblleft" unicode="&#x201c;" 
d="M42 328v154q0 58 6 95t23.5 70t53.5 49t93 18v-90q-37 -4 -50 -20.5t-15 -71.5h65v-204h-176zM282 328v154q0 58 6 95t23.5 70t53.5 49t93 18v-90q-37 -4 -50 -20.5t-15 -71.5h65v-204h-176z" />
    <glyph glyph-name="quotedblright" unicode="&#x201d;" 
d="M282 510v204h176v-154q0 -58 -6 -95t-23.5 -70t-53.5 -49t-93 -18v90q37 2 50 20t15 72h-65zM42 510v204h176v-154q0 -58 -6 -95t-23.5 -70t-53.5 -49t-93 -18v90q37 2 50 20t15 72h-65z" />
    <glyph glyph-name="quotedblbase" unicode="&#x201e;" 
d="M282 6v204h176v-154q0 -58 -6 -95t-23.5 -70t-53.5 -49t-93 -18v90q37 2 50 20t15 72h-65zM42 6v204h176v-154q0 -58 -6 -95t-23.5 -70t-53.5 -49t-93 -18v90q37 2 50 20t15 72h-65z" />
    <glyph glyph-name="dagger" unicode="&#x2020;" horiz-adv-x="520" 
d="M166 524v190h188v-190h166v-150h-166v-514h-188v514h-166v150h166z" />
    <glyph glyph-name="daggerdbl" unicode="&#x2021;" horiz-adv-x="520" 
d="M166 524v190h188v-190h166v-150h-166v-180h166v-150h-166v-184h-188v184h-166v150h166v180h-166v150h166z" />
    <glyph glyph-name="bullet" unicode="&#x2022;" 
d="M72 357q0 74 52 126t126 52t126 -52t52 -126t-52 -126t-126 -52t-126 52t-52 126z" />
    <glyph glyph-name="ellipsis" unicode="&#x2026;" horiz-adv-x="1000" 
d="M745 0v212h176v-212h-176zM412 0v212h176v-212h-176zM79 0v212h176v-212h-176z" />
    <glyph glyph-name="perthousand" unicode="&#x2030;" horiz-adv-x="1130" 
d="M171 -31l322 756h114l-322 -756h-114zM174 324q-94 0 -127.5 46t-33.5 146t33.5 146t127.5 46t127.5 -46t33.5 -146t-33.5 -146t-127.5 -46zM174 408q20 0 24.5 22t4.5 86t-4.5 86t-24.5 22t-24.5 -22t-4.5 -86t4.5 -86t24.5 -22zM604 -14q-94 0 -127.5 46t-33.5 146
t33.5 146t127.5 46t127.5 -46t33.5 -146t-33.5 -146t-127.5 -46zM604 70q20 0 24.5 22t4.5 86t-4.5 86t-24.5 22t-24.5 -22t-4.5 -86t4.5 -86t24.5 -22zM956 70q20 0 24.5 22t4.5 86t-4.5 86t-24.5 22t-24.5 -22t-4.5 -86t4.5 -86t24.5 -22zM956 -14q-94 0 -127.5 46
t-33.5 146t33.5 146t127.5 46t127.5 -46t33.5 -146t-33.5 -146t-127.5 -46z" />
    <glyph glyph-name="guilsinglleft" unicode="&#x2039;" horiz-adv-x="242" 
d="M36 168v239l170 101v-168l-92 -50l92 -50v-168z" />
    <glyph glyph-name="guilsinglright" unicode="&#x203a;" horiz-adv-x="242" 
d="M206 407v-239l-170 -96v168l92 50l-92 50v168z" />
    <glyph glyph-name="fraction" unicode="&#x2044;" horiz-adv-x="167" 
d="M-167 -31l387 756h114l-387 -756h-114z" />
    <glyph glyph-name="Euro" unicode="&#x20ac;" horiz-adv-x="520" 
d="M520 665l-44 -126q-18 18 -42 28q-37 15 -79 15t-60 -20q-24 -24 -24 -72h190l-36 -108h-155v-72h136l-36 -108h-97q-2 -38 22 -63q25 -27 76 -27q32 0 68 17q34 16 63 51v-156q-28 -15 -69 -26q-49 -12 -112 -12q-115 0 -175 46q-66 52 -72 170h-80l36 108h40v72h-76
l36 108h44q5 121 72 173q55 45 185 45q77 0 125 -13q37 -11 64 -30z" />
    <glyph glyph-name="afii61289" unicode="&#x2113;" 
d="M465 56q-85 -70 -181 -70q-82 0 -127.5 42.5t-45.5 108.5v25l-54 -45h-2l-54 84l109 86v233q0 85 54 143t138 58q73 0 116.5 -42.5t43.5 -112.5q0 -77 -47 -149t-149 -154v-101q0 -33 16.5 -48t40.5 -15q36 0 88 37h2zM336 557q0 26 -9.5 44t-25.5 18q-15 0 -25 -19.5
t-10 -49.5v-157q70 71 70 164z" />
    <glyph glyph-name="trademark" unicode="&#x2122;" horiz-adv-x="1000" 
d="M829 302v268h-2l-82 -268h-102l-82 268h-2v-268h-132v412h194l72 -238h2l72 238h194v-412h-132zM111 302v304h-112v108h368v-108h-112v-304h-144z" />
    <glyph glyph-name="Omega" unicode="&#x2126;" horiz-adv-x="778" 
d="M726 416q0 -88 -45.5 -161.5t-127.5 -90.5v-19h172v-145h-302v222q63 11 94.5 60t31.5 117q0 75 -41.5 125t-115.5 50q-75 0 -119 -52.5t-44 -128.5q0 -66 31.5 -112.5t92.5 -58.5v-222h-302v145h173v19q-84 23 -128.5 91.5t-44.5 159.5q0 144 98 225t244 81
q141 0 237 -82.5t96 -222.5z" />
    <glyph glyph-name="estimated" unicode="&#x212e;" horiz-adv-x="600" 
d="M561 259h-404v-181q59 -59 145 -59q122 0 193 120l35 -21q-46 -72 -98 -103.5t-130 -31.5q-115 0 -186.5 79t-71.5 197q0 119 71 197.5t187 78.5q115 0 186.5 -77t72.5 -199zM157 295h291v145q-63 60 -147 60t-144 -60v-145z" />
    <glyph glyph-name="partialdiff" unicode="&#x2202;" horiz-adv-x="593" 
d="M391 273v21q-43 43 -95 43q-48 0 -74.5 -36t-26.5 -85q0 -46 24 -81t68 -35q29 0 51 17.5t32.5 45.5t15.5 55.5t5 54.5zM548 358q0 -71 -11.5 -131.5t-39 -117.5t-81 -90t-129.5 -33q-107 0 -174.5 65t-67.5 172q0 97 63.5 163.5t161.5 66.5q67 0 123 -41q0 32 -5.5 62.5
t-17.5 61t-37 49t-60 18.5q-58 0 -120 -58l-84 93q46 43 92.5 63t107.5 20q62 0 110.5 -20.5t79.5 -55t51.5 -82t29 -98t8.5 -107.5z" />
    <glyph glyph-name="Delta" unicode="&#x2206;" horiz-adv-x="722" 
d="M486 150l-134 386l-124 -386h258zM710 0h-698l249 712h177z" />
    <glyph glyph-name="product" unicode="&#x220f;" horiz-adv-x="759" 
d="M711 -214h-156v845h-350v-845h-157v1000h663v-1000z" />
    <glyph glyph-name="summation" unicode="&#x2211;" horiz-adv-x="704" 
d="M674 -214h-644v135l286 372l-275 356v137h621v-156h-413l251 -337l-266 -351h440v-156z" />
    <glyph glyph-name="minus" unicode="&#x2212;" horiz-adv-x="600" 
d="M47 181v144h506v-144h-506z" />
    <glyph glyph-name="uni2215" unicode="&#x2215;" horiz-adv-x="167" 
d="M-167 -31l387 756h114l-387 -756h-114z" />
    <glyph glyph-name="uni2219" unicode="&#x2219;" horiz-adv-x="260" 
d="M36 278q0 39 27.5 66.5t66.5 27.5t66.5 -27.5t27.5 -66.5t-27.5 -66.5t-66.5 -27.5t-66.5 27.5t-27.5 66.5z" />
    <glyph glyph-name="radical" unicode="&#x221a;" horiz-adv-x="611" 
d="M617 786l-225 -1000h-142l-140 286l-58 -27l-58 122l198 91l104 -232l155 760h166z" />
    <glyph glyph-name="infinity" unicode="&#x221e;" horiz-adv-x="889" 
d="M365 271q-22 32 -53.5 57t-62.5 25q-33 0 -52.5 -23.5t-19.5 -57.5q0 -35 19.5 -56.5t53.5 -21.5q62 0 115 77zM712 273q0 35 -20.5 57.5t-55.5 22.5q-57 0 -113 -82q55 -78 116 -78q35 0 54 22.5t19 57.5zM844 276q0 -96 -54 -158.5t-149 -62.5q-111 0 -197 118
q-41 -57 -85.5 -87t-105.5 -30q-96 0 -152 61.5t-56 158.5q0 95 54 154.5t149 59.5q65 0 107 -31t89 -95q44 63 87.5 94.5t109.5 31.5q95 0 149 -59.5t54 -154.5z" />
    <glyph glyph-name="integral" unicode="&#x222b;" horiz-adv-x="667" 
d="M573 684q0 -32 -20 -52.5t-52 -20.5q-33 0 -49 17t-17 37.5t-5.5 37.5t-17.5 17q-20 0 -20 -40q0 -34 4 -101t4 -101l1 -302v-32q1 -45 0.5 -69t-4 -67.5t-10.5 -69t-21.5 -58.5t-35.5 -51t-53.5 -31t-74.5 -13q-52 0 -97 26.5t-45 75.5q0 32 19.5 52.5t51.5 20.5
t48.5 -17t18 -37t6.5 -37t17 -17q20 0 20 42q0 29 -4.5 86.5t-4.5 86.5v389v49t2 48.5t5.5 52.5t11.5 46t19 46t29 36t41 32q36 20 90 20q53 0 98 -26t45 -76z" />
    <glyph glyph-name="approxequal" unicode="&#x2248;" horiz-adv-x="593" 
d="M477 253h102q-3 -49 -17.5 -95t-50 -84t-85.5 -38q-42 0 -131 30t-127 30q-46 0 -53 -52h-101q0 44 17.5 92t54 85t82.5 37q44 0 129 -29.5t129 -29.5q25 0 36 13.5t15 40.5zM477 503h102q-3 -49 -19 -95.5t-53 -83.5t-87 -37q-35 0 -124.5 30t-128.5 30q-22 0 -36 -15.5
t-16 -38.5h-101q0 47 17 95t54.5 84.5t86.5 36.5q39 0 127.5 -29.5t126.5 -29.5q46 0 51 53z" />
    <glyph glyph-name="notequal" unicode="&#x2260;" horiz-adv-x="593" 
d="M569 72h-285l-80 -163l-138 68l46 95h-89v157h167l42 87h-209v158h287l80 161l137 -68l-46 -93h88v-158h-165l-43 -87h208v-157z" />
    <glyph glyph-name="lessequal" unicode="&#x2264;" horiz-adv-x="593" 
d="M569 -53h-546v157h546v-157zM569 128l-546 164v156l546 148v-160l-326 -66l326 -81v-161z" />
    <glyph glyph-name="greaterequal" unicode="&#x2265;" horiz-adv-x="593" 
d="M569 -53h-546v157h546v-157zM569 292l-546 -164v161l327 81l-327 66v160l546 -148v-156z" />
    <glyph glyph-name="lozenge" unicode="&#x25ca;" horiz-adv-x="593" 
d="M400 356l-104 231l-105 -231l105 -231zM562 356l-196 -391h-142l-194 391l196 391h140z" />
    <glyph glyph-name="dotlessj" unicode="&#xe0d6;" horiz-adv-x="258" 
d="M226 541v-545q0 -104 -32.5 -138t-135.5 -34q-40 0 -92 4v131q24 -3 30 -3q11 0 17.5 2t12.5 11.5t6 26.5v545h194z" />
    <glyph glyph-name="grave.cap" unicode="&#xe300;" horiz-adv-x="260" 
d="M87 760l-93 144h176l36 -144h-119z" />
    <glyph glyph-name="acute.cap" unicode="&#xe301;" horiz-adv-x="260" 
d="M54 760l36 144h176l-93 -144h-119z" />
    <glyph glyph-name="circumflex.cap" unicode="&#xe302;" horiz-adv-x="260" 
d="M-31 760l57 144h206l59 -144h-132l-29 81l-35 -81h-126z" />
    <glyph glyph-name="caron.cap" unicode="&#xe303;" horiz-adv-x="260" 
d="M26 760l-57 144h126l35 -81l29 81h132l-59 -144h-206z" />
    <glyph glyph-name="tilde.cap" unicode="&#xe304;" horiz-adv-x="260" 
d="M52 768h-90q4 59 30 101.5t71 42.5q22 0 64 -18q40 -18 54 -18q10 0 16 7t7.5 12t3.5 17h90q0 -58 -30 -101t-84 -43q-30 0 -65 18t-44 18q-21 0 -23 -36z" />
    <glyph glyph-name="dieresis.cap" unicode="&#xe305;" horiz-adv-x="260" 
d="M149 760v144h144v-144h-144zM-33 760v144h144v-144h-144z" />
    <glyph glyph-name="macron.cap" unicode="&#xe306;" horiz-adv-x="260" 
d="M-33 781v102h326v-102h-326z" />
    <glyph glyph-name="breve.cap" unicode="&#xe307;" horiz-adv-x="260" 
d="M-24 908h84q0 -27 20 -44.5t48 -17.5q33 0 52.5 16.5t19.5 45.5h84q0 -72 -45 -112t-117 -40q-65 0 -105.5 40.5t-40.5 111.5z" />
    <glyph glyph-name="ring.cap" unicode="&#xe308;" horiz-adv-x="260" 
d="M72 896q0 -24 17 -41t41 -17t41 17t17 41q0 25 -17 42t-41 17t-41 -17t-17 -42zM0 897q0 55 37.5 90.5t92.5 35.5t92.5 -35.5t37.5 -90.5t-37.5 -89.5t-92.5 -34.5t-92.5 34.5t-37.5 89.5z" />
    <glyph glyph-name="hungarumlaut.cap" unicode="&#xe309;" horiz-adv-x="260" 
d="M130 760l36 144h176l-93 -144h-119zM-82 760l36 144h176l-93 -144h-119z" />
    <glyph glyph-name="dotaccent.cap" unicode="&#xe30a;" horiz-adv-x="260" 
d="M58 760v144h144v-144h-144z" />
    <glyph glyph-name="caron.alt" unicode="&#xe30b;" horiz-adv-x="260" 
d="M70 570l23 144h151l-55 -144h-119z" />
    <glyph glyph-name="commaaccent" unicode="&#xe30c;" horiz-adv-x="260" 
d="M55 -163v113h154v-93q-5 -51 -34 -72.5t-100 -24.5v46q26 3 36.5 9.5t15.5 21.5h-72z" />
    <glyph glyph-name="commaaccent.alt" unicode="&#xe30d;" horiz-adv-x="260" 
d="M208 714v-113h-154v93q5 51 34 72.5t100 24.5v-46q-26 -3 -36.5 -9.5t-15.5 -21.5h72z" />
    <glyph glyph-name="uniF8FF" unicode="&#xf8ff;" horiz-adv-x="512" 
d="M222 117h56v67h-56v-67zM225 234h46q0 52 6 72q6 19 43 52q37 34 50 60t13 60q0 59 -35 95t-89 36q-56 0 -92 -34t-43 -103l50 -8q11 95 82 95q31 0 53.5 -24.5t22.5 -60.5q0 -20 -9.5 -37t-40.5 -46q-31 -31 -46 -59q-13 -25 -13 -81zM462 50h-412v617h412v-617z
M512 718h-512v-718h512v718z" />
    </font>
</defs>
</svg>
