<?xml version="1.0" standalone="no"?><!DOCTYPE svg PUBLIC "-//W3C//DTD SVG 1.1//EN" "http://www.w3.org/Graphics/SVG/1.1/DTD/svg11.dtd"><svg t="1537433169862" class="icon" style="" viewBox="0 0 1277 1024" version="1.1" xmlns="http://www.w3.org/2000/svg" p-id="5080" xmlns:xlink="http://www.w3.org/1999/xlink" width="249.4140625" height="200"><defs><style type="text/css"></style></defs><path d="M1087.593854 0H147.730127c-80.032064 0-145.699399 65.667335-145.699399 145.699399v513.026052c0 80.032064 65.667335 145.699399 145.699399 145.699399h279.086172c10.260521 0 18.468938 4.104208 24.625251 10.260521l139.543086 141.59519c14.364729 14.364729 36.937876 14.364729 51.302605 0l139.543086-141.59519c6.156313-6.156313 16.416834-10.260521 24.625251-10.260521h279.086172c80.032064 0 145.699399-65.667335 145.699399-145.699399v-513.026052c2.052104-80.032064-63.61523-145.699399-143.647295-145.699399z m80.032065 660.777555c0 43.094188-34.885772 80.032064-80.032065 80.032064h-307.815631c-10.260521 0-18.468938 4.104208-24.62525 10.260521l-110.813628 112.865732c-14.364729 14.364729-36.937876 14.364729-51.302605 0l-110.813627-112.865732c-6.156313-6.156313-16.416834-10.260521-24.625251-10.260521h-307.815631c-43.094188 0-80.032064-34.885772-80.032064-80.032064v-513.026052c0-43.094188 34.885772-80.032064 80.032064-80.032064h939.863728c43.094188 0 80.032064 34.885772 80.032064 80.032064v513.026052zM279.064796 338.597194c-38.98998 0-69.771543 30.781563-69.771543 69.771543s30.781563 69.771543 69.771543 69.771544 69.771543-30.781563 69.771543-69.771544c0-36.937876-30.781563-69.771543-69.771543-69.771543z m677.194389 0c-38.98998 0-69.771543 30.781563-69.771543 69.771543s30.781563 69.771543 69.771543 69.771544 69.771543-30.781563 69.771543-69.771544c0-36.937876-28.729459-69.771543-69.771543-69.771543z m-338.597194 0c-38.98998 0-69.771543 30.781563-69.771543 69.771543s30.781563 69.771543 69.771543 69.771544 69.771543-30.781563 69.771543-69.771544c0-36.937876-30.781563-69.771543-69.771543-69.771543z" p-id="5081" fill="#666666"></path></svg>