<?xml version="1.0" standalone="no"?><!DOCTYPE svg PUBLIC "-//W3C//DTD SVG 1.1//EN" "http://www.w3.org/Graphics/SVG/1.1/DTD/svg11.dtd"><svg t="1537433722347" class="icon" style="" viewBox="0 0 1024 1024" version="1.1" xmlns="http://www.w3.org/2000/svg" p-id="6379" xmlns:xlink="http://www.w3.org/1999/xlink" width="200" height="200"><defs><style type="text/css"></style></defs><path d="M58.085 548.625c-19.314-0.041-34.956-15.708-34.956-35.028 0-6.195 1.607-12.013 4.429-17.061 7.153-12.99 181.097-322.635 483.307-322.635 302.022 0 478.233 309.456 485.604 322.623 2.788 4.909 4.431 10.783 4.431 17.041 0 19.322-15.663 34.986-34.986 34.986-13.065 0-24.457-7.159-30.464-17.771-1.729-2.946-164.017-286.823-424.585-286.823-261.261 0-420.462 283.689-422.037 286.524-6.11 10.895-17.584 18.139-30.75 18.144z" fill="#666666" p-id="6380"></path><path d="M510.866 853.293c-302.211 0-476.154-309.645-483.399-322.812-2.74-4.879-4.354-10.709-4.354-16.916 0-19.349 15.686-35.035 35.035-35.035 13.142 0 24.595 7.236 30.59 17.942 1.666 3.012 161.686 286.764 422.191 286.764 260.567 0 422.857-283.878 424.431-286.777 6.112-10.767 17.499-17.913 30.555-17.913 19.339 0 35.017 15.677 35.017 35.017 0 6.283-1.655 12.18-4.553 17.278-7.28 12.994-183.491 322.45-485.513 322.45z" fill="#666666" p-id="6381"></path><path d="M512 699.825c-102.773-0.107-186.058-83.392-186.165-186.155 0.107-102.784 83.392-186.068 186.155-186.175 102.784 0.107 186.068 83.392 186.175 186.155-0.107 102.784-83.392 186.068-186.155 186.175zM512 397.488c-64.131 0.073-116.1 52.041-116.172 116.165 0 64.015 52.101 116.179 116.172 116.179 64.131-0.071 116.1-52.041 116.172-116.165-0.071-64.138-52.041-116.107-116.165-116.179z" fill="#666666" p-id="6382"></path></svg>