<?xml version="1.0" standalone="no"?><!DOCTYPE svg PUBLIC "-//W3C//DTD SVG 1.1//EN" "http://www.w3.org/Graphics/SVG/1.1/DTD/svg11.dtd"><svg t="1537416890439" class="icon" style="" viewBox="0 0 1024 1024" version="1.1" xmlns="http://www.w3.org/2000/svg" p-id="5465" xmlns:xlink="http://www.w3.org/1999/xlink" width="200" height="200"><defs><style type="text/css"></style></defs><path d="M511.166005 68.115354c-244.11174 0-442.004833 197.892069-442.004833 442.004833S267.054265 952.123996 511.166005 952.123996 953.170838 754.230903 953.170838 510.119163 755.278769 68.115354 511.166005 68.115354zM511.166005 905.59631c-218.419592 0-395.477146-177.062672-395.477146-395.477146s177.057555-395.477146 395.477146-395.477146 395.477146 177.062672 395.477146 395.477146S729.58662 905.59631 511.166005 905.59631z" p-id="5466" fill="#d5231b"></path><path d="M697.27368 626.436332 534.429849 626.436332l0-93.053326 116.317169 0c12.850679 0 23.263843-10.413164 23.263843-23.263843s-10.413164-23.263843-23.263843-23.263843L544.061207 486.85532l158.856008-158.851914c9.086959-9.081843 9.086959-23.812335 0-32.899294-9.081843-9.081843-23.812335-9.081843-32.899294 0L511.166005 453.957049 352.314091 295.105135c-9.086959-9.081843-23.817452-9.081843-32.899294 0-9.086959 9.086959-9.086959 23.817452 0 32.899294l158.856008 158.851914L371.586017 486.856343c-12.850679 0-23.263843 10.413164-23.263843 23.263843s10.413164 23.263843 23.263843 23.263843l116.317169 0 0 93.053326L325.059354 626.437355c-12.850679 0-23.263843 10.412141-23.263843 23.263843s10.413164 23.263843 23.263843 23.263843l162.843832 0 0 162.843832c0 12.845563 10.413164 23.263843 23.263843 23.263843 12.850679 0 23.263843-10.417257 23.263843-23.263843L534.430872 672.962995l162.843832 0c12.850679 0 23.263843-10.413164 23.263843-23.263843S710.12436 626.436332 697.27368 626.436332z" p-id="5467" fill="#d5231b"></path></svg>