<?xml version="1.0" standalone="no"?><!DOCTYPE svg PUBLIC "-//W3C//DTD SVG 1.1//EN" "http://www.w3.org/Graphics/SVG/1.1/DTD/svg11.dtd"><svg t="1537349285956" class="icon" style="" viewBox="0 0 1024 1024" version="1.1" xmlns="http://www.w3.org/2000/svg" p-id="21344" xmlns:xlink="http://www.w3.org/1999/xlink" width="200" height="200"><defs><style type="text/css"></style></defs><path d="M1002.496 744.96L769.024 511.488 988.672 291.84c28.16-28.16 28.16-73.728 0-101.888L833.024 34.304c-28.16-28.16-73.728-28.16-101.888 0L511.488 253.952 279.04 21.504c-28.672-28.672-75.776-28.672-104.96 0L21.504 174.08c-28.672 28.672-28.672 75.776 0 104.96l232.448 232.448L102.4 663.04c-8.192 8.192-14.336 18.432-17.408 28.672-1.024 2.048-2.048 4.608-2.56 7.168L40.96 951.808v7.68c0 0.512 0 0.512 0.512 1.024 0 0.512 0.512 1.536 0.512 2.048 0.512 1.024 0.512 2.048 1.024 3.072 0 0.512 0.512 1.024 1.024 1.536 0.512 1.024 1.024 1.536 1.536 2.56l1.536 1.536c0.512 0.512 1.024 1.536 1.536 2.048s1.536 1.024 2.048 1.536l1.536 1.536c1.024 0.512 1.536 1.024 2.56 1.536 0.512 0.512 1.024 0.512 1.536 1.024 1.024 0.512 2.048 0.512 3.072 1.024 0.512 0 1.536 0.512 2.048 0.512s0.512 0 1.024 0.512h7.68l246.784-40.448c15.36-1.536 30.72-8.704 42.496-20.48l151.552-151.552 233.472 233.472c28.672 28.672 75.776 28.672 104.96 0l152.576-152.576c29.184-28.672 29.184-75.776 0.512-104.448zM767.488 70.656c8.192-8.192 21.504-8.192 29.184 0L952.32 226.304c8.192 8.192 8.192 21.504 0 29.184l-73.216 73.216-184.832-184.832 73.216-73.216zM657.92 180.224l184.832 184.832-110.08 110.08L547.84 290.304l110.08-110.08zM227.84 412.672l99.84-99.84c8.704-8.704 8.704-23.04 0-31.744s-23.04-8.704-31.744 0l-100.352 99.84-49.152-49.152 99.84-99.84c8.704-8.704 8.704-23.04 0-31.744s-23.04-8.704-31.744 0l-99.84 99.328-56.832-56.832c-8.704-8.704-8.704-23.552 0-32.256L210.432 57.856c8.704-8.704 23.552-8.704 32.256 0l232.448 232.448-184.832 184.832-62.464-62.464z m-130.048 512l23.04-141.824 118.784 118.784-141.824 23.04z m226.304-40.448c-2.56 2.56-6.144 4.608-9.728 5.12l-3.072 0.512c-6.144 0.512-11.776-1.536-16.384-6.144L139.264 728.064c-8.192-8.192-8.192-21.504 0-29.184l151.04-151.04 184.832 184.832-151.04 151.552z m2.56-372.736l184.832-184.832L696.32 511.488 511.488 696.32 326.656 511.488z m639.488 302.08L813.568 966.144c-8.704 8.704-23.552 8.704-32.256 0l-58.368-58.368 99.84-99.84c8.704-8.704 8.704-23.04 0-31.744s-23.04-8.704-31.744 0l-99.84 99.84-49.152-49.152 99.84-99.84c8.704-8.704 8.704-23.04 0-31.744s-23.04-8.704-31.744 0l-99.84 99.84-62.464-62.464L732.672 547.84l233.472 233.472c8.704 8.704 8.704 23.04 0 32.256z" p-id="21345" fill="#d5231b"></path></svg>