<?xml version="1.0" standalone="no"?><!DOCTYPE svg PUBLIC "-//W3C//DTD SVG 1.1//EN" "http://www.w3.org/Graphics/SVG/1.1/DTD/svg11.dtd"><svg t="1537425788314" class="icon" style="" viewBox="0 0 1024 1024" version="1.1" xmlns="http://www.w3.org/2000/svg" p-id="1659" xmlns:xlink="http://www.w3.org/1999/xlink" width="200" height="200"><defs><style type="text/css"></style></defs><path d="M511.166 68.115c-244.112 0-442.005 197.892-442.005 442.005s197.893 442.004 442.005 442.004 442.005-197.893 442.005-442.005S755.279 68.115 511.166 68.115z m0 837.481c-218.42 0-395.477-177.062-395.477-395.477s177.057-395.477 395.477-395.477 395.477 177.063 395.477 395.477-177.056 395.477-395.477 395.477z" p-id="1660" fill="#ffffff"></path><path d="M697.274 626.436H534.43v-93.053h116.317c12.85 0 23.264-10.413 23.264-23.264s-10.413-23.264-23.264-23.264H544.061l158.856-158.852c9.087-9.081 9.087-23.812 0-32.899-9.082-9.082-23.812-9.082-32.9 0L511.167 453.957 352.314 295.105c-9.087-9.082-23.817-9.082-32.9 0-9.086 9.087-9.086 23.818 0 32.9l158.857 158.851H371.586c-12.85 0-23.264 10.414-23.264 23.264s10.413 23.264 23.264 23.264h116.317v93.053H325.06c-12.85 0-23.263 10.412-23.263 23.264s10.413 23.264 23.263 23.264h162.844v162.844c0 12.845 10.413 23.264 23.264 23.264 12.85 0 23.264-10.418 23.264-23.264V672.963h162.844c12.85 0 23.264-10.413 23.264-23.264s-10.415-23.263-23.265-23.263z" p-id="1661" fill="#ffffff"></path></svg>