<?xml version="1.0" standalone="no"?><!DOCTYPE svg PUBLIC "-//W3C//DTD SVG 1.1//EN" "http://www.w3.org/Graphics/SVG/1.1/DTD/svg11.dtd"><svg t="1537423042185" class="icon" style="" viewBox="0 0 1024 1024" version="1.1" xmlns="http://www.w3.org/2000/svg" p-id="22275" xmlns:xlink="http://www.w3.org/1999/xlink" width="200" height="200"><defs><style type="text/css"></style></defs><path d="M1018.439292 739.818873a170.633677 170.633677 0 0 0-69.716045-97.504958A441.697462 441.697462 0 0 0 684.972334 170.633677a170.633677 170.633677 0 1 0-341.267355 0A441.941225 441.941225 0 0 0 80.685353 638.413716a170.633677 170.633677 0 0 0-74.347531 101.405157A173.071301 173.071301 0 0 0 24.37624 870.71928a170.633677 170.633677 0 0 0 146.257437 86.291888 167.221004 167.221004 0 0 0 82.147928-21.694853 430.728154 430.728154 0 0 0 521.651528 1.462574 167.221004 167.221004 0 0 0 78.979017 20.232279 170.633677 170.633677 0 0 0 147.720012-86.291888 173.071301 173.071301 0 0 0 17.30713-130.900407z m-79.466541 94.336048a97.504959 97.504959 0 0 1-59.478025 46.314855 101.648919 101.648919 0 0 1-75.078818-9.994258 97.504959 97.504959 0 0 1-30.957824-28.763963 98.967533 98.967533 0 0 1-5.119011-106.76793 97.504959 97.504959 0 0 1 85.073077-48.752479 95.798622 95.798622 0 0 1 11.700595 0 97.504959 97.504959 0 0 1 37.295647 12.675645 97.504959 97.504959 0 0 1 27.057626 24.376239 99.455058 99.455058 0 0 1 9.019208 112.130703zM514.826181 73.128719A97.504959 97.504959 0 0 1 609.405991 146.257438a99.211295 99.211295 0 0 1 3.900198 26.082576A98.967533 98.967533 0 0 1 600.630545 219.386157a97.504959 97.504959 0 0 1-170.633678 0 98.967533 98.967533 0 0 1-12.431882-47.289905A99.211295 99.211295 0 0 1 420.733896 146.257438a97.504959 97.504959 0 0 1 94.092285-73.128719zM193.30358 880.469776a96.042384 96.042384 0 0 1-48.752479 0 97.504959 97.504959 0 0 1-59.478025-46.314855 99.69882 99.69882 0 0 1-9.750496-75.322581A104.574068 104.574068 0 0 1 121.881198 698.623028a97.504959 97.504959 0 0 1 42.414657-12.919407h6.581585a97.504959 97.504959 0 0 1 85.073076 48.752479 97.504959 97.504959 0 0 1-2.925149 103.355256A97.504959 97.504959 0 0 1 219.386157 870.475518a97.504959 97.504959 0 0 1-26.082577 9.994258zM514.826181 950.673346a361.012109 361.012109 0 0 1-206.46675-64.840797 173.802589 173.802589 0 0 0 9.750496-187.453283 169.414866 169.414866 0 0 0-167.708528-85.073077c0-10.969308-1.706337-22.182378-1.706337-33.395448A371.25013 371.25013 0 0 1 360.280822 243.762396a169.171103 169.171103 0 0 0 309.334481 0 371.25013 371.25013 0 0 1 211.58576 335.66082c0 11.456833 0 22.913665-1.706337 34.370498A169.171103 169.171103 0 0 0 706.91095 698.379266a174.290113 174.290113 0 0 0 11.456832 189.890907A360.768347 360.768347 0 0 1 514.826181 950.673346z" p-id="22276" fill="#d5231b"></path></svg>