<?xml version="1.0" standalone="no"?><!DOCTYPE svg PUBLIC "-//W3C//DTD SVG 1.1//EN" "http://www.w3.org/Graphics/SVG/1.1/DTD/svg11.dtd"><svg t="1537349550423" class="icon" style="" viewBox="0 0 1024 1024" version="1.1" xmlns="http://www.w3.org/2000/svg" p-id="25669" xmlns:xlink="http://www.w3.org/1999/xlink" width="200" height="200"><defs><style type="text/css"></style></defs><path d="M906.752 117.248h-22.272V60.672A59.648 59.648 0 0 0 825.088 0H267.52a59.648 59.648 0 0 0-59.648 60.672v57.6c-76.8 3.328-114.432 11.52-114.432 74.496v160.512a88.064 88.064 0 0 0 93.952 86.784h283.136c23.808 0 35.072 19.456 35.072 43.264v125.696h-34.048a25.6 25.6 0 0 0-25.6 25.6v360.96a27.136 27.136 0 0 0 25.6 27.392h133.632a30.976 30.976 0 0 0 28.416-28.416V634.368a25.6 25.6 0 0 0-25.6-25.6h-36.352v-138.752a93.952 93.952 0 0 0-92.928-93.952h-281.6A40.704 40.704 0 0 1 156.672 332.8V203.008c0-23.808 25.6-20.736 51.2-20.736v56.32c0 32.768 16.64 62.72 49.408 62.72h578.048c32.768 0 49.408-29.696 49.408-62.72V181.248h22.272c14.08 0 25.6-18.432 25.6-32.512s-12.288-31.488-25.6-31.488zM569.6 959.744h-62.464V672h62.464v287.744zM281.6 237.312a8.96 8.96 0 0 1-8.96-8.96v-153.6a8.96 8.96 0 0 1 8.96-9.728h530.176a8.96 8.96 0 0 1 8.96 8.96v153.6a8.96 8.96 0 0 1-8.96 8.96z" fill="#d5231b" p-id="25670"></path></svg>