<?xml version="1.0" standalone="no"?><!DOCTYPE svg PUBLIC "-//W3C//DTD SVG 1.1//EN" "http://www.w3.org/Graphics/SVG/1.1/DTD/svg11.dtd"><svg t="1537349877487" class="icon" style="" viewBox="0 0 1024 1024" version="1.1" xmlns="http://www.w3.org/2000/svg" p-id="29912" xmlns:xlink="http://www.w3.org/1999/xlink" width="200" height="200"><defs><style type="text/css"></style></defs><path d="M949.40182 673.543893a94.387469 94.387469 0 0 1-44.708332 57.857843 94.488619 94.488619 0 0 1-59.353419 20.91639c-1.156001 0-2.312002-0.13005-3.431877-0.368475-35.727651 157.635165-166.117322 264.825344-336.100022 264.825344-170.3006 0-300.67582-106.937303-336.591321-264.464094a94.329669 94.329669 0 0 1-49.130036-14.139335c-28.184746-10.187257-51.160262-33.5168-59.454569-64.627673-11.227658-41.883356 4.118253-71.744303 23.698018-91.511917a641.69607 641.69607 0 0 1-0.2312-34.983475c-2.586552-129.558795 35.994976-238.916475 111.575756-316.267382 36.031101-36.876427 79.807408-65.169548 130.042871-84.453087C333.506244 76.122656 409.534975 20.84414 501.848868 20.84414c92.364468 0 168.393198 55.27129 176.188979 125.483892 50.192112 19.290764 94.026219 47.57666 130.035645 84.453087 75.55188 77.350907 114.090059 186.918112 111.539632 316.888732a650.972977 650.972977 0 0 1-0.0578 28.618246c22.318041 19.500289 42.208481 51.066337 29.839271 97.270246l0.007225-0.01445zM501.870543 52.836464c-68.789275 0-126.524293 35.026826-141.263304 81.83041 42.916531-12.289734 89.828491-18.553814 140.035053-18.553814h2.456501c50.177662 0 97.125746 6.271305 140.056728 18.553814-14.739011-46.803584-72.510153-81.83041-141.284978-81.83041zM869.038087 547.655401c2.362577-116.857236-31.197573-213.932407-97.111297-281.356156-63.536697-65.068398-156.52974-99.459423-268.842447-99.459423l0.303451 18.785014h-1.300501l-0.30345-18.756114-1.156001-0.0289c-112.312707 0-205.27685 34.434375-268.842447 99.459423-65.870373 67.452649-99.466648 164.49892-97.104071 280.734806 0 1.286051-0.036125 2.579327-0.036125 3.836477 23.900318-6.33633 41.666606 11.921259 44.253157 13.713061 89.561166-29.817597 128.612319-125.028717 129.03137-126.018543a15.923912 15.923912 0 0 1 20.71409-8.893981 15.996162 15.996162 0 0 1 8.901206 20.74299c-1.820701 4.631228-43.653482 107.363579-144.456756 143.141805-1.293276 20.87304-2.485402 42.670881-2.254201 50.423312l0.33235 18.091413c0 190.133239 129.13252 322.726536 313.98428 322.726536h1.235476c144.073831 0 254.435786-81.071784 295.726691-207.155351a354.581585 354.581585 0 0 1-15.981711 17.621787c-34.6728 35.619276-76.028731 63.334396-122.96959 82.365061-32.909899 13.29401-67.965625 22.115741-104.748127 26.356819-4.074903 16.299612-25.135793 28.784421-50.705087 28.784421-28.509871 0-51.651563-15.439836-51.651563-34.5283 0-19.066789 23.141692-34.5861 51.651563-34.5861 20.12164 0 37.411077 7.774106 45.914908 19.037889 114.003358-12.528159 206.057151-70.812277 261.537967-159.687067 3.092302-20.06384 4.638453-40.34443 4.616778-60.65392l0.065025-2.810527a14.551161 14.551161 0 0 1-1.452226-1.676201c-43.169407-56.159966-106.503803-69.612926-173.530177-83.860637-33.430099-7.080505-67.9873-14.421111-101.728074-27.274395-122.26154-46.514584-187.170987-153.842038-189.858689-158.357666a16.039512 16.039512 0 0 1 5.505454-21.949566 15.945587 15.945587 0 0 1 21.848416 5.505454c0.628575 1.033176 62.214521 102.407225 173.826402 144.868582 31.414323 11.950159 64.764947 19.037889 97.002921 25.894418 61.62207 13.098935 125.108192 26.573569 173.739702 74.692105a19.796514 19.796514 0 0 1 1.589502-1.524476c0.932026-15.439836 1.864051-27.75847 2.709377-32.425824 0.0867-0.62135 0.209525-1.228251 0.354025-1.849601-0.289-1.242701 5.476554-31.255373 39.195654-31.255373l-0.007225-2.673252zM425.769562 635.179115l-43.386157 21.703916 43.386157 21.805066c-8.626656 22.296366-30.012672 38.198603-55.307416 38.198603-33.061624 0-59.786919-26.855345-59.786918-60.003669 0-33.061624 26.725295-59.888069 59.786918-59.888069 25.301969-0.007225 46.673534 15.786637 55.307416 38.184153z m223.397163-37.945728c25.229718 0 46.695209 15.829987 55.336316 38.140803l-43.494532 21.776166 43.494532 21.747266c-8.641106 22.339716-30.113822 38.213053-55.336316 38.213053-33.068849 0-59.786919-26.826445-59.786918-59.960319-0.007225-33.090524 26.710845-59.916969 59.786918-59.916969z" fill="#d5231b" p-id="29913"></path></svg>