<?xml version="1.0" standalone="no"?><!DOCTYPE svg PUBLIC "-//W3C//DTD SVG 1.1//EN" "http://www.w3.org/Graphics/SVG/1.1/DTD/svg11.dtd"><svg t="1537423390595" class="icon" style="" viewBox="0 0 1026 1024" version="1.1" xmlns="http://www.w3.org/2000/svg" p-id="23050" xmlns:xlink="http://www.w3.org/1999/xlink" width="200.390625" height="200"><defs><style type="text/css"></style></defs><path d="M513.310236 942.916535l-9.282519-3.577952c-298.119055-115.230236-332.598425-265.846929-332.598426-369.113701V175.803465l26.617953 0.917165c207.228976 7.055118 295.468346-86.475591 296.314961-87.382677L513.340472 68.535433l18.968189 20.762205c0.695433 0.745827 84.31874 87.755591 274.141733 87.75559 7.216378 0 14.604094-0.110866 22.082519-0.372913l26.617953-0.917165v394.451653c0 103.266772-34.47937 253.883465-332.598425 369.113701zM222.891339 228.555591v341.669291c0 55.533858 0 202.15937 290.418897 317.480315 290.418898-115.331024 290.418898-261.956535 290.418898-317.480315v-341.669291c-160.806299-0.614803-253.339213-57.851969-290.418898-87.453229-37.099843 29.540787-129.632756 86.737638-290.418897 87.412914z m0 0" p-id="23051" fill="#ffffff"></path><path d="M444.603465 323.59811a496.47874 496.47874 0 0 1-37.674331 89.035591v292.817638H365.858268V475.99874a588.205354 588.205354 0 0 1-39.811024 46.654488l-13.273701-43.237795q62.921575-74.491969 93.319055-173.354331z m225.169133 3.426772v142.110236h-83.905511v37.674331h119.866456v39.377638H622.261417c22.253858 38.531024 52.651339 72.345197 91.60567 101.462677L687.370079 683.187402c-39.387717-36.817638-71.92189-82.192126-98.035906-136.990237h-3.426771v158.397481h-40.274646V546.197165h-3.850079q-40.456063 87.977323-100.172598 137.413544l-23.12063-36.807559c36.817638-25.690709 66.781732-59.081575 90.708661-100.605985h-79.148346v-39.377637h115.582992v-37.674331H462.614173v-142.110236z m-40.23433 38.954331H502.818268v64.211653h126.72z" p-id="23052" fill="#ffffff"></path></svg>