<?xml version="1.0" standalone="no"?><!DOCTYPE svg PUBLIC "-//W3C//DTD SVG 1.1//EN" "http://www.w3.org/Graphics/SVG/1.1/DTD/svg11.dtd"><svg t="1537425696915" class="icon" style="" viewBox="0 0 1024 1024" version="1.1" xmlns="http://www.w3.org/2000/svg" p-id="27638" xmlns:xlink="http://www.w3.org/1999/xlink" width="200" height="200"><defs><style type="text/css"></style></defs><path d="M378.858667 107.605333c0-17.002667 13.909333-30.912 30.912-30.912h504c17.002667 0 30.912 13.909333 30.912 30.912v28.992c0 17.002667-13.909333 30.912-30.912 30.912H409.770667a30.997333 30.997333 0 0 1-30.912-30.912V107.605333zM378.858667 230.592c0-17.002667 13.909333-30.912 30.912-30.912h437.44c17.002667 0 30.912 13.909333 30.912 30.912v30.912c0 17.002667-13.909333 30.912-30.912 30.912H409.770667a30.997333 30.997333 0 0 1-30.912-30.912v-30.912zM378.858667 434.069333c0-17.002667 13.909333-30.912 30.912-30.912h504c17.002667 0 30.912 13.909333 30.912 30.912v28.501334c0 17.002667-13.909333 30.912-30.912 30.912H409.770667a30.997333 30.997333 0 0 1-30.912-30.912v-28.501334zM378.858667 557.76c0-17.002667 13.909333-30.912 30.912-30.912h437.44c17.002667 0 30.912 13.909333 30.912 30.912v28.992c0 17.002667-13.909333 30.912-30.912 30.912H409.770667a30.997333 30.997333 0 0 1-30.912-30.912v-28.992zM378.858667 756.992c0-17.002667 13.909333-30.912 30.912-30.912h504c17.002667 0 30.912 13.909333 30.912 30.912v30.912c0 17.002667-13.909333 30.912-30.912 30.912H409.770667a30.997333 30.997333 0 0 1-30.912-30.912v-30.912zM378.858667 881.642667c0-17.002667 13.909333-30.912 30.912-30.912h437.44c17.002667 0 30.912 13.909333 30.912 30.912v29.504c0 17.002667-13.909333 30.912-30.912 30.912H409.770667a30.997333 30.997333 0 0 1-30.912-30.912v-29.504zM258.026667 727.210667H115.178667c-19.754667 0-35.84 16.106667-35.84 35.818666v143.530667c0 19.776 16.106667 35.84 35.84 35.84h142.848c19.754667 0 35.84-16.106667 35.84-35.84v-143.530667c0-19.754667-16.106667-35.818667-35.84-35.818666zM255.850667 76.714667H114.752c-19.498667 0-35.413333 15.957333-35.413333 35.456v141.738666c0 19.541333 15.914667 35.413333 35.413333 35.413334h141.12c19.498667 0 35.413333-15.914667 35.413333-35.413334V112.149333c0-19.498667-15.936-35.434667-35.434666-35.434666zM250.112 412.010667H113.6c-18.88 0-34.282667 15.36-34.282667 34.24v137.130666c0 18.922667 15.381333 34.282667 34.282667 34.282667h136.512c18.88 0 34.282667-15.36 34.282667-34.282667v-137.130666a34.346667 34.346667 0 0 0-34.282667-34.24z" fill="#ffffff" p-id="27639"></path></svg>