<?xml version="1.0" standalone="no"?><!DOCTYPE svg PUBLIC "-//W3C//DTD SVG 1.1//EN" "http://www.w3.org/Graphics/SVG/1.1/DTD/svg11.dtd"><svg t="1537513565939" class="icon" style="" viewBox="0 0 1025 1024" version="1.1" xmlns="http://www.w3.org/2000/svg" p-id="7132" xmlns:xlink="http://www.w3.org/1999/xlink" width="200.1953125" height="200"><defs><style type="text/css"></style></defs><path d="M441.484 882.95C198.048 882.95 0 684.902 0 441.474 0 198.048 198.048 0 441.484 0 684.92 0 882.978 198.048 882.978 441.475 882.978 684.9 684.92 882.95 441.484 882.95M441.484 108.665c-183.52 0-332.815 149.3-332.815 332.811s149.296 332.811 332.815 332.811c183.519 0 332.823-149.301 332.823-332.811S625.003 108.665 441.484 108.665M957.125 1023.956c-17.12 0-34.229-6.531-47.29-19.583L679.182 773.737c-26.114-26.114-26.114-68.456 0-94.574 26.124-26.106 68.459-26.106 94.58 0l230.652 230.635c26.115 26.113 26.115 68.456 0 94.575C991.351 1017.425 974.242 1023.956 957.125 1023.956" p-id="7133" fill="#666666"></path></svg>