<?xml version="1.0" standalone="no"?><!DOCTYPE svg PUBLIC "-//W3C//DTD SVG 1.1//EN" "http://www.w3.org/Graphics/SVG/1.1/DTD/svg11.dtd"><svg t="1537346691262" class="icon" style="" viewBox="0 0 1024 1024" version="1.1" xmlns="http://www.w3.org/2000/svg" p-id="20584" xmlns:xlink="http://www.w3.org/1999/xlink" width="200" height="200"><defs><style type="text/css"></style></defs><path d="M716.696377 670.727044l-63.490818-41.270563 50.856972-56.186158c44.991805-49.570617 69.789875-113.071644 69.789875-178.828897 0-148.34432-120.764252-269.047317-269.159618-269.047317-148.374948 0-269.083049 120.702997-269.083049 269.047317 0 65.721521 24.782756 129.248071 69.764352 178.864629l50.872286 56.165739-63.541864 41.255249c-110.948137 72.189029-177.19543 193.428007-177.19543 324.335068 0 15.921198 12.904389 28.886842 28.794959 28.886842 15.936512 0 28.917469-12.965644 28.917469-28.886842 0-182.820682 148.696536-331.55295 331.476381-331.55295 182.825786 0 331.568264 148.732269 331.568264 331.55295 0 15.921198 12.960539 28.886842 28.891946 28.886842 15.870152 0 28.78475-12.965644 28.78475-28.886842C893.942853 864.149947 827.68535 742.910969 716.696377 670.727044zM293.276226 394.487368c0-116.563179 94.848278-211.391039 211.421667-211.391039 116.578493 0 211.431876 94.822755 211.431876 211.391039 0 116.588702-94.853383 211.447189-211.431876 211.447189C388.124504 605.934558 293.276226 511.07607 293.276226 394.487368z" p-id="20585" fill="#d5231b"></path><path d="M881.492772 276.729716c-54.205579-152.70874-202.177265-262.38073-376.774461-262.38073-174.566569 0-322.568882 109.671991-376.78467 262.38073-38.529401 21.097246-64.583199 61.408147-64.583199 107.696517 0 68.115571 56.456701 123.362485 126.103647 123.362485L189.454089 261.063747c-3.450699 0-6.865666 0.142928-10.260214 0.403262C235.140117 140.034057 359.722598 55.456202 504.718311 55.456202c145.000818 0 269.578194 84.577855 325.524436 206.010807-3.379235-0.260334-6.809515-0.403262-10.270423-0.403262l0 246.724971c69.611214 0 126.108752-55.24181 126.108752-123.362485C946.08618 338.153177 920.017068 297.867799 881.492772 276.729716z" p-id="20586" fill="#d5231b"></path></svg>