<?xml version="1.0" standalone="no"?><!DOCTYPE svg PUBLIC "-//W3C//DTD SVG 1.1//EN" "http://www.w3.org/Graphics/SVG/1.1/DTD/svg11.dtd"><svg t="1539137942597" class="icon" style="" viewBox="0 0 1024 1024" version="1.1" xmlns="http://www.w3.org/2000/svg" p-id="2059" xmlns:xlink="http://www.w3.org/1999/xlink" width="200" height="200"><defs><style type="text/css"></style></defs><path d="M811.465442 605.230358 536.99937 328.962244c-6.080485-6.112208-14.595416-9.597589-24.99937-9.597589s-17.643845 4.140297-23.072485 9.568936l-279.209096 277.956569c-11.952216 11.919471-11.979846 31.267121-0.032746 43.214221 14.645558 14.645558 37.255509 5.988388 43.246967 0.060375l228.508367-227.378637 0 397.491013c0 16.899902 13.690814 30.563086 30.558993 30.563086 16.872273 0 30.563086-13.667278 30.563086-30.563086L542.563086 421.286975l225.567385 227.034806c5.959735 5.991458 13.846356 9.017374 21.665439 9.017374 7.826246 0 15.589047-2.969635 21.548782-8.893554C823.353191 636.554784 823.384913 617.178481 811.465442 605.230358L811.465442 605.230358 811.465442 605.230358zM848.172459 234.276744 175.835727 234.276744c-16.872273 0-30.563086-13.690814-30.563086-30.5549 0-16.872273 13.690814-30.563086 30.563086-30.563086l672.336732 0c16.895809 0 30.5549 13.690814 30.5549 30.563086C878.727359 220.585931 865.068268 234.276744 848.172459 234.276744L848.172459 234.276744 848.172459 234.276744zM848.172459 234.276744" p-id="2060" fill="#ffffff"></path></svg>