<?xml version="1.0" standalone="no"?>
<!DOCTYPE svg PUBLIC "-//W3C//DTD SVG 1.1//EN" "http://www.w3.org/Graphics/SVG/1.1/DTD/svg11.dtd" >
<svg xmlns="http://www.w3.org/2000/svg">
<metadata></metadata>
<defs>
<font id="李浩然regular" horiz-adv-x="1621" >
<font-face units-per-em="2048" ascent="1638" descent="-410" />
<missing-glyph horiz-adv-x="508" />
<glyph horiz-adv-x="0" />
<glyph unicode="&#xd;" horiz-adv-x="508" />
<glyph unicode=" "  horiz-adv-x="508" />
<glyph unicode="&#x09;" horiz-adv-x="508" />
<glyph unicode="&#xa0;" horiz-adv-x="508" />
<glyph unicode="#" horiz-adv-x="1635" d="M100 720q0 269 196 489q228 224 499 224h43q267 0 494 -216l82 -102q119 -191 119 -377v-40q0 -198 -129 -393q-82 -113 -191 -186q-190 -119 -385 -119h-23q-321 7 -390 189l-5 47q0 57 48 124q-33 56 -33 77q13 196 174 499q81 139 194 271q40 45 146 45h20 q47 0 47 -55q0 -84 -57 -194q-30 -39 -89 -39q-51 -21 -114 -149q-80 -165 -80 -231q0 -24 40 -72v-10q-44 -145 -147 -209l-12 -2h-2q-19 0 -48 24q-24 -33 -24 -64v-10q0 -128 250 -171l92 -5q255 0 457 188q196 203 196 465q0 296 -243 506q-182 144 -400 144h-17 q-280 0 -487 -228q-156 -190 -156 -427q0 -221 173 -440v-5l-32 -7q-55 0 -154 189q-52 126 -52 270zM582 268q114 93 139 182q4 0 15 42h5q69 -43 69 -80q0 -80 -104 -171q-28 -13 -42 -13q-30 0 -82 40zM959 954v7q80 107 80 246v12h2q100 -27 100 -99v-2q0 -96 -67 -174 q-15 -10 -28 -10q-23 0 -87 20z" />
<glyph unicode="$" horiz-adv-x="1320" d="M100 613q0 50 72 58h413v2l-2 107h-418q-65 6 -65 55q0 51 72 58h271v3q-324 404 -324 410q-7 12 -10 42q8 77 68 77q44 0 106 -89l376 -443q435 516 448 527q20 12 28 12h14q46 0 62 -47l5 -21v-23q0 -37 -60 -102l-274 -346h227q100 0 100 -53v-9q0 -44 -63 -51h-422 v-109h385q100 0 100 -54v-9q0 -44 -63 -51h-422l2 -302v-162q0 -70 -62 -93h-16q-36 0 -61 70l-2 34v453h-427q-58 10 -58 56z" />
<glyph unicode="*" horiz-adv-x="1774" d="M100 680q0 24 53 68q665 670 671 670q30 15 44 15h22q51 0 123 -86q647 -643 647 -649l2 -11v-11q0 -32 -41 -40q-24 0 -73 57l-19 18v-588q0 -90 -77 -119l-27 -4h-1099q-26 0 -64 31q-33 34 -33 85v588q-66 -68 -79 -68h-6q-44 9 -44 44zM315 114q0 -28 24 -28h261v417 q0 81 82 111l54 5h286q103 0 127 -73q6 0 9 -46v-414h261q24 0 24 39v672q-547 550 -553 550h-9q-15 0 -90 -81l-476 -476v-676zM686 86h386v417q0 28 -26 28h-338q-18 0 -22 -24v-421z" />
<glyph unicode="." horiz-adv-x="1241" d="M100 504v28q0 202 168 369q158 136 349 136q238 0 405 -194q115 -147 115 -326q0 -225 -179 -390q-152 -127 -326 -127h-28q-214 0 -385 185q-119 154 -119 319zM100 1133v225q0 50 56 71l15 4h896q40 0 67 -56l3 -37v-191q0 -91 -80 -141q-56 -53 -76 -53q-41 7 -41 41 q0 27 56 64q59 45 59 71v222h-237v-239q-4 -47 -41 -47q-36 0 -41 47v239h-226v-235q0 -39 -29 -49l-12 -2q-41 8 -41 39v247h-248v-209q0 -44 64 -84q52 -42 52 -58v-9q0 -31 -41 -38q-18 0 -84 58q-71 58 -71 120zM180 517q0 -208 176 -349q120 -88 263 -88q219 0 364 194 q72 115 72 243v5q0 216 -194 361q-113 72 -246 72q-207 0 -349 -177q-86 -119 -86 -261zM274 601q0 45 48 63q7 4 21 4h160q4 3 60 175q22 32 54 32h7q51 0 73 -104l34 -103h155q50 0 70 -45l4 -22q0 -44 -67 -80l-91 -69q56 -166 56 -181v-8q0 -36 -47 -54l-15 -2 q-30 0 -91 50l-86 62q-147 -106 -153 -106q-8 -4 -21 -4h-9q-43 0 -58 58v5q0 8 58 181q-122 85 -153 114q-8 16 -9 34zM391 586l138 -103l-52 -166q138 101 142 101h2l136 -99h2v2l-53 162q131 97 140 101v2h-171q-4 1 -56 166h-2q-51 -166 -56 -166h-170z" />
<glyph unicode="&#x3e;" horiz-adv-x="1019" d="M100 1351v11q0 27 62 68l15 3q30 0 79 -54q648 -624 658 -641l3 -17v-17q0 -24 -76 -88q-590 -576 -636 -613l-14 -3h-17q-26 0 -68 57l-3 17v5q0 30 91 105l544 531q-553 531 -632 613z" />
<glyph unicode="?" horiz-adv-x="1630" d="M100 697v39q0 254 196 475q226 222 506 222h34q254 0 477 -198q220 -225 220 -512v-13q0 -300 -237 -527q-214 -183 -467 -183h-25q-278 0 -501 215q-118 129 -165 265q-38 120 -38 217zM166 714q0 -298 247 -509q185 -139 406 -139q271 0 475 209q173 196 173 442 q0 273 -209 477q-193 173 -446 173q-289 0 -501 -239q-145 -188 -145 -414zM652 757q6 47 32 47q68 30 120 30q81 0 111 -62l4 -34q0 -54 -53 -220l-7 -55v-2q0 -37 45 -37h11q13 0 55 11q-5 -47 -28 -47q-69 -30 -111 -30h-17q-89 0 -111 77l-2 21q0 39 60 243l2 26 q0 43 -49 43h-2q-20 0 -58 -13zM795 987v9q0 55 73 79l19 2q94 -14 94 -88q0 -47 -56 -74q-10 -7 -38 -9q-92 15 -92 81z" />
<glyph unicode="@" horiz-adv-x="1612" d="M100 160v324q0 87 101 140q30 10 59 10h310q107 0 154 -113q6 -23 6 -46v-313q0 -106 -111 -151q-23 -9 -53 -9h-300q-124 0 -164 129zM100 888v328q0 90 101 140q26 14 94 14h240q137 0 175 -88q20 -30 20 -72v-315q0 -98 -101 -147q-26 -13 -94 -13h-240 q-135 0 -177 88q-18 35 -18 65zM205 179q0 -67 46 -67h322q50 5 50 43v329q-9 43 -44 43h-328q-46 0 -46 -65v-283zM205 912q0 -43 20 -59q19 -9 39 -9h304q47 0 55 42v330q0 46 -66 46h-284q-47 0 -61 -24q-7 -19 -7 -43v-283zM761 1052q0 84 92 158q201 208 216 208 q35 15 61 15h22q72 0 156 -101q194 -188 194 -203q18 -35 18 -66v-19q0 -73 -99 -156q-192 -201 -216 -201q-30 -13 -66 -13q-83 0 -175 111q-190 183 -190 204q-9 25 -13 63zM826 153v328q0 94 110 145l41 6h328q88 0 140 -100q11 -29 11 -57v-315q0 -105 -111 -151 q-25 -9 -77 -9h-254q-126 0 -168 85q-20 33 -20 68zM868 1050q0 -24 66 -81q180 -186 190 -186l17 -4q30 0 97 76q175 171 175 180l4 20q0 26 -59 76q-192 197 -201 197l-16 2q-29 0 -83 -63q-185 -180 -188 -195l-2 -13v-9zM931 177q0 -68 55 -68h311q52 5 52 44v328 q-8 44 -44 44h-330q-44 -7 -44 -57v-291z" />
<glyph unicode="E" horiz-adv-x="1602" d="M100 4v940q0 5 281 99q330 119 370 128h2q165 -95 170 -103v-212q0 -4 -38 -20q-144 -77 -211 -210h-4v427h-2l-482 -153v-896l-4 -4h-78zM276 6v130q0 7 146 13q0 3 160 12l2 -2v-153l-4 -4h-300zM276 230v126q0 5 155 27l151 25l2 -2v-146q0 -5 -159 -17l-147 -15z M276 456v128q0 4 161 42l145 38l2 -2v-147q0 -5 -111 -23l-195 -38zM276 683v134q0 5 306 104l2 -2v-151q0 -7 -82 -25l-224 -62zM487 1145v55q0 4 283 103q294 110 360 131l191 -163v-423l-4 -4q-96 46 -208 46h-29l-10 -2l-1 2v442l-580 -189zM670 8v162h2q28 -50 79 -109 l61 -55v-2h-138zM716 396v4q0 188 161 316q107 76 236 76q187 0 315 -162q75 -108 75 -218v-29q0 -129 -101 -249q-62 -64 -131 -96q-82 -32 -145 -32h-33q-136 0 -260 113q-117 121 -117 277zM875 201q0 -37 48 -42q36 0 44 36q25 55 29 56h222q39 -75 50 -84q13 -8 23 -8 h3q37 0 50 36v10q0 22 -57 153q-109 273 -129 304q-21 19 -45 19h-10q-52 0 -71 -72q-136 -329 -157 -400v-8zM1028 337l77 237h2l82 -239l-2 -2h-155z" />
<glyph unicode="J" horiz-adv-x="1630" d="M100 697v33q0 290 234 518q216 185 472 185h21q308 0 541 -256q165 -210 165 -447v-27q0 -281 -219 -503q-217 -200 -484 -200h-27q-296 0 -527 243q-176 217 -176 454zM180 710q0 -299 259 -508q176 -122 371 -122h13q299 0 508 259q122 178 122 367v21q0 267 -220 472 q-186 154 -412 154h-9q-249 0 -443 -183q-189 -197 -189 -443v-17zM513 378v677q0 91 95 124l39 4h345q95 0 131 -89l4 -32v-691q0 -83 -98 -117q-18 -4 -47 -4h-322q-106 0 -141 82q-6 23 -6 46zM595 421h449v591h-449v-591zM741 1099q3 -18 19 -18h117q22 0 22 18 q0 13 -17 15h-124q-14 0 -17 -15zM769 337q0 -38 52 -48q40 0 50 52q-8 50 -48 50h-2q-39 0 -52 -39v-15z" />
<glyph unicode="M" horiz-adv-x="1626" d="M100 703v27q0 283 228 512q130 109 217 137q126 54 260 54h23q209 0 400 -129q111 -80 183 -187q124 -190 124 -400q0 -282 -210 -506q-223 -211 -495 -211h-27q-272 0 -495 211q-208 223 -208 492zM171 717q0 -305 255 -515q181 -131 391 -131q278 0 482 217 q163 190 163 430q0 293 -243 504q-187 140 -402 140q-304 0 -515 -255q-131 -181 -131 -390zM364 322v2q36 45 383 404q-35 64 -35 134q0 165 157 255q61 28 125 28q157 0 249 -155q30 -66 30 -120v-19q0 -132 -129 -228q-74 -43 -155 -43q-37 0 -68 11q-86 -48 -97 -48 l-52 16l-10 -2h-5v-1l26 -64q0 -18 -41 -45l-49 17q-47 -42 -47 -49l-5 -69h-2q-7 0 -49 21q-58 -34 -58 -47q-7 -30 -22 -30l-79 -6zM830 958l260 -253q54 33 78 105q8 28 8 43v19q0 113 -116 172q-38 13 -66 13q-107 0 -164 -99z" />
<glyph unicode="P" horiz-adv-x="1565" d="M100 188q0 71 30 129q36 48 140 79l220 72q110 54 110 123v17q0 69 -37 90q-53 45 -54 67l-26 67q-19 0 -49 49q-11 30 -11 48v8q0 39 26 69l-2 5q0 325 213 401q55 21 121 21h11q113 0 224 -90q103 -117 103 -309v-28q26 -17 26 -58l2 -2v-2q0 -79 -64 -114 q-18 -77 -59 -115q-60 -28 -60 -109q0 -117 196 -158q204 -77 235 -110q45 -47 45 -140v-10q0 -93 -39 -108q-78 -28 -252 -56q-180 -24 -321 -24h-64q-287 0 -602 65q-49 15 -49 39q-13 33 -13 84zM706 170q22 -49 86 -77h2q57 23 84 73v2q0 22 -34 170v2q34 26 34 50 q0 27 -50 63h-69q-47 -32 -47 -59v-2q0 -20 35 -51v-1q-41 -140 -41 -170z" />
<glyph unicode="S" d="M100 776v23q0 266 210 468q193 168 434 168q288 0 495 -234q149 -188 149 -410q0 -226 -153 -417l287 -289l-85 -85l-291 289q-178 -142 -406 -142q-303 0 -515 259q-125 181 -125 370zM196 791q0 -255 214 -436q156 -111 328 -111h10q268 0 449 239q93 148 93 310 q0 239 -193 414q-157 130 -357 130q-237 0 -410 -189q-134 -162 -134 -357z" />
<glyph unicode="U" d="M100 694v47q0 245 195 466q226 226 520 226q277 0 497 -202q218 -224 218 -497v-40q0 -313 -286 -557l-3 2h-2q-199 -139 -395 -139h-58q-196 0 -394 139l-3 -2h-2q-287 245 -287 557zM184 713l3 -11v-10q0 -198 144 -379q27 102 111 197q91 91 179 126q21 5 21 11 q-80 50 -113 165l-8 50v32q0 146 147 247q81 40 147 40q155 0 253 -145q42 -69 42 -142v-32q0 -109 -116 -215h-5q3 -6 50 -24q176 -87 255 -286l5 -24q147 182 147 400l-2 15v11q0 241 -208 447q-193 160 -421 160q-301 0 -507 -257q-121 -172 -121 -358v-8zM402 239 q101 -82 195 -113q106 -39 187 -39h63q166 0 352 129l29 26q-33 148 -118 226q-130 118 -282 118h-2l-11 3l-10 -3h-3q-189 0 -326 -171q-61 -87 -74 -176zM607 870q0 -104 116 -176q51 -18 79 -18h26q105 0 174 113q21 42 21 87v15q0 133 -145 192l-63 11q-138 0 -200 -147 q-8 -29 -8 -56v-21z" />
<glyph unicode="X" d="M100 710v11q0 335 285 570q202 142 414 142h31q305 0 538 -256q165 -211 165 -447v-34q0 -155 -87 -320q-12 -9 -20 -9h-9q-18 0 -26 27v9q73 154 73 293v29q0 237 -178 434q-200 201 -472 201q-249 0 -447 -183q-196 -202 -196 -449v-7l-2 -9l2 -9v-11q0 -243 200 -452 q198 -175 443 -175q217 0 403 135h7q33 -3 33 -33v-2q0 -28 -156 -107q-142 -58 -276 -58h-17q-300 0 -528 240q-180 213 -180 470zM507 445v4q0 19 74 85l180 183q-249 249 -249 253l-5 18q0 30 34 38h11q15 0 82 -74l183 -180l255 252l14 2h4q36 -5 36 -36v-4 q0 -22 -54 -67l-200 -202q254 -255 254 -259v-17q-9 -34 -34 -34h-8q-19 0 -85 74l-182 180l-256 -252l-14 -2h-2q-38 6 -38 38z" />
<glyph unicode="Y" horiz-adv-x="1630" d="M100 703v27q0 293 243 526q217 177 453 177h32q281 0 505 -221q198 -217 198 -494v-2q0 -329 -268 -558q-204 -158 -435 -158h-32q-246 0 -464 187q-232 229 -232 516zM172 701q0 -249 201 -454q197 -175 428 -175h23q262 0 462 205q173 191 173 443q0 261 -198 462 q-198 179 -433 179h-27q-268 0 -480 -228q-149 -192 -149 -400v-32zM347 464v505q0 66 75 83h798q58 0 81 -60q4 -18 4 -47v-457q0 -80 -53 -103l-32 -4h-788q-59 0 -81 58zM409 486l245 230l-245 219v-449zM451 990q341 -317 352 -317q10 -9 25 -9q27 0 190 160 q5 1 183 166h-750zM453 443h746l-245 224h-2q-64 -69 -126 -69q-65 0 -125 69l-3 2h-2zM999 713l245 -227v449q-23 -16 -245 -222z" />
<glyph unicode="a" horiz-adv-x="2737" d="M100 185v1059q0 109 113 169q39 20 92 20h1450q285 0 443 -195q424 -417 424 -430q20 -44 20 -80v-26q0 -90 -129 -196q-413 -420 -431 -420q-141 -86 -258 -86h-1549q-111 0 -172 146zM1851 712q0 -130 142 -182l46 -7q132 0 186 136l6 46v20q0 125 -142 175l-46 7 q-134 0 -186 -143l-6 -46v-6z" />
<glyph unicode="c" horiz-adv-x="1635" d="M100 701v31q0 258 195 478q227 223 510 223h23q242 0 450 -167q114 -106 138 -155q119 -185 119 -394q0 -265 -183 -478q-111 -113 -161 -134q-173 -105 -359 -105h-27q-272 0 -494 207q-211 224 -211 494zM245 717q27 -51 165 -192q154 -131 251 -159q72 -30 144 -30h23 q235 0 506 307l54 72v3q-40 65 -169 192q-210 187 -391 187h-23q-239 0 -514 -317zM578 705v19q0 131 135 209q54 22 92 22h23q112 0 193 -113q36 -66 36 -125q0 -130 -123 -209q-57 -30 -106 -30h-23q-111 0 -192 111q-35 61 -35 116zM723 711q0 -67 82 -88h23q24 0 58 28 q26 36 26 66q0 62 -70 91l-14 2h-23q-82 -21 -82 -88v-11z" />
<glyph unicode="d" horiz-adv-x="1190" d="M100 925v25q0 199 170 362q149 121 321 121h11q237 0 399 -206q94 -132 94 -292q0 -237 -364 -659q-60 -66 -133 -66q-94 0 -177 117q-321 387 -321 598zM130 187q0 100 202 155h4q30 -4 30 -30v-6q0 -25 -72 -42q-100 -41 -100 -75v-2q0 -59 201 -106q112 -19 202 -19 q227 0 368 78q36 27 36 49q0 28 -76 64q-33 15 -83 30q-15 12 -15 29q8 30 28 30h6q204 -55 204 -155q0 -112 -251 -168q-100 -19 -197 -19h-39q-240 0 -389 91q-59 44 -59 96zM406 946q0 -125 134 -185q40 -10 64 -10q94 0 159 82q37 54 37 109v15q0 110 -117 174 q-46 17 -79 17q-114 0 -177 -110q-21 -41 -21 -85v-7z" />
<glyph unicode="g" horiz-adv-x="1852" d="M100 962q0 248 229 405q125 66 239 66q207 0 361 -171q150 171 356 171q223 0 375 -187q93 -131 93 -259v-45q0 -196 -192 -358q-309 -252 -406 -353l-228 -231q-293 309 -353 353q-281 228 -356 303q-118 142 -118 306z" />
<glyph unicode="l" horiz-adv-x="1987" d="M100 1016v1q0 148 50 217v-2l-3 -30v-2q0 -101 242 -211q154 -76 195 -122l8 -8v4l7 106h4q54 -81 207 -265q97 -132 153 -255q83 -201 87 -279q37 41 86 141q99 238 175 313q77 75 114 86v-2q-22 -32 -22 -82v-2h1q17 45 81 88q98 54 255 54q47 0 136 -9v-4h-2 q-98 0 -203 -172q-73 -85 -155 -149q-210 -147 -268 -192q-122 -100 -192 -197l-32 -43q-39 64 -149 177q-154 135 -253 179q-204 105 -285 156q-147 101 -196 245q-41 129 -41 259zM232 1193q74 149 244 212q89 28 161 28q208 0 389 -190q176 190 384 190q243 0 382 -194 q67 -100 67 -236q0 -81 -24 -172l-69 2h-43l-67 -4l-2 2q45 83 45 164q0 123 -101 209q-80 59 -181 59h-14q-149 0 -299 -165q-49 -69 -78 -127l-2 -2h-2q-24 71 -117 173q-133 121 -257 121h-13q-192 0 -263 -171h-2q-65 26 -132 88z" />
<glyph unicode="p" d="M100 55v1321q6 57 55 57q49 -11 49 -49v-1331q0 -45 -47 -53h-11q-39 0 -46 55zM282 235v200q7 30 31 30h345l4 -4v-30q0 -116 68 -228l-2 -2h-404q-42 0 -42 34zM282 621v197q4 34 34 34h636v-4q-68 -18 -157 -96q-88 -95 -105 -162l-2 -2h-372q-34 4 -34 33zM282 1006 v199q5 31 27 31h975q29 -3 29 -29v-207q-6 -26 -29 -26h-975q-22 0 -27 32zM728 423q0 235 220 353q81 33 164 33q66 0 66 -29l-38 -311h2q268 121 285 121h5q39 0 50 -148v-17q0 -189 -175 -313q-96 -59 -207 -59q-140 0 -262 112q-110 120 -110 258zM787 435 q0 -189 182 -291q71 -30 126 -30h22q148 0 255 144q51 85 51 173q0 43 -13 89l-302 -129h-8q-26 6 -26 25q0 23 41 332h-24q-128 0 -232 -116q-72 -95 -72 -197zM1208 583q35 301 40 311q7 6 14 6q78 0 178 -80q78 -84 78 -118q0 -18 -51 -32q-229 -101 -245 -101 q-7 0 -14 14z" />
<glyph unicode="s" horiz-adv-x="1635" d="M100 704v23q0 251 181 466q98 100 160 134q178 104 361 104h23q275 0 495 -207q211 -223 211 -495v-27q0 -269 -207 -491q-221 -211 -499 -211h-23q-272 0 -495 211q-207 221 -207 493zM156 716q0 -280 216 -489q197 -171 444 -171q280 0 488 216q171 197 171 444 q0 280 -216 488q-197 171 -443 171q-281 0 -489 -216q-171 -197 -171 -443zM448 710l40 61h3l183 -141q164 243 410 410h80v-2q-232 -246 -298 -347q-110 -155 -192 -307z" />
<glyph unicode="t" horiz-adv-x="1626" d="M100 701v29q0 256 189 472q227 231 526 231q318 0 552 -258q166 -211 166 -460q0 -275 -198 -492q-224 -223 -505 -223h-29q-264 0 -483 200q-218 223 -218 501zM192 701q0 -251 205 -451q190 -158 400 -158h37q228 0 427 183q180 196 180 440q0 285 -232 487 q-181 139 -394 139q-285 0 -490 -237q-133 -181 -133 -370v-33zM736 620v489q9 43 42 43h8q34 0 42 -43v-441h274q71 0 71 -50l2 -2q-9 -50 -50 -50h-334q-14 0 -28 6v2q63 69 63 75v17h-15q-68 0 -68 -46v-9l8 -27q-15 8 -15 36z" />
<glyph unicode="u" horiz-adv-x="1704" d="M100 171v42q0 123 303 252q47 14 60 37q19 36 19 66v16q0 27 -47 79q-100 141 -100 289q0 207 166 281q53 22 117 22q197 0 267 -188q16 -50 16 -99v-24q0 -148 -122 -304q-29 -21 -29 -76q0 -75 52 -91q91 -32 167 -74q59 -30 135 -110q30 -39 30 -99q0 -99 -109 -138 q-166 -52 -372 -52h-62q-284 0 -423 72q-68 44 -68 99zM866 568l37 54q108 166 108 324v24q0 179 -139 308q67 155 240 155q135 0 212 -122q36 -67 36 -159v-14q0 -165 -120 -304q-6 -12 -10 -47q0 -44 51 -58q308 -112 308 -248v-16q0 -99 -108 -133q-124 -39 -254 -39 q-64 143 -274 236z" />
<glyph unicode="v" horiz-adv-x="1820" d="M100 791q0 55 65 80l20 2h12q36 0 122 -92l590 -562q622 600 671 642q23 12 38 12h12q60 0 82 -69v-18q0 -43 -67 -94q-707 -682 -722 -690l-9 -2h-10q-24 0 -78 62l-368 351q-322 306 -351 341zM100 1343q0 66 67 90h30q36 0 122 -92l590 -562q671 649 681 649l25 5h15 q61 0 82 -72v-13q0 -43 -62 -92q-663 -638 -727 -694l-14 -2h-5q-24 0 -78 62l-482 460q-239 226 -239 237z" />
<glyph unicode="x" horiz-adv-x="1630" d="M100 705v28q0 270 211 494q223 207 490 207h32q270 0 494 -211q207 -222 207 -490v-8l2 -8l-2 -8v-8q0 -230 -159 -436q-230 -265 -556 -265h-4q-345 0 -578 293q-137 196 -137 412zM309 829q50 -35 303 -230l-110 -366l315 219l315 -219v2q-108 348 -110 366l303 228v2 l-30 2l-351 5q-4 3 -125 361h-4q-108 -319 -125 -361h-2l-357 -5l-22 -2v-2z" />
<glyph unicode="z" horiz-adv-x="1695" d="M100 144v573q0 63 79 93l22 2h199l4 -4v-755l-4 -4h-203q-63 0 -93 72q-4 8 -4 23zM509 136v562q147 120 212 219q83 121 108 257q37 210 50 227q19 32 63 32h32q118 0 138 -180l2 -57v-194l-2 -41q79 9 184 9h41q183 0 222 -45q43 -63 43 -115q0 -59 -45 -83 q-42 -14 -42 -41q0 -21 63 -52q30 -31 30 -61v-14q0 -26 -51 -81q-16 -24 -16 -47v-4q0 -16 37 -49q18 -27 18 -58v-14q0 -58 -75 -85q-14 -13 -14 -23v-4l6 -54q0 -41 -29 -57q-45 -27 -240 -57l-245 -26q-344 31 -344 47q-84 21 -136 70q-10 11 -10 19z" />
<glyph unicode="&#x2000;" horiz-adv-x="717" />
<glyph unicode="&#x2001;" horiz-adv-x="1435" />
<glyph unicode="&#x2002;" horiz-adv-x="717" />
<glyph unicode="&#x2003;" horiz-adv-x="1435" />
<glyph unicode="&#x2004;" horiz-adv-x="478" />
<glyph unicode="&#x2005;" horiz-adv-x="358" />
<glyph unicode="&#x2006;" horiz-adv-x="239" />
<glyph unicode="&#x2007;" horiz-adv-x="239" />
<glyph unicode="&#x2008;" horiz-adv-x="179" />
<glyph unicode="&#x2009;" horiz-adv-x="287" />
<glyph unicode="&#x200a;" horiz-adv-x="79" />
<glyph unicode="&#x202f;" horiz-adv-x="287" />
<glyph unicode="&#x205f;" horiz-adv-x="358" />
<glyph unicode="&#x25fc;" horiz-adv-x="1435" d="M0 0v1435h1435v-1435h-1435z" />
</font>
</defs>
</svg>
