<?xml version="1.0" standalone="no"?><!DOCTYPE svg PUBLIC "-//W3C//DTD SVG 1.1//EN" "http://www.w3.org/Graphics/SVG/1.1/DTD/svg11.dtd"><svg t="1535173824262" class="icon" style="" viewBox="0 0 1024 1024" version="1.1" xmlns="http://www.w3.org/2000/svg" p-id="3598" xmlns:xlink="http://www.w3.org/1999/xlink" width="18" height="18"><defs><style type="text/css"></style></defs><path d="M878.672 950.864v-780.8c0-10.064-8.256-18.288-18.336-18.288H658.672V18.288C658.672 8.224 650.4 0 640.32 0H163.664c-10.064 0-18.336 8.224-18.336 18.288v932.576H72V1024h880v-73.136h-73.328zM365.328 804.576H292v-73.152h73.328v73.152z m0-146.288H292V585.12h73.328v73.152z m0-146.288H292v-73.136h73.328V512z m0-146.288H292v-73.136h73.328v73.136z m0-146.288H292v-73.136h73.328v73.136zM512 804.576h-73.328v-73.152H512v73.152z m0-146.288h-73.328V585.12H512v73.152zM512 512h-73.328v-73.136H512V512z m0-146.288h-73.328v-73.136H512v73.136z m0-146.288h-73.328v-73.136H512v73.136z m220 585.152h-73.328v-73.152H732v73.152z m0-146.288h-73.328V585.12H732v73.152zM732 512h-73.328v-73.136H732V512z m0-146.288h-73.328v-73.136H732v73.136z" p-id="3599" fill="#999999"></path></svg>